<svg xmlns="http://www.w3.org/2000/svg" xmlns:xlink="http://www.w3.org/1999/xlink" width="78.24" height="82.315" viewBox="0 0 78.24 82.315">
  <defs>
    <linearGradient id="linear-gradient" x1="0.5" x2="0.5" y2="1" gradientUnits="objectBoundingBox">
      <stop offset="0" stop-color="#e88218"/>
      <stop offset="1" stop-color="#fff"/>
    </linearGradient>
    <linearGradient id="linear-gradient-3" x1="0.5" x2="0.5" y2="1" gradientUnits="objectBoundingBox">
      <stop offset="0" stop-color="#fff"/>
      <stop offset="1" stop-color="#e88218"/>
    </linearGradient>
  </defs>
  <g id="Group_177412" data-name="Group 177412" transform="translate(-1217.608 -3716.217)">
    <g id="Group_177367" data-name="Group 177367" transform="translate(2418.974 7533.03) rotate(180)">
      <path id="instilling-good-behavior-in-down-syndrome-children-800x533" d="M34.475,2.434C7.062,12.451,0,17.869,0,36.909S36.92,76.166,55.96,76.166s16.3-22.745,16.3-41.785S61.888-7.583,34.475,2.434Z" transform="translate(1126.047 3737.573)" fill="#009cdd"/>
      <g id="instilling-good-behavior-in-down-syndrome-children-800x533-2" data-name="instilling-good-behavior-in-down-syndrome-children-800x533" transform="translate(1123.125 3734.499)" fill="none" opacity="0.67">
        <path d="M37.258,2.63C7.632,13.456,0,19.311,0,39.888S39.9,82.315,60.477,82.315,78.092,57.733,78.092,37.156,66.883-8.2,37.258,2.63Z" stroke="none"/>
        <path d="M 50.64768981933594 0.9999923706054688 C 46.65697479248047 0.9999923706054688 42.26746368408203 1.86456298828125 37.60111236572266 3.5697021484375 C 29.40413665771484 6.564964294433594 23.78397369384766 8.863739013671875 19.3781852722168 11.0233039855957 C 14.41118621826172 13.45795440673828 10.86305999755859 15.77775192260742 8.2120361328125 18.3238525390625 C 5.525527954101562 20.90401458740234 3.744209289550781 23.73033905029297 2.606124877929688 27.21842956542969 C 1.510360717773438 30.57681655883789 1 34.60277938842773 1 39.88837814331055 C 1 42.23665618896484 1.561775207519531 44.70198822021484 2.669723510742188 47.21592712402344 C 3.728790283203125 49.61892700195312 5.296211242675781 52.09098052978516 7.328453063964844 54.56339263916016 C 11.11781311035156 59.17350387573242 16.55821228027344 63.8114013671875 23.0615119934082 67.97570037841797 C 29.190673828125 71.90042877197266 35.97573852539062 75.24139404296875 42.68316268920898 77.63740539550781 C 49.41752624511719 80.04302978515625 55.57061004638672 81.3145751953125 60.47723770141602 81.3145751953125 C 65.13179016113281 81.3145751953125 68.65705871582031 80.031982421875 71.25450134277344 77.39350128173828 C 77.58621215820312 70.96173858642578 77.37249755859375 57.33201599121094 77.16584014892578 44.15103912353516 C 77.12962341308594 41.84189224243164 77.09218597412109 39.4541015625 77.09218597412109 37.15640258789062 C 77.09218597412109 32.82807922363281 76.57606506347656 28.403564453125 75.59960174560547 24.36119079589844 C 74.53266143798828 19.94424057006836 72.95108795166016 16.01444244384766 70.89883422851562 12.68091583251953 C 68.66089630126953 9.045806884765625 65.90776062011719 6.209213256835938 62.71592712402344 4.249954223632812 C 59.20285034179688 2.093528747558594 55.14268493652344 1.000076293945312 50.64791107177734 0.9999923706054688 L 50.64768981933594 0.9999923706054688 M 50.64823150634766 0 C 70.32872009277344 0.0003662109375 78.09218597412109 20.03194046020508 78.09218597412109 37.15640258789062 C 78.09218597412109 57.73337936401367 81.05419921875 82.3145751953125 60.47723770141602 82.3145751953125 C 39.90027618408203 82.3145751953125 0 60.46535491943359 0 39.88837814331055 C 0 19.3113899230957 7.632286071777344 13.45596694946289 37.25790023803711 2.630439758300781 C 42.2286491394043 0.8140716552734375 46.68038177490234 -7.62939453125e-05 50.64823150634766 0 Z" stroke="none" fill="#f58737"/>
      </g>
    </g>
    <g id="SvgjsG1017" transform="translate(1181.348 3726.607)">
      <g id="Group_177371" data-name="Group 177371" transform="translate(55.555 6.039)">
        <path id="Path_41316" data-name="Path 41316" d="M167.647,223.1a5.844,5.844,0,1,0,4.136,1.712A5.833,5.833,0,0,0,167.647,223.1Zm0,8.667a2.78,2.78,0,1,1,2.78-2.78A2.783,2.783,0,0,1,167.647,231.767Z" transform="translate(-151.288 -201.624)"/>
        <path id="Path_41317" data-name="Path 41317" d="M197.579,22.657l-.168-.94a.62.62,0,0,1,.267-.613,7.1,7.1,0,0,0,1.3-1.069.6.6,0,0,1,.653-.148l.89.346a.605.605,0,0,0,.752-.277l.8-1.494a.6.6,0,0,0-.188-.782l-.782-.554a.613.613,0,0,1-.247-.623,7.268,7.268,0,0,0,.168-1.672.606.606,0,0,1,.366-.564l.881-.386a.608.608,0,0,0,.336-.732l-.495-1.623a.61.61,0,0,0-.683-.425l-.94.168a.62.62,0,0,1-.613-.267,7.1,7.1,0,0,0-1.069-1.3.6.6,0,0,1-.148-.653l.346-.89a.605.605,0,0,0-.277-.752l-1.494-.8a.6.6,0,0,0-.782.188l-.554.782a.613.613,0,0,1-.623.247,7.219,7.219,0,0,0-2.068-.148L192.671,6.4a.608.608,0,0,0-.732-.336l-1.623.495a.61.61,0,0,0-.425.683l.168.94a.62.62,0,0,1-.267.613,7.1,7.1,0,0,0-1.3,1.069.6.6,0,0,1-.653.148l-.89-.346a.605.605,0,0,0-.752.277l-.8,1.494a.6.6,0,0,0,.188.782l.782.554a.613.613,0,0,1,.247.623,7.269,7.269,0,0,0-.168,1.672.606.606,0,0,1-.366.564l-.881.386a.608.608,0,0,0-.336.732l.495,1.623a.61.61,0,0,0,.683.425l.94-.168a.62.62,0,0,1,.613.267,7.1,7.1,0,0,0,1.069,1.3.6.6,0,0,1,.148.653l-.346.89a.605.605,0,0,0,.277.752l1.494.8a.6.6,0,0,0,.782-.188l.554-.782a.613.613,0,0,1,.623-.247,7.268,7.268,0,0,0,1.672.168.606.606,0,0,1,.564.366l.386.881a.608.608,0,0,0,.732.336l1.623-.495A.6.6,0,0,0,197.579,22.657Zm-2.444-3.077a4.831,4.831,0,0,1-6.026-3.235,4.733,4.733,0,0,1,.366-3.681A4.838,4.838,0,0,1,198,17.235,4.872,4.872,0,0,1,195.135,19.58Z" transform="translate(-172.048 -6.039)" fill-rule="evenodd" fill="url(#linear-gradient)"/>
        <path id="Path_41318" data-name="Path 41318" d="M253.234,73.208a2.294,2.294,0,1,0,2.859,1.534A2.294,2.294,0,0,0,253.234,73.208Zm18.2,12.843-.772-.089a.487.487,0,0,1-.416-.356,6.206,6.206,0,0,0-.524-1.266.5.5,0,0,1,.04-.544l.485-.613a.487.487,0,0,0-.04-.653l-.98-.98a.486.486,0,0,0-.653-.04l-.613.485a.5.5,0,0,1-.544.04,5.764,5.764,0,0,0-1.583-.6l-.139-1.108a.494.494,0,0,0-.495-.435h-1.385a.5.5,0,0,0-.495.435l-.089.772a.487.487,0,0,1-.356.416,6.208,6.208,0,0,0-1.266.524.5.5,0,0,1-.544-.04l-.613-.485a.487.487,0,0,0-.653.04l-.98.98a.487.487,0,0,0-.04.653l.485.613a.5.5,0,0,1,.04.544,6.206,6.206,0,0,0-.524,1.266.5.5,0,0,1-.416.356l-.772.089a.494.494,0,0,0-.435.495V87.93a.5.5,0,0,0,.435.495l.772.089a.487.487,0,0,1,.416.356,6.206,6.206,0,0,0,.524,1.266.5.5,0,0,1-.04.544l-.485.613a.487.487,0,0,0,.04.653l.98.98a.487.487,0,0,0,.653.04l.613-.485a.5.5,0,0,1,.544-.04,6.207,6.207,0,0,0,1.266.524.5.5,0,0,1,.356.416l.089.772a.494.494,0,0,0,.495.435H265.2a.5.5,0,0,0,.495-.435l.089-.772a.487.487,0,0,1,.356-.416,6.208,6.208,0,0,0,1.266-.524.5.5,0,0,1,.544.04l.613.485a.487.487,0,0,0,.653-.04l.98-.98a.487.487,0,0,0,.04-.653l-.485-.613a.5.5,0,0,1-.04-.544,6.206,6.206,0,0,0,.524-1.266.5.5,0,0,1,.416-.356l.772-.089a.494.494,0,0,0,.435-.495V86.545A.47.47,0,0,0,271.429,86.05Zm-4.136,3.977a3.941,3.941,0,1,1,1.158-2.79A3.942,3.942,0,0,1,267.294,90.028Z" transform="translate(-232.205 -66.474)" fill-rule="evenodd" fill="url(#linear-gradient)"/>
        <circle id="Ellipse_861" data-name="Ellipse 861" cx="1.87" cy="1.87" r="1.87" transform="translate(30.429 18.914)" fill="#2e77bc"/>
        <path id="Path_41319" data-name="Path 41319" d="M84.005,161.815a2.949,2.949,0,0,1-1.177.049v.722a.737.737,0,0,1-.643.732l-1.148.139a.735.735,0,0,0-.613.524,8.972,8.972,0,0,1-.782,1.88.736.736,0,0,0,.059.811l.712.91a.727.727,0,0,1-.059.97L78.9,170.008a.728.728,0,0,1-.97.059l-.91-.712a.736.736,0,0,0-.811-.059,8.758,8.758,0,0,1-1.88.782.719.719,0,0,0-.524.613l-.139,1.148a.737.737,0,0,1-.732.643H70.886a.737.737,0,0,1-.732-.643l-.139-1.148a.735.735,0,0,0-.524-.613,8.972,8.972,0,0,1-1.88-.782.736.736,0,0,0-.811.059l-.91.712a.727.727,0,0,1-.97-.059l-1.464-1.454a.728.728,0,0,1-.059-.97l.712-.91a.736.736,0,0,0,.059-.811,8.758,8.758,0,0,1-.782-1.88.719.719,0,0,0-.613-.524l-1.138-.148a.737.737,0,0,1-.643-.732v-2.048a.737.737,0,0,1,.643-.732l1.148-.139a.735.735,0,0,0,.613-.524,8.972,8.972,0,0,1,.782-1.88.736.736,0,0,0-.059-.811l-.712-.91a.727.727,0,0,1,.059-.97l1.454-1.454a.728.728,0,0,1,.97-.059l.91.712a.736.736,0,0,0,.811.059,8.758,8.758,0,0,1,1.88-.782.719.719,0,0,0,.524-.613l.139-1.148a.735.735,0,0,1,.475-.6,3.043,3.043,0,0,1-.089-1.039,3.055,3.055,0,0,1-2.226-1.336,13.48,13.48,0,0,0-9.766,10.953c-.049.346-.089.7-.119,1.059-.228,1.88-.811,5.729-1.89,7.322a5.524,5.524,0,0,0-.98,2.543,1.17,1.17,0,0,0,1.168,1.266h1.811v4.977s.04,2.444,3.067,2.632l3.225-.386.287,3.928a1.17,1.17,0,0,0,1.415,1.059l13.288-2.83a1.174,1.174,0,0,0,.93-1.148v-8.252a13.42,13.42,0,0,0,4.482-8.489A2.97,2.97,0,0,1,84.005,161.815Z" transform="translate(-55.555 -134.225)" fill="url(#linear-gradient-3)"/>
      </g>
    </g>
  </g>
</svg>
