<svg xmlns="http://www.w3.org/2000/svg" xmlns:xlink="http://www.w3.org/1999/xlink" width="78.24" height="82.314" viewBox="0 0 78.24 82.314">
  <defs>
    <linearGradient id="linear-gradient" x1="0.5" x2="0.5" y2="1" gradientUnits="objectBoundingBox">
      <stop offset="0" stop-color="#fff"/>
      <stop offset="1" stop-color="#e88218"/>
    </linearGradient>
  </defs>
  <g id="Group_177413" data-name="Group 177413" transform="translate(-1217.608 -3814.969)">
    <g id="Group_177368" data-name="Group 177368" transform="translate(1217.608 3814.969)">
      <path id="instilling-good-behavior-in-down-syndrome-children-800x533" d="M34.475,73.732C7.062,63.715,0,58.3,0,39.257S36.92,0,55.96,0s16.3,22.745,16.3,41.785S61.888,83.749,34.475,73.732Z" transform="translate(2.922 3.074)" fill="#e4e4e4"/>
      <g id="instilling-good-behavior-in-down-syndrome-children-800x533-2" data-name="instilling-good-behavior-in-down-syndrome-children-800x533" transform="translate(0 0)" fill="none" opacity="0.67">
        <path d="M37.258,79.684C7.632,68.859,0,63,0,42.426S39.9,0,60.477,0,78.092,24.581,78.092,45.158,66.883,90.51,37.258,79.684Z" stroke="none"/>
        <path d="M 50.64822387695312 81.31453704833984 C 55.1426887512207 81.31453704833984 59.20283889770508 80.22115325927734 62.71591186523438 78.06472778320312 C 65.90775299072266 76.10549926757812 68.660888671875 73.26891326904297 70.89882659912109 69.63376617431641 C 72.95108795166016 66.30022430419922 74.53264617919922 62.37040328979492 75.59958648681641 57.95341491699219 C 76.57606506347656 53.91101455688477 77.09218597412109 49.48647689819336 77.09218597412109 45.15815353393555 C 77.09218597412109 42.86045455932617 77.12962341308594 40.47266387939453 77.16584014892578 38.16351699829102 C 77.37249755859375 24.98255348205566 77.58621215820312 11.35284042358398 71.25450897216797 4.921077728271484 C 68.65707397460938 2.282602787017822 65.13179779052734 1.00000274181366 60.47723770141602 1.00000274181366 C 55.57061386108398 1.00000274181366 49.41752624511719 2.271552801132202 42.68316268920898 4.677177906036377 C 35.97573852539062 7.073177814483643 29.190673828125 10.41413974761963 23.0615119934082 14.33886528015137 C 16.55821228027344 18.50316429138184 11.11781215667725 23.14106559753418 7.328449726104736 27.75116539001465 C 5.296212196350098 30.22357749938965 3.728787183761597 32.69562911987305 2.669724702835083 35.09862899780273 C 1.561774611473083 37.61256408691406 0.9999995827674866 40.07790374755859 0.9999995827674866 42.42617797851562 C 0.9999995827674866 47.71176528930664 1.510362148284912 51.73772811889648 2.606124639511108 55.09611511230469 C 3.74421215057373 58.5842170715332 5.525524616241455 61.41052627563477 8.212037086486816 63.99070358276367 C 10.86307430267334 66.53678894042969 14.41118717193604 68.85659027099609 19.37818717956543 71.29123687744141 C 23.78397369384766 73.4508056640625 29.40413665771484 75.74958038330078 37.60111236572266 78.74484252929688 C 42.26744842529297 80.44996643066406 46.65712356567383 81.31453704833984 50.64822387695312 81.31453704833984 M 50.64823150634766 82.31454467773438 C 46.68037796020508 82.31454467773438 42.2286491394043 81.50046539306641 37.25790023803711 79.68410491943359 C 7.632299423217773 68.85857391357422 -3.906250185536919e-07 63.00315093994141 -3.906250185536919e-07 42.42617797851562 C -3.906250185536919e-07 21.84920310974121 39.90027618408203 2.703857489905204e-06 60.47723770141602 2.703857489905204e-06 C 81.05419921875 2.703857489905204e-06 78.09218597412109 24.5811767578125 78.09218597412109 45.15815353393555 C 78.09218597412109 62.28261566162109 70.32872009277344 82.31454467773438 50.64823150634766 82.31454467773438 Z" stroke="none" fill="#f58737"/>
      </g>
    </g>
    <g id="quality-svgrepo-com" transform="translate(1165.655 3833.324)">
      <path id="Path_41320" data-name="Path 41320" d="M118.11,265.281l-6.934-20.174H95.254L88.32,265.281a.786.786,0,0,0,.943,1.016l4.063-1.067,2.548,3.34a.786.786,0,0,0,1.369-.221l5.972-17.375,5.972,17.375a.786.786,0,0,0,1.369.221l2.548-3.34,4.063,1.068A.786.786,0,0,0,118.11,265.281Z" transform="translate(-8.042 -223.276)" fill="url(#linear-gradient)"/>
      <path id="Path_41321" data-name="Path 41321" d="M158.49,252.691l-2.607-7.584H139.962l-2.607,7.584a17.2,17.2,0,0,0,8.769,3.515l1.8-5.233,1.8,5.233A17.206,17.206,0,0,0,158.49,252.691Z" transform="translate(-52.749 -223.276)" fill="#e88218"/>
      <circle id="Ellipse_862" data-name="Ellipse 862" cx="15.725" cy="15.725" r="15.725" transform="translate(79.448 0)" fill="#ffc36e"/>
      <path id="Path_41322" data-name="Path 41322" d="M95.173,0A15.725,15.725,0,1,0,110.9,15.725,15.725,15.725,0,0,0,95.173,0Zm0,29.092A13.366,13.366,0,1,1,108.54,15.725,13.366,13.366,0,0,1,95.173,29.092Z" transform="translate(0 0)" fill="#ffd782"/>
      <path id="Path_41323" data-name="Path 41323" d="M119.3,26.483a13.366,13.366,0,1,0,13.366,13.366A13.366,13.366,0,0,0,119.3,26.483Zm0,25.16a11.794,11.794,0,1,1,11.794-11.794A11.794,11.794,0,0,1,119.3,51.643Z" transform="translate(-24.124 -24.124)" fill="#ebb45f"/>
      <path id="Path_41324" data-name="Path 41324" d="M176.741,101.072l-3.878,2.039a.875.875,0,0,1-1.269-.922l.741-4.318L169.2,94.812a.875.875,0,0,1,.485-1.492l4.335-.63,1.939-3.928a.875.875,0,0,1,1.569,0l1.939,3.928,4.335.63a.875.875,0,0,1,.485,1.492l-3.137,3.058.741,4.318a.875.875,0,0,1-1.269.922Z" transform="translate(-81.514 -80.411)" fill="#ffd782"/>
      <path id="Path_41325" data-name="Path 41325" d="M160.65,72.194a.865.865,0,0,1,.785.488l1.939,3.928,4.335.63a.875.875,0,0,1,.485,1.492l-3.137,3.058.741,4.318a.873.873,0,0,1-1.27.922l-3.878-2.039-3.878,2.039a.873.873,0,0,1-1.27-.922l.741-4.318-3.137-3.058a.875.875,0,0,1,.485-1.492l4.335-.63,1.939-3.928a.865.865,0,0,1,.785-.488m0-1.573a2.432,2.432,0,0,0-2.195,1.364l-1.573,3.187-3.517.511a2.447,2.447,0,0,0-1.356,4.175l2.545,2.481-.6,3.5a2.445,2.445,0,0,0,3.551,2.58l3.146-1.654,3.146,1.654a2.447,2.447,0,0,0,3.551-2.58l-.6-3.5,2.545-2.481a2.447,2.447,0,0,0-1.356-4.175l-3.517-.511-1.573-3.187a2.433,2.433,0,0,0-2.195-1.364Z" transform="translate(-65.423 -64.331)" fill="#ebb45f"/>
      <path id="Path_41326" data-name="Path 41326" d="M242.907,93.321l-4.335-.63-1.939-3.928a.875.875,0,0,0-1.569,0l-1.245,2.522L240.7,102.99a.856.856,0,0,0,.291-.8l-.741-4.318,3.137-3.058A.875.875,0,0,0,242.907,93.321Z" transform="translate(-140.621 -80.412)" fill="#ffe6a0"/>
      <g id="Group_177372" data-name="Group 177372" transform="translate(96.235 4.717)">
        <path id="Path_41327" data-name="Path 41327" d="M302.485,55.776a3.643,3.643,0,0,1-2.735-2.735.092.092,0,0,0-.182,0,3.643,3.643,0,0,1-2.735,2.735.092.092,0,0,0,0,.182,3.643,3.643,0,0,1,2.735,2.735.092.092,0,0,0,.182,0,3.643,3.643,0,0,1,2.735-2.735A.092.092,0,0,0,302.485,55.776Z" transform="translate(-294.189 -52.964)" fill="#fff"/>
        <path id="Path_41328" data-name="Path 41328" d="M271.516,116.513a2.363,2.363,0,0,1-1.69-1.69.077.077,0,0,0-.15,0,2.363,2.363,0,0,1-1.69,1.69.077.077,0,0,0,0,.15,2.363,2.363,0,0,1,1.69,1.69.077.077,0,0,0,.15,0,2.363,2.363,0,0,1,1.69-1.69A.077.077,0,0,0,271.516,116.513Z" transform="translate(-267.923 -109.257)" fill="#fff"/>
      </g>
    </g>
  </g>
</svg>
