<svg xmlns="http://www.w3.org/2000/svg" xmlns:xlink="http://www.w3.org/1999/xlink" width="165" height="48" viewBox="0 0 165 48">
  <defs>
    <clipPath id="clip-path">
      <rect id="Rectangle_14" data-name="Rectangle 14" width="165" height="48" rx="5" transform="translate(0.001)" fill="#7e7e7e"/>
    </clipPath>
    <linearGradient id="linear-gradient" x1="-1.199" y1="2.436" x2="-1.199" y2="1.535" gradientUnits="objectBoundingBox">
      <stop offset="0" stop-color="#1a1a1a" stop-opacity="0.102"/>
      <stop offset="0.123" stop-color="#212121" stop-opacity="0.153"/>
      <stop offset="0.308" stop-color="#353535" stop-opacity="0.227"/>
      <stop offset="0.532" stop-color="#575757" stop-opacity="0.318"/>
      <stop offset="0.783" stop-color="#858585" stop-opacity="0.42"/>
      <stop offset="1" stop-color="#b3b3b3" stop-opacity="0.51"/>
    </linearGradient>
  </defs>
  <g id="Mask_Group_1" data-name="Mask Group 1" transform="translate(-0.001)" clip-path="url(#clip-path)">
    <g id="download-166" transform="translate(-0.1 0)">
      <g id="Group_376" data-name="Group 376" transform="translate(0 0)">
        <path id="Path_28" data-name="Path 28" d="M164.971,44.1a4.686,4.686,0,0,1-4.692,4.685H6.746a4.692,4.692,0,0,1-4.7-4.685V6.739a4.7,4.7,0,0,1,4.7-4.692H160.278a4.691,4.691,0,0,1,4.692,4.692V44.1Z" transform="translate(-0.959 -0.959)" fill="#fff"/>
        <path id="Path_29" data-name="Path 29" d="M159.32,48.921H5.787A5.787,5.787,0,0,1,0,43.146V5.782A5.791,5.791,0,0,1,5.787,0H159.319a5.793,5.793,0,0,1,5.787,5.782V43.145a5.786,5.786,0,0,1-5.786,5.775Z" transform="translate(0 0)" fill="#a6a6a6"/>
        <path id="Path_30" data-name="Path 30" d="M164.971,44.1a4.686,4.686,0,0,1-4.692,4.685H6.746a4.692,4.692,0,0,1-4.7-4.685V6.739a4.7,4.7,0,0,1,4.7-4.692H160.278a4.691,4.691,0,0,1,4.692,4.692V44.1Z" transform="translate(-0.959 -0.959)"/>
        <path id="Path_31" data-name="Path 31" d="M50.651,30.9a7.091,7.091,0,0,1,3.379-5.95,7.266,7.266,0,0,0-5.722-3.093C45.9,21.6,43.566,23.3,42.34,23.3c-1.251,0-3.139-1.415-5.174-1.374a7.618,7.618,0,0,0-6.412,3.91c-2.773,4.8-.7,11.852,1.952,15.731,1.329,1.9,2.882,4.021,4.914,3.947,1.988-.081,2.731-1.266,5.131-1.266,2.378,0,3.075,1.266,5.148,1.218,2.134-.033,3.478-1.908,4.76-3.825a15.68,15.68,0,0,0,2.177-4.432A6.861,6.861,0,0,1,50.651,30.9ZM46.735,19.305a6.979,6.979,0,0,0,1.6-5,7.113,7.113,0,0,0-4.6,2.378A6.642,6.642,0,0,0,42.1,21.5,5.875,5.875,0,0,0,46.735,19.305Z" transform="translate(-13.784 -6.697)" fill="#fff"/>
        <path id="Path_32" data-name="Path 32" d="M227.2,0H144.962l32.211,48.921H227.2a5.791,5.791,0,0,0,5.787-5.779V5.782A5.792,5.792,0,0,0,227.2,0Z" transform="translate(-67.879 0)" fill="url(#linear-gradient)"/>
        <path id="Path_33" data-name="Path 33" d="M111.39,45.6h-2.779l-1.522-4.782H101.8l-1.45,4.782H97.642l5.243-16.28h3.238L111.39,45.6Zm-4.76-6.788-1.377-4.251q-.218-.651-.821-3.067h-.049q-.242,1.039-.773,3.067l-1.353,4.251Zm18.218.774a6.647,6.647,0,0,1-1.627,4.733,4.772,4.772,0,0,1-3.62,1.546,3.624,3.624,0,0,1-3.353-1.665v6.16h-2.609V37.719q0-1.881-.1-3.858h2.294l.146,1.861h.049a4.642,4.642,0,0,1,7.429-.461,6.49,6.49,0,0,1,1.388,4.326Zm-2.658.1a4.839,4.839,0,0,0-.773-2.827,2.673,2.673,0,0,0-2.271-1.159,2.713,2.713,0,0,0-1.751.64,2.968,2.968,0,0,0-1.027,1.68,3.4,3.4,0,0,0-.121.794v1.959a3.14,3.14,0,0,0,.786,2.163,2.608,2.608,0,0,0,2.041.882,2.674,2.674,0,0,0,2.294-1.135A5,5,0,0,0,122.19,39.681Zm16.164-.1a6.647,6.647,0,0,1-1.628,4.733,4.775,4.775,0,0,1-3.621,1.546,3.624,3.624,0,0,1-3.353-1.665v6.16h-2.609V37.719q0-1.881-.1-3.858h2.294l.146,1.861h.049a4.643,4.643,0,0,1,7.43-.461,6.5,6.5,0,0,1,1.388,4.326Zm-2.659.1a4.839,4.839,0,0,0-.775-2.827,2.669,2.669,0,0,0-2.269-1.159,2.725,2.725,0,0,0-1.754.64,2.966,2.966,0,0,0-1.025,1.68,3.486,3.486,0,0,0-.122.794v1.959a3.151,3.151,0,0,0,.784,2.163,2.614,2.614,0,0,0,2.044.882,2.671,2.671,0,0,0,2.294-1.135A5,5,0,0,0,135.694,39.681Zm17.759,1.352a4.348,4.348,0,0,1-1.448,3.383,6.417,6.417,0,0,1-4.436,1.425,7.744,7.744,0,0,1-4.217-1.014l.6-2.174a7.259,7.259,0,0,0,3.769,1.015A3.557,3.557,0,0,0,150.02,43a2.17,2.17,0,0,0,.824-1.774,2.273,2.273,0,0,0-.678-1.667,6.285,6.285,0,0,0-2.247-1.255q-4.277-1.595-4.278-4.663a4.117,4.117,0,0,1,1.51-3.285,5.972,5.972,0,0,1,4-1.281,7.9,7.9,0,0,1,3.7.773l-.655,2.126a6.465,6.465,0,0,0-3.129-.749,3.182,3.182,0,0,0-2.159.677,1.936,1.936,0,0,0-.655,1.475,1.994,1.994,0,0,0,.75,1.594,8.451,8.451,0,0,0,2.367,1.255,8.023,8.023,0,0,1,3.092,1.979,4.125,4.125,0,0,1,.995,2.823Zm8.648-5.215h-2.876v5.7q0,2.175,1.522,2.173a4.584,4.584,0,0,0,1.159-.121l.072,1.981a5.913,5.913,0,0,1-2.029.289,3.127,3.127,0,0,1-2.417-.943,4.624,4.624,0,0,1-.87-3.165V35.813H154.95V33.856h1.713V31.706l2.562-.773v2.923H162.1Zm12.949,3.816a6.439,6.439,0,0,1-1.547,4.444,5.514,5.514,0,0,1-4.3,1.787,5.256,5.256,0,0,1-4.12-1.713,6.243,6.243,0,0,1-1.534-4.323,6.387,6.387,0,0,1,1.582-4.468,5.485,5.485,0,0,1,4.266-1.74,5.366,5.366,0,0,1,4.154,1.715,6.162,6.162,0,0,1,1.5,4.3Zm-2.7.06a5.255,5.255,0,0,0-.7-2.77,2.582,2.582,0,0,0-2.345-1.4,2.62,2.62,0,0,0-2.392,1.4,5.342,5.342,0,0,0-.7,2.819,5.24,5.24,0,0,0,.7,2.771,2.676,2.676,0,0,0,4.715-.023A5.276,5.276,0,0,0,172.346,39.694Zm11.188-3.539a4.541,4.541,0,0,0-.822-.072,2.462,2.462,0,0,0-2.127,1.04,3.916,3.916,0,0,0-.651,2.318V45.6h-2.609V37.558q0-1.848-.076-3.7h2.272l.1,2.246h.072a4.027,4.027,0,0,1,1.3-1.861,3.155,3.155,0,0,1,1.886-.629,4.19,4.19,0,0,1,.652.048Zm11.668,3.02a6.116,6.116,0,0,1-.1,1.183H187.28a3.4,3.4,0,0,0,1.136,2.66,3.884,3.884,0,0,0,2.56.82,8.658,8.658,0,0,0,3.167-.554l.409,1.809a9.793,9.793,0,0,1-3.937.725,5.708,5.708,0,0,1-4.29-1.605,5.934,5.934,0,0,1-1.558-4.311,6.723,6.723,0,0,1,1.451-4.419,5,5,0,0,1,4.105-1.883,4.376,4.376,0,0,1,3.844,1.883,6.335,6.335,0,0,1,1.035,3.692Zm-2.488-.677a3.53,3.53,0,0,0-.507-2.005,2.278,2.278,0,0,0-2.078-1.089,2.474,2.474,0,0,0-2.077,1.063,3.9,3.9,0,0,0-.772,2.028l5.433,0ZM101.045,23.564a16.663,16.663,0,0,1-1.876-.1V15.6a14.206,14.206,0,0,1,2.209-.166c2.992,0,4.37,1.472,4.37,3.871C105.747,22.069,104.12,23.564,101.045,23.564Zm.438-7.124a5.235,5.235,0,0,0-1.033.083v5.983a6.773,6.773,0,0,0,.866.035c1.96,0,3.076-1.116,3.076-3.205A2.611,2.611,0,0,0,101.483,16.44Zm8.558,7.184a2.746,2.746,0,0,1-2.779-2.968,2.81,2.81,0,0,1,2.874-3.051,2.725,2.725,0,0,1,2.779,2.957A2.827,2.827,0,0,1,110.041,23.624Zm.049-5.082c-.926,0-1.52.866-1.52,2.077,0,1.188.606,2.054,1.508,2.054s1.508-.926,1.508-2.078c0-1.174-.593-2.053-1.5-2.053Zm12.441-.818-1.8,5.769H119.55l-.748-2.505a18.994,18.994,0,0,1-.464-1.863h-.024a12.486,12.486,0,0,1-.463,1.863l-.8,2.505h-1.188l-1.7-5.769h1.318l.653,2.743q.231.98.392,1.852h.024c.094-.486.248-1.092.475-1.84l.82-2.754H118.9l.784,2.7c.19.653.344,1.294.464,1.9h.034a16.606,16.606,0,0,1,.392-1.9l.7-2.7h1.259Zm6.645,5.769h-1.282V20.18c0-1.02-.392-1.532-1.164-1.532a1.332,1.332,0,0,0-1.282,1.413v3.431h-1.282v-4.12c0-.51-.012-1.057-.048-1.65h1.128l.06.891h.035A2.073,2.073,0,0,1,127.17,17.6c1.211,0,2.007.926,2.007,2.433v3.455Zm3.536,0h-1.284V15.076h1.284Zm4.676.131a2.747,2.747,0,0,1-2.779-2.968,2.81,2.81,0,0,1,2.873-3.051,2.724,2.724,0,0,1,2.779,2.957A2.826,2.826,0,0,1,137.388,23.624Zm.048-5.082c-.926,0-1.52.866-1.52,2.077,0,1.188.607,2.054,1.506,2.054s1.508-.926,1.508-2.078C138.931,19.42,138.339,18.542,137.436,18.542Zm7.882,4.951-.093-.664h-.034a1.97,1.97,0,0,1-1.687.8,1.678,1.678,0,0,1-1.768-1.7c0-1.424,1.235-2.16,3.372-2.16v-.106c0-.76-.4-1.14-1.2-1.14a2.7,2.7,0,0,0-1.508.428l-.261-.843a3.689,3.689,0,0,1,1.981-.5c1.508,0,2.269.8,2.269,2.387v2.125a8.715,8.715,0,0,0,.083,1.377Zm-.176-2.874c-1.424,0-2.139.345-2.139,1.163a.818.818,0,0,0,.88.9,1.228,1.228,0,0,0,1.259-1.174Zm7.477,2.874-.06-.926h-.036a1.935,1.935,0,0,1-1.853,1.057c-1.391,0-2.422-1.223-2.422-2.945,0-1.8,1.068-3.076,2.527-3.076a1.734,1.734,0,0,1,1.628.784h.026V15.076h1.284v6.862c0,.558.013,1.08.048,1.555h-1.142Zm-.19-3.395a1.4,1.4,0,0,0-1.351-1.5c-.951,0-1.532.843-1.532,2.03,0,1.163.6,1.96,1.506,1.96a1.44,1.44,0,0,0,1.377-1.532V20.1Zm9.422,3.526a2.746,2.746,0,0,1-2.778-2.968,2.81,2.81,0,0,1,2.873-3.051,2.724,2.724,0,0,1,2.779,2.957,2.826,2.826,0,0,1-2.874,3.062Zm.048-5.082c-.925,0-1.519.866-1.519,2.077,0,1.188.606,2.054,1.506,2.054s1.508-.926,1.508-2.078C163.4,19.42,162.8,18.542,161.9,18.542Zm9.723,4.951h-1.284V20.18c0-1.02-.392-1.532-1.164-1.532a1.331,1.331,0,0,0-1.281,1.413v3.431h-1.284v-4.12c0-.51-.012-1.057-.048-1.65h1.128l.06.891h.035a2.072,2.072,0,0,1,1.828-1.009c1.211,0,2.008.926,2.008,2.433Zm8.628-4.808h-1.411v2.8c0,.713.247,1.069.746,1.069a2.527,2.527,0,0,0,.569-.06l.036.974a2.841,2.841,0,0,1-.995.143c-1.011,0-1.615-.558-1.615-2.019V18.685h-.842v-.962h.842V16.666l1.259-.38v1.436h1.411v.963Zm6.789,4.808h-1.281V20.2c0-1.033-.39-1.555-1.164-1.555a1.258,1.258,0,0,0-1.284,1.365v3.478h-1.281V15.076h1.281v3.466h.026a1.946,1.946,0,0,1,1.735-.938c1.221,0,1.968.949,1.968,2.458Zm6.955-2.576h-3.848a1.656,1.656,0,0,0,1.818,1.709,4.335,4.335,0,0,0,1.555-.273l.2.891a4.818,4.818,0,0,1-1.936.356,2.679,2.679,0,0,1-2.873-2.908,2.818,2.818,0,0,1,2.729-3.1c1.475,0,2.4,1.092,2.4,2.743a2.47,2.47,0,0,1-.044.581ZM192.818,20c0-.891-.449-1.519-1.269-1.519a1.521,1.521,0,0,0-1.4,1.519h2.671Z" transform="translate(-45.721 -7.059)" fill="#fff"/>
      </g>
    </g>
  </g>
</svg>
