<svg xmlns="http://www.w3.org/2000/svg" xmlns:xlink="http://www.w3.org/1999/xlink" width="198.764" height="155.427" viewBox="0 0 198.764 155.427">
  <defs>
    <linearGradient id="linear-gradient" x1="0.072" y1="1.941" x2="0.355" y2="1.038" gradientUnits="objectBoundingBox">
      <stop offset="0" stop-color="#ff3c4a"/>
      <stop offset="1" stop-color="#ff9400"/>
    </linearGradient>
    <linearGradient id="linear-gradient-2" x1="-4.163" y1="-8.451" x2="-4.009" y2="-10.116" gradientUnits="objectBoundingBox">
      <stop offset="0" stop-color="#055a7f"/>
      <stop offset="1" stop-color="#089ab2"/>
    </linearGradient>
    <linearGradient id="linear-gradient-3" x1="-0.15" y1="-4.87" x2="-0.837" y2="-5.879" xlink:href="#linear-gradient-2"/>
    <linearGradient id="linear-gradient-4" x1="-0.929" y1="-6.803" x2="-0.319" y2="-6.221" xlink:href="#linear-gradient-2"/>
    <radialGradient id="radial-gradient" cx="0.5" cy="0.5" r="0.812" gradientTransform="translate(0.116 1.63) scale(0.616 0.616)" gradientUnits="objectBoundingBox">
      <stop offset="0" stop-color="#055a7f"/>
      <stop offset="1" stop-color="#fff"/>
    </radialGradient>
    <linearGradient id="linear-gradient-5" x1="0.534" y1="1.007" x2="0.421" y2="0.287" gradientUnits="objectBoundingBox">
      <stop offset="0.14" stop-color="#09b1b5"/>
      <stop offset="1" stop-color="#00d6e4"/>
    </linearGradient>
    <linearGradient id="linear-gradient-6" x1="1.238" y1="0.302" x2="-0.05" y2="1.447" gradientUnits="objectBoundingBox">
      <stop offset="0" stop-color="#73f5cf"/>
      <stop offset="1" stop-color="#00d6e4"/>
    </linearGradient>
    <linearGradient id="linear-gradient-7" x1="0.975" y1="0.732" x2="0.273" y2="0.055" xlink:href="#linear-gradient-2"/>
    <linearGradient id="linear-gradient-8" x1="0.5" y1="2.161" x2="0.5" y2="0.243" xlink:href="#linear-gradient-6"/>
    <linearGradient id="linear-gradient-10" x1="-0.122" y1="0.5" x2="0.965" y2="0.5" xlink:href="#linear-gradient-2"/>
    <linearGradient id="linear-gradient-11" x1="1.014" y1="0.5" x2="-0.008" y2="0.5" xlink:href="#linear-gradient-2"/>
    <linearGradient id="linear-gradient-12" x1="0" y1="0.5" x2="1" y2="0.5" xlink:href="#linear-gradient-6"/>
    <linearGradient id="linear-gradient-13" x1="-2.409" y1="-12.016" x2="-3.081" y2="-12.689" xlink:href="#linear-gradient-2"/>
    <linearGradient id="linear-gradient-14" x1="-2.786" y1="-12.342" x2="-2.296" y2="-12.342" xlink:href="#linear-gradient-2"/>
    <linearGradient id="linear-gradient-15" x1="-5.715" y1="14.487" x2="-6.387" y2="13.815" xlink:href="#linear-gradient-2"/>
    <linearGradient id="linear-gradient-16" x1="-6.093" y1="14.167" x2="-5.603" y2="14.167" xlink:href="#linear-gradient-2"/>
    <linearGradient id="linear-gradient-17" x1="1.21" y1="0.902" x2="0.093" y2="0.209" xlink:href="#linear-gradient-2"/>
    <linearGradient id="linear-gradient-18" x1="0.851" y1="0.914" x2="0.208" y2="0.254" xlink:href="#linear-gradient"/>
    <linearGradient id="linear-gradient-19" x1="0.083" y1="-3.95" x2="-0.567" y2="-4.596" xlink:href="#linear-gradient"/>
    <linearGradient id="linear-gradient-20" x1="-0.153" y1="4.869" x2="-0.814" y2="4.225" xlink:href="#linear-gradient"/>
  </defs>
  <g id="Group_177208" data-name="Group 177208" transform="translate(-627.647 -91.106)" opacity="0.78">
    <g id="Group_177204" data-name="Group 177204" transform="translate(627.647 91.106)">
      <g id="Group_177203" data-name="Group 177203">
        <g id="Group_177184" data-name="Group 177184" transform="translate(0 6.137)">
          <path id="Path_39197" data-name="Path 39197" d="M681.22,242.335a11.572,11.572,0,0,0-3.4.509c0-.1.007-.206.007-.309a11.584,11.584,0,0,0-19.8-8.163,11.582,11.582,0,0,0-19.056,8.851c0,.271.013.538.031.8a11.582,11.582,0,1,0,1.79,23.056,11.582,11.582,0,0,0,18.066,3.348,11.584,11.584,0,0,0,20.757-5.042,11.584,11.584,0,1,0,1.611-23.055Z" transform="translate(-627.647 -168.329)" fill="#fff"/>
          <path id="Path_39198" data-name="Path 39198" d="M952.953,301.575a11.58,11.58,0,0,0-3.4.509c0-.1.008-.206.008-.309a11.584,11.584,0,0,0-19.8-8.163,11.582,11.582,0,0,0-19.056,8.85c0,.271.013.539.031.8a11.583,11.583,0,1,0,1.79,23.057,11.582,11.582,0,0,0,18.065,3.348,11.584,11.584,0,0,0,20.757-5.042,11.584,11.584,0,1,0,1.612-23.055Z" transform="translate(-765.773 -198.441)" fill="#fff"/>
          <path id="Path_39199" data-name="Path 39199" d="M805.162,113.588a10.175,10.175,0,0,0-2.989.447c0-.09.007-.18.007-.272a10.175,10.175,0,0,0-17.4-7.17,10.174,10.174,0,0,0-16.738,7.774c0,.238.011.473.028.707a10.174,10.174,0,1,0,1.572,20.253,10.173,10.173,0,0,0,15.869,2.941,10.175,10.175,0,0,0,18.233-4.429,10.175,10.175,0,1,0,1.416-20.252Z" transform="translate(-693.96 -103.588)" fill="#fff"/>
        </g>
        <g id="Group_177190" data-name="Group 177190" transform="translate(113.456)">
          <g id="Group_177185" data-name="Group 177185" transform="translate(28.372)">
            <path id="Path_39200" data-name="Path 39200" d="M923.989,148.571s-11.174-33.6-6.927-35.055,9.687,4.277,9.687,4.277-5.5-12.83-2.789-15.42,5.656,2.544,5.656,2.544-1.167-16.4,8.139-13.457c7.557,2.391,0,17.872,0,17.872s4.875-8.124,8.86-3.387-11.8,20.187-11.8,20.187,7.771-7.3,11.787-2.667S923.989,148.571,923.989,148.571Z" transform="translate(-916.099 -91.106)" fill="url(#linear-gradient)"/>
            <path id="Path_39201" data-name="Path 39201" d="M944.187,138.175c-2.118.624-9.916,7.523-12.78,10.1,1.985-6.7,3.863-14.077,5.346-20.482,3.022-2.25,8.273-6.071,9.156-6.385l-.149-.418c-1,.356-6.648,4.5-8.853,6.137,1.872-8.147,3.074-14.581,2.991-15.754a.436.436,0,0,0-.123-.317l-.285.34a.144.144,0,0,1-.044-.058c.22.7-1.081,7.529-3.118,16.219l-.019.015c-.6-1.957-4.371-9.259-4.923-9.417l-.076.266-.123.118c.475.494,4.751,8.255,4.76,9.416l0,.439.221-.165c-1.536,6.5-3.465,13.965-5.471,20.654-.422-3.236-4.831-16.546-5.253-16.789l-.14.243-.139.091c.44.671,5.3,15.3,5.118,16.939l-.067.589.217-.2c-2.483,8.172-5.061,15.048-7.135,17.358l.33.3c2.26-2.516,4.974-9.8,7.532-18.316,2.209-2,11-9.863,13.15-10.5Z" transform="translate(-919.759 -101.247)" fill="#ba1125"/>
          </g>
          <g id="Group_177186" data-name="Group 177186" transform="translate(26.303 48.555)">
            <path id="Path_39202" data-name="Path 39202" d="M927.513,210.4s29.659,9.863,30.944,6.115-3.775-8.551-3.775-8.551,11.325,4.857,13.612,2.462-2.246-4.993-2.246-4.993,14.479,1.03,11.88-7.185c-2.111-6.67-15.777,0-15.777,0s7.171-4.3,2.99-7.821-17.819,10.419-17.819,10.419,6.44-6.86,2.354-10.405S927.513,210.4,927.513,210.4Z" transform="translate(-919.832 -189.858)" fill="url(#linear-gradient-2)"/>
            <path id="Path_39203" data-name="Path 39203" d="M937.7,200.373c-.551,1.869-6.641,8.753-8.918,11.282,5.912-1.752,12.427-3.41,18.08-4.72a96.939,96.939,0,0,0,5.637-8.082l.369.132c-.315.885-3.975,5.869-5.417,7.815,7.192-1.653,12.871-2.714,13.907-2.64a.382.382,0,0,1,.28.108l-.3.252a.133.133,0,0,0,.052.039c-.615-.194-6.647.954-14.317,2.752l-.013.017c1.727.533,8.173,3.859,8.313,4.346l-.234.067-.1.109c-.436-.42-7.287-4.194-8.312-4.2l-.387,0,.146-.195c-5.741,1.356-12.327,3.059-18.232,4.829,2.857.373,14.606,4.264,14.82,4.637l-.214.123-.081.123c-.592-.388-13.5-4.682-14.953-4.518l-.52.059.175-.191c-7.213,2.192-13.283,4.467-15.322,6.3l-.262-.292c2.221-1.995,8.647-4.39,16.169-6.649,1.764-1.951,8.706-9.707,9.265-11.608Z" transform="translate(-911.892 -194.43)" fill="#055159"/>
          </g>
          <g id="Group_177189" data-name="Group 177189" transform="translate(0 91)">
            <g id="Group_177187" data-name="Group 177187" transform="translate(5.669 22.711)">
              <path id="Path_39204" data-name="Path 39204" d="M870.13,357.222s-1.354-9.088,2.909-14.521a54.222,54.222,0,0,1,6.313-7.158l5.57,5.216-2.521-9.182s10.289-5.566,14.63-6.2l3.812,4.895.041-7.2s19.036-3.061,26.3,3.677c0,0-6.9,13.89-9.314,16.523,0,0-4.82-1.843-5.675-3.113,0,0,1.658,4.252,3.213,5.477,0,0-12.136,10.856-18.164,11.65l-5.565-4.046,2.225,5.59S877.835,361.551,870.13,357.222Z" transform="translate(-869.926 -322.375)" fill="url(#linear-gradient-3)"/>
              <path id="Path_39205" data-name="Path 39205" d="M894.119,363.344l-2.225-5.59,5.565,4.046c6.028-.793,18.164-11.649,18.164-11.649-1.555-1.225-3.213-5.477-3.213-5.477.856,1.271,5.675,3.113,5.675,3.113,2.412-2.632,9.313-16.523,9.313-16.523s-29.014,6.26-57.058,30.477C878.046,366.069,894.119,363.344,894.119,363.344Z" transform="translate(-870.137 -326.894)" fill="url(#linear-gradient-4)"/>
            </g>
            <ellipse id="Ellipse_825" data-name="Ellipse 825" cx="23.646" cy="14.557" rx="23.646" ry="14.557" transform="translate(0 24.382) rotate(-13.384)" fill="url(#radial-gradient)" style="mix-blend-mode: multiply;isolation: isolate"/>
            <g id="Group_177188" data-name="Group 177188" transform="translate(10.343)">
              <path id="Path_39206" data-name="Path 39206" d="M880.3,314.049s-2.424-8.219.811-13.787a50.576,50.576,0,0,1,4.906-7.426l5.818,4.1-3.515-8.155s8.783-6.47,12.711-7.618l4.153,4.028-.891-6.654s17.185-5.286,24.769,0c0,0-4.58,13.719-6.468,16.463,0,0-4.689-1.08-5.643-2.143,0,0,2.08,3.714,3.674,4.644,0,0-9.807,11.594-15.271,13.105l-5.662-3.018,2.776,4.875S887.979,317.052,880.3,314.049Z" transform="translate(-879.431 -276.184)" fill="url(#linear-gradient-5)"/>
              <path id="Path_39207" data-name="Path 39207" d="M903.373,314.887l-2.777-4.875,5.662,3.018c5.465-1.511,15.271-13.105,15.271-13.105-1.594-.931-3.674-4.644-3.674-4.644.954,1.064,5.643,2.143,5.643,2.143,1.888-2.744,6.468-16.463,6.468-16.463s-25.989,9.528-48.761,35.517C888.881,319.48,903.373,314.887,903.373,314.887Z" transform="translate(-880.333 -278.612)" fill="url(#linear-gradient-6)"/>
            </g>
          </g>
        </g>
        <g id="Group_177199" data-name="Group 177199" transform="translate(14.286 4.498)">
          <g id="Group_177193" data-name="Group 177193" transform="translate(0 19.08)">
            <path id="Path_39208" data-name="Path 39208" d="M708.474,184.662H704.16a21.572,21.572,0,0,1-43.145,0H656.7a25.925,25.925,0,0,0,17.818,24.594,9.338,9.338,0,0,1,6.506,8.839v20.3h4.313V217.705a9.292,9.292,0,0,1,6.115-8.724A25.928,25.928,0,0,0,708.474,184.662Z" transform="translate(-656.702 -162.24)" fill="url(#linear-gradient-7)"/>
            <g id="Group_177192" data-name="Group 177192" transform="translate(0.591 0)">
              <path id="Path_39209" data-name="Path 39209" d="M750.44,166.887h-2.4V151.95a3.021,3.021,0,0,0-3.017-3.016h-3.878v-2.4h3.878a5.419,5.419,0,0,1,5.413,5.412Z" transform="translate(-700.219 -142.861)" fill="url(#linear-gradient-8)"/>
              <path id="Path_39210" data-name="Path 39210" d="M660.15,165.3h-2.245V151.308a5.078,5.078,0,0,1,5.072-5.072h3.634v2.246h-3.634a2.829,2.829,0,0,0-2.827,2.826Z" transform="translate(-657.905 -142.708)" fill="url(#linear-gradient-8)"/>
              <g id="Group_177191" data-name="Group 177191" transform="translate(8.702)">
                <path id="Rectangle_162935" data-name="Rectangle 162935" d="M1.955,0h0a2.1,2.1,0,0,1,2.1,2.1V7.988a2.1,2.1,0,0,1-2.1,2.1h0A1.955,1.955,0,0,1,0,8.138V1.955A1.955,1.955,0,0,1,1.955,0Z" transform="translate(32.317 10.092) rotate(180)" fill="url(#linear-gradient-10)"/>
                <path id="Rectangle_162936" data-name="Rectangle 162936" d="M1.954,0h0a2.1,2.1,0,0,1,2.1,2.1V7.988a2.1,2.1,0,0,1-2.1,2.1h0A1.955,1.955,0,0,1,0,8.138V1.954A1.954,1.954,0,0,1,1.954,0Z" transform="translate(0 0)" fill="url(#linear-gradient-11)"/>
              </g>
            </g>
          </g>
          <g id="Group_177194" data-name="Group 177194" transform="translate(30.359 16.202)">
            <path id="Path_39211" data-name="Path 39211" d="M752.55,252v5.945h44.715s-.449-26.324,5.1-29.264c27.544-14.6,42.866-77.816-8.582-93.1C758.3,125.03,733.661,152.2,728.847,167.942a28.409,28.409,0,0,0-1.682,8.261v7.6l0-.007,0,.007v5.171a9.059,9.059,0,0,1-1.585,5.119c-1.922,2.807-4.667,6.895-6.563,9.727a3.37,3.37,0,0,0,1.347,4.914l3.782,1.81-.884,3.4a3.235,3.235,0,0,0,.985,3.234l1.557,1.38s-1.52,2.073,1.175,5.667-1.962,15.526,5.364,15.871S751.582,238.864,752.55,252Z" transform="translate(-718.446 -133.206)" fill="url(#linear-gradient-12)"/>
            <path id="Path_39212" data-name="Path 39212" d="M843.521,180.27a10.733,10.733,0,0,0-6.84-12.784A16.368,16.368,0,0,0,813.4,153.124a7.19,7.19,0,0,0-11.625-.36,17.414,17.414,0,0,0-6.51-1.237c-7.11,0-13.042,4.117-14.41,9.59-7.858,2.31-13.477,8.446-13.477,15.653,0,8.773,8.324,15.954,18.877,16.585a19.135,19.135,0,0,0,10.781,12.617,10.742,10.742,0,0,1,6.49,9.809c0,6.086,0,13.32,0,13.32a4.519,4.519,0,0,0,4.52,4.52h4.773v-3.914a6.189,6.189,0,0,1,6.285-6.151h.068a15.643,15.643,0,0,0,15.63-15.025,17.815,17.815,0,0,0,8.729-28.26Z" transform="translate(-743.317 -141.733)" fill="#fff"/>
          </g>
          <g id="Group_177198" data-name="Group 177198" transform="translate(25.282)">
            <g id="Group_177195" data-name="Group 177195" transform="translate(74.364 42.557)">
              <path id="Path_39213" data-name="Path 39213" d="M871.429,198.873c-4.5,4.5-12.062,4.219-12.062,4.219s-.277-7.566,4.219-12.062,12.062-4.219,12.062-4.219S875.925,194.377,871.429,198.873Z" transform="translate(-859.364 -186.807)" fill="url(#linear-gradient-13)"/>
              <path id="Path_39214" data-name="Path 39214" d="M871.433,198.876c4.5-4.5,4.219-12.062,4.219-12.062L859.371,203.1S866.937,203.371,871.433,198.876Z" transform="translate(-859.368 -186.811)" fill="url(#linear-gradient-14)"/>
            </g>
            <g id="Group_177196" data-name="Group 177196" transform="translate(57.632 44.178)">
              <path id="Path_39215" data-name="Path 39215" d="M837.4,194.326c4.5,4.5,4.219,12.062,4.219,12.062s-7.566.277-12.062-4.219-4.219-12.062-4.219-12.062S832.9,189.83,837.4,194.326Z" transform="translate(-825.333 -190.103)" fill="url(#linear-gradient-15)"/>
              <path id="Path_39216" data-name="Path 39216" d="M837.4,194.326c-4.5-4.5-12.061-4.219-12.061-4.219l16.281,16.281S841.9,198.821,837.4,194.326Z" transform="translate(-825.337 -190.103)" fill="url(#linear-gradient-16)"/>
            </g>
            <path id="Path_39217" data-name="Path 39217" d="M768.209,249.6H724.1a16,16,0,0,1-15.981-15.98V210.1h2.4v23.521A13.6,13.6,0,0,0,724.1,247.208h44.107a12.4,12.4,0,0,0,12.38-12.381V129.007h2.4v105.82A14.794,14.794,0,0,1,768.209,249.6Z" transform="translate(-708.121 -114.87)" fill="url(#linear-gradient-17)"/>
            <g id="Group_177197" data-name="Group 177197" transform="translate(58.884)">
              <path id="Path_39218" data-name="Path 39218" d="M857.715,111.134a6.394,6.394,0,0,0-8.057-4.105c-.072.024-.144.05-.214.076.01-.151.018-.3.018-.457a6.393,6.393,0,1,0-12.787,0c0,.077,0,.152.005.228-.14-.057-.282-.111-.429-.158a6.394,6.394,0,0,0-3.951,12.161c.072.024.145.044.218.065-.1.116-.193.235-.283.359a6.393,6.393,0,1,0,10.345,7.516c.045-.061.087-.124.129-.187.08.128.164.256.254.38a6.394,6.394,0,1,0,10.345-7.516c-.045-.062-.091-.121-.138-.181.147-.036.294-.076.44-.124A6.394,6.394,0,0,0,857.715,111.134Z" transform="translate(-827.88 -100.254)" fill="url(#linear-gradient-18)"/>
              <circle id="Ellipse_826" data-name="Ellipse 826" cx="3.607" cy="3.607" r="3.607" transform="translate(9.974 14.696) rotate(-45)" fill="#fff"/>
            </g>
          </g>
        </g>
        <g id="Group_177202" data-name="Group 177202" transform="translate(66.415 48.753)">
          <g id="Group_177200" data-name="Group 177200" transform="translate(76.762)">
            <path id="Path_39219" data-name="Path 39219" d="M942.929,203.565a5.168,5.168,0,0,0-4.594-5.684c-.061-.006-.122-.01-.183-.015.058-.108.113-.218.164-.331a5.168,5.168,0,0,0-9.438-4.212c-.025.056-.048.113-.071.17-.085-.088-.172-.175-.264-.258a5.168,5.168,0,1,0-6.922,7.675c.046.041.093.081.14.12-.11.054-.219.11-.327.172a5.168,5.168,0,0,0,5.16,8.956c.054-.031.105-.063.157-.1.017.121.036.242.062.364a5.168,5.168,0,1,0,10.111-2.14c-.013-.06-.027-.119-.042-.179.12.022.242.04.365.054A5.168,5.168,0,0,0,942.929,203.565Z" transform="translate(-918.843 -190.26)" fill="url(#linear-gradient-19)"/>
            <circle id="Ellipse_827" data-name="Ellipse 827" cx="2.915" cy="2.915" r="2.915" transform="translate(8.181 9.556) rotate(-20.578)" fill="#fff"/>
          </g>
          <g id="Group_177201" data-name="Group 177201" transform="translate(0 44.498)">
            <path id="Path_39220" data-name="Path 39220" d="M782.843,285.048a4.581,4.581,0,0,0-6.409-.949c-.044.032-.086.066-.128.1-.028-.105-.057-.21-.092-.314a4.581,4.581,0,1,0-8.685,2.919c.018.052.037.1.056.153-.108-.007-.217-.011-.327-.01a4.581,4.581,0,1,0,.092,9.162c.055,0,.109,0,.163-.006-.04.1-.077.2-.11.309a4.581,4.581,0,1,0,8.742,2.743c.016-.052.031-.1.045-.156.084.069.17.136.259.2a4.581,4.581,0,1,0,5.311-7.466c-.045-.031-.09-.061-.135-.091.091-.059.182-.119.27-.185A4.581,4.581,0,0,0,782.843,285.048Z" transform="translate(-762.723 -280.762)" fill="url(#linear-gradient-20)"/>
            <path id="Path_39221" data-name="Path 39221" d="M784.805,298.108a2.584,2.584,0,1,1-3.273-1.627A2.584,2.584,0,0,1,784.805,298.108Z" transform="translate(-771.388 -288.684)" fill="#fff"/>
          </g>
        </g>
      </g>
    </g>
    <g id="Group_177205" data-name="Group 177205" transform="translate(633.106 94.282)">
      <path id="Path_39222" data-name="Path 39222" d="M678.726,348.5a2.223,2.223,0,1,1-2.223-2.223A2.223,2.223,0,0,1,678.726,348.5Z" transform="translate(-656.809 -223.99)" fill="#9ad8d6"/>
      <path id="Path_39223" data-name="Path 39223" d="M711.694,191.748a1.588,1.588,0,1,1-1.589-1.588A1.588,1.588,0,0,1,711.694,191.748Z" transform="translate(-674.213 -144.633)" fill="#9ad8d6"/>
      <path id="Path_39224" data-name="Path 39224" d="M904.8,100.742a3.176,3.176,0,1,1-3.176-3.176A3.176,3.176,0,0,1,904.8,100.742Z" transform="translate(-770.755 -97.566)" fill="#9ad8d6"/>
      <path id="Path_39225" data-name="Path 39225" d="M1009.47,262.9a2.541,2.541,0,1,1-2.541-2.541A2.541,2.541,0,0,1,1009.47,262.9Z" transform="translate(-824.609 -180.316)" fill="#9ad8d6"/>
      <circle id="Ellipse_828" data-name="Ellipse 828" cx="3.388" cy="3.388" r="3.388" transform="translate(155.004 77.926)" fill="#9ad8d6"/>
      <path id="Path_39226" data-name="Path 39226" d="M1004.718,398.124a2.965,2.965,0,1,1-2.964-2.965A2.964,2.964,0,0,1,1004.718,398.124Z" transform="translate(-821.763 -248.837)" fill="#9ad8d6"/>
      <path id="Path_39227" data-name="Path 39227" d="M746.271,115.474a1.112,1.112,0,1,1-1.112-1.112A1.112,1.112,0,0,1,746.271,115.474Z" transform="translate(-692.274 -106.104)" fill="#9ad8d6"/>
      <path id="Path_39228" data-name="Path 39228" d="M642.878,226.894a2.065,2.065,0,1,1-2.065-2.065A2.065,2.065,0,0,1,642.878,226.894Z" transform="translate(-638.749 -162.256)" fill="#9ad8d6"/>
    </g>
  </g>
</svg>
