<svg xmlns="http://www.w3.org/2000/svg" width="1086.78" height="301.776" viewBox="0 0 1086.78 301.776">
  <g id="Group_177386" data-name="Group 177386" transform="translate(-369.698 466.247)">
    <path id="Path_41356" data-name="Path 41356" d="M986.488-466.247a150.807,150.807,0,0,0-130.155,74.53c-.224.381-.454.757-.675,1.139-36.577,63.487-1.446,99.008-48.974,150.592a110.98,110.98,0,0,1-81.856,35.9,110.974,110.974,0,0,1-81.854-35.9H594.093a150.82,150.82,0,0,0,130.735,75.514,150.823,150.823,0,0,0,130.737-75.514c.031-.052.064-.1.093-.157,36.481-63.31,1.383-100.175,49.889-151.574a110.96,110.96,0,0,1,80.941-34.923,110.958,110.958,0,0,1,80.941,34.923h49.215A150.81,150.81,0,0,0,986.488-466.247Z" transform="translate(57.771 0)" fill="#0070b5"/>
    <path id="Path_41357" data-name="Path 41357" d="M1324.394-391.717a150.809,150.809,0,0,0-130.155-74.53,150.806,150.806,0,0,0-130.156,74.53c-37.434,63.466-2.053,100.138-49.589,151.732a110.974,110.974,0,0,1-81.854,35.9,110.975,110.975,0,0,1-81.855-35.9h-48.28c-.1.172-.2.339-.3.512a150.822,150.822,0,0,0,130.435,75,150.828,150.828,0,0,0,130.737-75.514c.02-.034.042-.068.062-.106,36.628-63.505,1.314-100.192,49.858-151.626a110.956,110.956,0,0,1,80.942-34.923,110.956,110.956,0,0,1,80.941,34.923,111.24,111.24,0,0,1,.913,151.732,110.975,110.975,0,0,1-81.854,35.9,110.972,110.972,0,0,1-81.855-35.9H1063.5a150.82,150.82,0,0,0,130.737,75.514,150.822,150.822,0,0,0,130.735-75.514A150.989,150.989,0,0,0,1324.394-391.717Z" transform="translate(111.349 0)" fill="#0a2b53"/>
    <path id="Path_41358" data-name="Path 41358" d="M782.6-466.247a150.805,150.805,0,0,0-130.154,74.53c-37.4,63.622-1.987,99.62-50,151.732a110.98,110.98,0,0,1-81.856,35.9,110.972,110.972,0,0,1-81.854-35.9,111.242,111.242,0,0,1,.913-151.732,110.959,110.959,0,0,1,80.941-34.923,110.956,110.956,0,0,1,80.942,34.923h49.215a150.813,150.813,0,0,0-130.158-74.53,150.809,150.809,0,0,0-130.155,74.53,151.008,151.008,0,0,0-.58,151.732,150.82,150.82,0,0,0,130.735,75.514,150.823,150.823,0,0,0,130.737-75.514c.091-.155.181-.309.27-.467,36.151-63.083,1.193-99.479,50.064-151.265A110.96,110.96,0,0,1,782.6-426.64a110.961,110.961,0,0,1,80.943,34.923h49.214A150.812,150.812,0,0,0,782.6-466.247Z" transform="translate(0 0)" fill="#f59033"/>
  </g>
</svg>
