<svg xmlns="http://www.w3.org/2000/svg" width="78.24" height="82.315" viewBox="0 0 78.24 82.315">
  <g id="Group_177406" data-name="Group 177406" transform="translate(-363.879 -1071.276)">
    <g id="Group_177398" data-name="Group 177398" transform="translate(363.879 1071.275)">
      <path id="instilling-good-behavior-in-down-syndrome-children-800x533" d="M34.475,73.732C7.062,63.715,0,58.3,0,39.257S36.92,0,55.96,0s16.3,22.745,16.3,41.785S61.888,83.749,34.475,73.732Z" transform="translate(2.922 3.074)" fill="#e4e4e4"/>
      <g id="instilling-good-behavior-in-down-syndrome-children-800x533-2" data-name="instilling-good-behavior-in-down-syndrome-children-800x533" transform="translate(0 0)" fill="none" opacity="0.67">
        <path d="M37.258,79.684C7.632,68.859,0,63,0,42.426S39.9,0,60.477,0,78.092,24.581,78.092,45.158,66.883,90.51,37.258,79.684Z" stroke="none"/>
        <path d="M 50.64822387695312 81.31453704833984 C 55.1426887512207 81.31453704833984 59.20283889770508 80.22115325927734 62.71591186523438 78.06472778320312 C 65.90775299072266 76.10549926757812 68.660888671875 73.26891326904297 70.89882659912109 69.63376617431641 C 72.95108795166016 66.30022430419922 74.53264617919922 62.37040328979492 75.59958648681641 57.95341491699219 C 76.57606506347656 53.91101455688477 77.09218597412109 49.48647689819336 77.09218597412109 45.15815353393555 C 77.09218597412109 42.86045455932617 77.12962341308594 40.47266387939453 77.16584014892578 38.16351699829102 C 77.37249755859375 24.98255348205566 77.58621215820312 11.35284042358398 71.25450897216797 4.921077728271484 C 68.65707397460938 2.282602787017822 65.13179779052734 1.00000274181366 60.47723770141602 1.00000274181366 C 55.57061386108398 1.00000274181366 49.41752624511719 2.271552801132202 42.68316268920898 4.677177906036377 C 35.97573852539062 7.073177814483643 29.190673828125 10.41413974761963 23.0615119934082 14.33886528015137 C 16.55821228027344 18.50316429138184 11.11781215667725 23.14106559753418 7.328449726104736 27.75116539001465 C 5.296212196350098 30.22357749938965 3.728787183761597 32.69562911987305 2.669724702835083 35.09862899780273 C 1.561774611473083 37.61256408691406 0.9999995827674866 40.07790374755859 0.9999995827674866 42.42617797851562 C 0.9999995827674866 47.71176528930664 1.510362148284912 51.73772811889648 2.606124639511108 55.09611511230469 C 3.74421215057373 58.5842170715332 5.525524616241455 61.41052627563477 8.212037086486816 63.99070358276367 C 10.86307430267334 66.53678894042969 14.41118717193604 68.85659027099609 19.37818717956543 71.29123687744141 C 23.78397369384766 73.4508056640625 29.40413665771484 75.74958038330078 37.60111236572266 78.74484252929688 C 42.26744842529297 80.44996643066406 46.65712356567383 81.31453704833984 50.64822387695312 81.31453704833984 M 50.64823150634766 82.31454467773438 C 46.68037796020508 82.31454467773438 42.2286491394043 81.50046539306641 37.25790023803711 79.68410491943359 C 7.632299423217773 68.85857391357422 -3.906250185536919e-07 63.00315093994141 -3.906250185536919e-07 42.42617797851562 C -3.906250185536919e-07 21.84920310974121 39.90027618408203 2.703857489905204e-06 60.47723770141602 2.703857489905204e-06 C 81.05419921875 2.703857489905204e-06 78.09218597412109 24.5811767578125 78.09218597412109 45.15815353393555 C 78.09218597412109 62.28261566162109 70.32872009277344 82.31454467773438 50.64823150634766 82.31454467773438 Z" stroke="none" fill="#f58737"/>
      </g>
    </g>
    <g id="partner-3134730" transform="translate(375.999 1081.322)">
      <rect id="Rectangle_163079" data-name="Rectangle 163079" width="28.849" height="13.665" transform="translate(11.064 35.753) rotate(-45)" fill="#ffd5c5"/>
      <path id="Path_41366" data-name="Path 41366" d="M21.057,25.76l-3,3,3.25,3.249,1.916,1.916a4,4,0,0,1-.042,5.7L18.368,44.3l1.787,1.55,7.637-7.494,3-3.142Z" fill="#f4a490"/>
      <path id="Path_41367" data-name="Path 41367" d="M24.968,11.14a2.148,2.148,0,0,0-.142,3.167L23.415,12.9a2.251,2.251,0,0,0-3-.238,2.147,2.147,0,0,0-.141,3.167l1.518,1.518a2.148,2.148,0,0,0-3.167.142,2.251,2.251,0,0,0,.238,3L20.271,21.9a2.148,2.148,0,0,0-3.167.142,2.251,2.251,0,0,0,.238,3l2.169,2.169,3.8,3.8,5.612,5.611a6.762,6.762,0,0,0,4.49,1.974c1.745.074,3.717.16,3.724.168l7.2,7.2a.034.034,0,0,0,.049,0L53.444,36.9a.034.034,0,0,0,0-.049l-17.99-17.99L31.233,14.64,27.97,11.378a2.252,2.252,0,0,0-3-.238Z" fill="#ffd5c5"/>
      <path id="Path_41368" data-name="Path 41368" d="M24.968,11.14a2.148,2.148,0,0,0-.142,3.167L23.415,12.9a2.251,2.251,0,0,0-3-.238,2.147,2.147,0,0,0-.141,3.167l1.518,1.518a2.148,2.148,0,0,0-3.167.142,2.251,2.251,0,0,0,.238,3L20.271,21.9a2.148,2.148,0,0,0-3.167.142,2.251,2.251,0,0,0,.238,3l2.169,2.169,3.8,3.8,5.612,5.611a6.762,6.762,0,0,0,4.49,1.974c1.745.074,3.717.16,3.724.168l7.2,7.2a.034.034,0,0,0,.049,0L53.444,36.9a.034.034,0,0,0,0-.049l-17.99-17.99L31.233,14.64,27.97,11.378a2.252,2.252,0,0,0-3-.238Z" fill="#ffd5c5"/>
      <path id="Path_41369" data-name="Path 41369" d="M44.883,43.462a.034.034,0,0,1-.049,0l-6.656-6.656a2,2,0,0,0-1.321-.584c-.736-.033-1.884-.083-2.948-.128a6.762,6.762,0,0,1-4.49-1.974l-5.612-5.611-5.966-5.965a2.443,2.443,0,0,1-.5-.734,2.175,2.175,0,0,0-.24.231,2.252,2.252,0,0,0,.237,3L23.3,31.006l5.612,5.611a6.762,6.762,0,0,0,4.49,1.974c1.744.074,3.717.16,3.724.168l7.2,7.2a.034.034,0,0,0,.049,0L53.444,36.9a.034.034,0,0,0,0-.049l-.975-.975Z" fill="#f4a490"/>
      <rect id="Rectangle_163080" data-name="Rectangle 163080" width="12.976" height="4.295" rx="2" transform="translate(31.573 21.026) rotate(-45)" fill="#ffd5c5"/>
      <path id="Path_41370" data-name="Path 41370" d="M42.285,13.386l-6.262,6.262a2,2,0,0,1-2.828,0l-.123-.123-.085.086a2,2,0,0,0,0,2.829l.208.208a2,2,0,0,0,2.828,0L42.371,16.3a2,2,0,0,0,0-2.829Z" fill="#f4a490"/>
      <rect id="Rectangle_163081" data-name="Rectangle 163081" width="15.031" height="4.295" rx="2" transform="translate(33.154 25.518) rotate(-45)" fill="#ffd5c5"/>
      <path id="Path_41371" data-name="Path 41371" d="M45.319,16.425,37.6,24.14a2,2,0,0,1-2.828,0l-.123-.123-.086.086a2,2,0,0,0,0,2.829l.209.208a2,2,0,0,0,2.828,0l7.8-7.8a2,2,0,0,0,0-2.829Z" fill="#f4a490"/>
      <rect id="Rectangle_163082" data-name="Rectangle 163082" width="12.976" height="4.295" rx="2" transform="translate(37.661 27.086) rotate(-45)" fill="#ffd5c5"/>
      <path id="Path_41372" data-name="Path 41372" d="M48.373,19.446l-6.262,6.262a2,2,0,0,1-2.828,0l-.123-.123-.086.086a2,2,0,0,0,0,2.829l.209.208a2,2,0,0,0,2.828,0l6.347-6.347a2,2,0,0,0,0-2.829Z" fill="#f4a490"/>
      <rect id="Rectangle_163083" data-name="Rectangle 163083" width="10.849" height="4.295" rx="2" transform="translate(41.201 29.617) rotate(-45)" fill="#ffd5c5"/>
      <path id="Path_41373" data-name="Path 41373" d="M50.409,23.483,45.652,28.24a2,2,0,0,1-2.828,0l-.123-.122-.085.085a2,2,0,0,0,0,2.829l.208.208a2,2,0,0,0,2.828,0L50.5,26.4a2,2,0,0,0,0-2.828Z" fill="#f4a490"/>
      <path id="Path_41374" data-name="Path 41374" d="M31.233,14.641l2.185,2.185h2.489a2.278,2.278,0,1,0,0-4.556H28.863Z" fill="#ffd5c5"/>
      <path id="Path_41375" data-name="Path 41375" d="M36.159,12.3a2.1,2.1,0,0,1,.026.253,2.278,2.278,0,0,1-2.278,2.277H31.418l2,2h2.489a2.272,2.272,0,0,0,.252-4.53Z" fill="#f4a490"/>
      <path id="Path_41380" data-name="Path 41380" d="M0,0H18.252V9.517H0Z" transform="translate(41.365 46.751) rotate(-45)" fill="#81cceb"/>
      <path id="Path_41376" data-name="Path 41376" d="M44.364,43.75h0l-3,3,6.73,6.73L61,40.574l-2-2L53.823,43.75a6.689,6.689,0,0,1-9.459,0Z" fill="#009cdd"/>
      <rect id="Rectangle_163085" data-name="Rectangle 163085" width="9.517" height="18.252" transform="translate(3 40.574) rotate(-45)" fill="#81cceb"/>
      <path id="Path_41377" data-name="Path 41377" d="M12.729,36.844h0l-3-3L3,40.574,15.906,53.48l3-3L12.729,44.3a5.276,5.276,0,0,1,0-7.456Z" fill="#009cdd"/>
      <path id="Path_41378" data-name="Path 41378" d="M24.733,24.953h0a1.032,1.032,0,0,0,.011-1.447l-5.973-6.164h-.016a2.229,2.229,0,0,0,.1,3.146L20.271,21.9a2.069,2.069,0,0,0-.261-.21l3.264,3.264a1.031,1.031,0,0,0,1.459,0ZM20.115,12.968a2.145,2.145,0,0,0,.156,2.858l1.518,1.518c-.142-.142,4.557,4.681,4.557,4.681a1.018,1.018,0,0,0,1.406.031h0A1.016,1.016,0,0,0,27.8,20.6l-7.291-7.52Zm4.711,1.339,4.462,4.578a1.026,1.026,0,0,0,1.431.019h0a1.026,1.026,0,0,0,.031-1.458L24.8,11.31a2.139,2.139,0,0,0,.026,3Z" fill="#f4a490"/>
      <path id="Path_41379" data-name="Path 41379" d="M52.4,43.732a.993.993,0,0,0,.707-.293l5.38-5.38-1.414-1.414-5.38,5.38a1,1,0,0,0,.707,1.707ZM6.928,36.645,5.514,38.059l5.38,5.38a1,1,0,1,0,1.414-1.414Zm6.82,7.161a1.074,1.074,0,1,0,1.073,1.073A1.074,1.074,0,0,0,13.748,43.806Zm36.5,0a1.072,1.072,0,1,0,.76.314,1.074,1.074,0,0,0-.76-.314Z" fill="#f7fcff"/>
    </g>
  </g>
</svg>
