<svg xmlns="http://www.w3.org/2000/svg" width="78.24" height="82.315" viewBox="0 0 78.24 82.315">
  <g id="Group_177405" data-name="Group 177405" transform="translate(-1234 -1071.276)">
    <g id="Group_177396" data-name="Group 177396" transform="translate(1234 1071.275)">
      <path id="instilling-good-behavior-in-down-syndrome-children-800x533" d="M34.475,73.732C7.062,63.715,0,58.3,0,39.257S36.92,0,55.96,0s16.3,22.745,16.3,41.785S61.888,83.749,34.475,73.732Z" transform="translate(2.922 3.074)" fill="#e4e4e4"/>
      <g id="instilling-good-behavior-in-down-syndrome-children-800x533-2" data-name="instilling-good-behavior-in-down-syndrome-children-800x533" transform="translate(0 0)" fill="none" opacity="0.67">
        <path d="M37.258,79.684C7.632,68.859,0,63,0,42.426S39.9,0,60.477,0,78.092,24.581,78.092,45.158,66.883,90.51,37.258,79.684Z" stroke="none"/>
        <path d="M 50.64822387695312 81.31453704833984 C 55.1426887512207 81.31453704833984 59.20283889770508 80.22115325927734 62.71591186523438 78.06472778320312 C 65.90775299072266 76.10549926757812 68.660888671875 73.26891326904297 70.89882659912109 69.63376617431641 C 72.95108795166016 66.30022430419922 74.53264617919922 62.37040328979492 75.59958648681641 57.95341491699219 C 76.57606506347656 53.91101455688477 77.09218597412109 49.48647689819336 77.09218597412109 45.15815353393555 C 77.09218597412109 42.86045455932617 77.12962341308594 40.47266387939453 77.16584014892578 38.16351699829102 C 77.37249755859375 24.98255348205566 77.58621215820312 11.35284042358398 71.25450897216797 4.921077728271484 C 68.65707397460938 2.282602787017822 65.13179779052734 1.00000274181366 60.47723770141602 1.00000274181366 C 55.57061386108398 1.00000274181366 49.41752624511719 2.271552801132202 42.68316268920898 4.677177906036377 C 35.97573852539062 7.073177814483643 29.190673828125 10.41413974761963 23.0615119934082 14.33886528015137 C 16.55821228027344 18.50316429138184 11.11781215667725 23.14106559753418 7.328449726104736 27.75116539001465 C 5.296212196350098 30.22357749938965 3.728787183761597 32.69562911987305 2.669724702835083 35.09862899780273 C 1.561774611473083 37.61256408691406 0.9999995827674866 40.07790374755859 0.9999995827674866 42.42617797851562 C 0.9999995827674866 47.71176528930664 1.510362148284912 51.73772811889648 2.606124639511108 55.09611511230469 C 3.74421215057373 58.5842170715332 5.525524616241455 61.41052627563477 8.212037086486816 63.99070358276367 C 10.86307430267334 66.53678894042969 14.41118717193604 68.85659027099609 19.37818717956543 71.29123687744141 C 23.78397369384766 73.4508056640625 29.40413665771484 75.74958038330078 37.60111236572266 78.74484252929688 C 42.26744842529297 80.44996643066406 46.65712356567383 81.31453704833984 50.64822387695312 81.31453704833984 M 50.64823150634766 82.31454467773438 C 46.68037796020508 82.31454467773438 42.2286491394043 81.50046539306641 37.25790023803711 79.68410491943359 C 7.632299423217773 68.85857391357422 -3.906250185536919e-07 63.00315093994141 -3.906250185536919e-07 42.42617797851562 C -3.906250185536919e-07 21.84920310974121 39.90027618408203 2.703857489905204e-06 60.47723770141602 2.703857489905204e-06 C 81.05419921875 2.703857489905204e-06 78.09218597412109 24.5811767578125 78.09218597412109 45.15815353393555 C 78.09218597412109 62.28261566162109 70.32872009277344 82.31454467773438 50.64823150634766 82.31454467773438 Z" stroke="none" fill="#f58737"/>
      </g>
    </g>
    <path id="clock" d="M20,0A20,20,0,1,0,40,20,20.022,20.022,0,0,0,20,0Zm9.512,30.345a1.665,1.665,0,0,1-2.357,0l-8.333-8.333a1.659,1.659,0,0,1-.488-1.178V10a1.667,1.667,0,0,1,3.333,0V20.143l7.845,7.845A1.665,1.665,0,0,1,29.512,30.345Zm0,0" transform="translate(1258 1096)" fill="#009cdd"/>
  </g>
</svg>
