<svg xmlns="http://www.w3.org/2000/svg" width="78.24" height="82.315" viewBox="0 0 78.24 82.315">
  <g id="Group_177405" data-name="Group 177405" transform="translate(-804.45 -1071.276)">
    <g id="Group_177397" data-name="Group 177397" transform="translate(804.45 1071.275)">
      <path id="instilling-good-behavior-in-down-syndrome-children-800x533" d="M34.475,73.732C7.062,63.715,0,58.3,0,39.257S36.92,0,55.96,0s16.3,22.745,16.3,41.785S61.888,83.749,34.475,73.732Z" transform="translate(2.922 3.074)" fill="#e4e4e4"/>
      <g id="instilling-good-behavior-in-down-syndrome-children-800x533-2" data-name="instilling-good-behavior-in-down-syndrome-children-800x533" transform="translate(0 0)" fill="none" opacity="0.67">
        <path d="M37.258,79.684C7.632,68.859,0,63,0,42.426S39.9,0,60.477,0,78.092,24.581,78.092,45.158,66.883,90.51,37.258,79.684Z" stroke="none"/>
        <path d="M 50.64822387695312 81.31453704833984 C 55.1426887512207 81.31453704833984 59.20283889770508 80.22115325927734 62.71591186523438 78.06472778320312 C 65.90775299072266 76.10549926757812 68.660888671875 73.26891326904297 70.89882659912109 69.63376617431641 C 72.95108795166016 66.30022430419922 74.53264617919922 62.37040328979492 75.59958648681641 57.95341491699219 C 76.57606506347656 53.91101455688477 77.09218597412109 49.48647689819336 77.09218597412109 45.15815353393555 C 77.09218597412109 42.86045455932617 77.12962341308594 40.47266387939453 77.16584014892578 38.16351699829102 C 77.37249755859375 24.98255348205566 77.58621215820312 11.35284042358398 71.25450897216797 4.921077728271484 C 68.65707397460938 2.282602787017822 65.13179779052734 1.00000274181366 60.47723770141602 1.00000274181366 C 55.57061386108398 1.00000274181366 49.41752624511719 2.271552801132202 42.68316268920898 4.677177906036377 C 35.97573852539062 7.073177814483643 29.190673828125 10.41413974761963 23.0615119934082 14.33886528015137 C 16.55821228027344 18.50316429138184 11.11781215667725 23.14106559753418 7.328449726104736 27.75116539001465 C 5.296212196350098 30.22357749938965 3.728787183761597 32.69562911987305 2.669724702835083 35.09862899780273 C 1.561774611473083 37.61256408691406 0.9999995827674866 40.07790374755859 0.9999995827674866 42.42617797851562 C 0.9999995827674866 47.71176528930664 1.510362148284912 51.73772811889648 2.606124639511108 55.09611511230469 C 3.74421215057373 58.5842170715332 5.525524616241455 61.41052627563477 8.212037086486816 63.99070358276367 C 10.86307430267334 66.53678894042969 14.41118717193604 68.85659027099609 19.37818717956543 71.29123687744141 C 23.78397369384766 73.4508056640625 29.40413665771484 75.74958038330078 37.60111236572266 78.74484252929688 C 42.26744842529297 80.44996643066406 46.65712356567383 81.31453704833984 50.64822387695312 81.31453704833984 M 50.64823150634766 82.31454467773438 C 46.68037796020508 82.31454467773438 42.2286491394043 81.50046539306641 37.25790023803711 79.68410491943359 C 7.632299423217773 68.85857391357422 -3.906250185536919e-07 63.00315093994141 -3.906250185536919e-07 42.42617797851562 C -3.906250185536919e-07 21.84920310974121 39.90027618408203 2.703857489905204e-06 60.47723770141602 2.703857489905204e-06 C 81.05419921875 2.703857489905204e-06 78.09218597412109 24.5811767578125 78.09218597412109 45.15815353393555 C 78.09218597412109 62.28261566162109 70.32872009277344 82.31454467773438 50.64823150634766 82.31454467773438 Z" stroke="none" fill="#f58737"/>
      </g>
    </g>
    <g id="stretcher-medical-assistance-svgrepo-com" transform="translate(812.317 1018.206)">
      <path id="Path_41359" data-name="Path 41359" d="M112.51,90.406H63.456a1.641,1.641,0,0,1-1.641-1.641V82.283A6.5,6.5,0,0,1,68.3,75.794h2.535a1.641,1.641,0,0,1,0,3.281H68.3A3.211,3.211,0,0,0,65.1,82.283v4.842H110.87V82.283a3.211,3.211,0,0,0-3.208-3.208H79.1a1.641,1.641,0,0,1,0-3.281h28.566a6.5,6.5,0,0,1,6.489,6.489v6.482A1.641,1.641,0,0,1,112.51,90.406Z" transform="translate(-54.268)" fill="#009cdd"/>
      <rect id="Rectangle_163078" data-name="Rectangle 163078" width="54.304" height="9.689" transform="translate(6.562 85.97)" fill="#cee8fa"/>
      <g id="Group_177394" data-name="Group 177394" transform="translate(4.922 84.33)">
        <path id="Path_41360" data-name="Path 41360" d="M96.26,158.687h-54.3a1.641,1.641,0,0,1-1.641-1.641v-9.69a1.641,1.641,0,0,1,1.641-1.641h54.3a1.641,1.641,0,0,1,1.641,1.641v9.69A1.64,1.64,0,0,1,96.26,158.687ZM43.6,155.406H94.619V149H43.6Z" transform="translate(-40.315 -145.716)" fill="#009cdd"/>
        <path id="Path_41361" data-name="Path 41361" d="M166.392,218.962a1.641,1.641,0,0,1-1.16-2.8l22.444-22.444a1.641,1.641,0,1,1,2.32,2.32l-22.444,22.444A1.636,1.636,0,0,1,166.392,218.962Z" transform="translate(-149.559 -187.435)" fill="#009cdd"/>
        <path id="Path_41362" data-name="Path 41362" d="M188.835,218.962a1.635,1.635,0,0,1-1.16-.481l-22.444-22.444a1.641,1.641,0,0,1,2.32-2.32L190,216.162a1.641,1.641,0,0,1-1.16,2.8Z" transform="translate(-149.558 -187.435)" fill="#009cdd"/>
      </g>
      <circle id="Ellipse_863" data-name="Ellipse 863" cx="3.937" cy="3.937" r="3.937" transform="translate(17.817 110.279)" fill="#cee8fa"/>
      <path id="Path_41363" data-name="Path 41363" d="M138.077,355.983a5.578,5.578,0,1,1,5.578-5.578A5.584,5.584,0,0,1,138.077,355.983Zm0-7.875a2.3,2.3,0,1,0,2.3,2.3A2.3,2.3,0,0,0,138.077,348.108Z" transform="translate(-116.323 -236.188)" fill="#009cdd"/>
      <circle id="Ellipse_864" data-name="Ellipse 864" cx="3.937" cy="3.937" r="3.937" transform="translate(40.261 110.279)" fill="#cee8fa"/>
      <g id="Group_177395" data-name="Group 177395" transform="translate(0 84.33)">
        <path id="Path_41364" data-name="Path 41364" d="M321.918,355.983a5.578,5.578,0,1,1,5.578-5.578A5.584,5.584,0,0,1,321.918,355.983Zm0-7.875a2.3,2.3,0,1,0,2.3,2.3A2.3,2.3,0,0,0,321.918,348.108Z" transform="translate(-277.72 -320.519)" fill="#009cdd"/>
        <path id="Path_41365" data-name="Path 41365" d="M9.187,149H1.641a1.641,1.641,0,1,1,0-3.281H9.187a1.641,1.641,0,1,1,0,3.281Z" transform="translate(0 -145.716)" fill="#009cdd"/>
      </g>
    </g>
  </g>
</svg>
