<svg id="Ebene_1" data-name="Ebene 1" xmlns="http://www.w3.org/2000/svg" width="25" height="25" viewBox="0 0 25 25">
  <path id="Path_12054" data-name="Path 12054" d="M25,12.5A12.5,12.5,0,1,0,10.547,24.848V16.113H7.373V12.5h3.174V9.746c0-3.133,1.866-4.863,4.721-4.863a19.222,19.222,0,0,1,2.8.244V8.2H16.49a1.807,1.807,0,0,0-2.037,1.952V12.5H17.92l-.554,3.613H14.453v8.735A12.5,12.5,0,0,0,25,12.5Z" fill="#1877f2"/>
  <path id="Path_12055" data-name="Path 12055" d="M311.993,211.23l.554-3.613H309.08v-2.345a1.807,1.807,0,0,1,2.037-1.952h1.576v-3.076a19.222,19.222,0,0,0-2.8-.244c-2.855,0-4.721,1.73-4.721,4.863v2.754H302v3.613h3.174v8.735a12.631,12.631,0,0,0,3.906,0V211.23Z" transform="translate(-294.627 -195.117)" fill="#fff"/>
</svg>
