<svg xmlns="http://www.w3.org/2000/svg" viewBox="0 0 1440 320">
  <defs>
    <linearGradient id="gradient" x1="0%" y1="0%" x2="100%" y2="0%">
      <stop offset="0%" stop-color="#263F91" />
      <stop offset="100%" stop-color="#009CDD" />
    </linearGradient>
  </defs>
  <path fill="url(#gradient)" fill-opacity="1" d="M0,32L26.7,69.3C53.3,107,107,181,160,181.3C213.3,181,267,107,320,74.7C373.3,43,427,53,480,80C533.3,107,587,149,640,138.7C693.3,128,747,64,800,42.7C853.3,21,907,43,960,64C1013.3,85,1067,107,1120,138.7C1173.3,171,1227,213,1280,208C1333.3,203,1387,149,1413,122.7L1440,96L1440,320L1413.3,320C1386.7,320,1333,320,1280,320C1226.7,320,1173,320,1120,320C1066.7,320,1013,320,960,320C906.7,320,853,320,800,320C746.7,320,693,320,640,320C586.7,320,533,320,480,320C426.7,320,373,320,320,320C266.7,320,213,320,160,320C106.7,320,53,320,27,320L0,320Z"></path>
</svg>
