<svg xmlns="http://www.w3.org/2000/svg" width="135" height="75.857" viewBox="0 0 135 75.857">
  <g id="Group_177361" data-name="Group 177361" transform="translate(-1013 -2929)">
    <text id="بنين" transform="translate(1110.5 2982.857)" fill="#009cdd" font-size="18" font-family="Somar-SemiBold, Somar" font-weight="600"><tspan x="-21.528" y="16">بنين</tspan></text>
    <text id="بنات" transform="translate(1026 2982.857)" fill="#ba466d" font-size="18" font-family="Somar-SemiBold, Somar" font-weight="600"><tspan x="-20.904" y="16">بنات</tspan></text>
    <g id="Group_177360" data-name="Group 177360">
      <g id="Ellipse_856" data-name="Ellipse 856" transform="translate(1013 2929)" fill="#fff" stroke="#ba466d" stroke-width="1">
        <circle cx="25" cy="25" r="25" stroke="none"/>
        <circle cx="25" cy="25" r="24.5" fill="none"/>
      </g>
      <g id="female" transform="translate(928.219 2935)">
        <g id="Group_177357" data-name="Group 177357" transform="translate(98.33 0.547)">
          <path id="Path_41297" data-name="Path 41297" d="M127.332,360.621H105.291v-5.876a5.474,5.474,0,0,1,5.474-5.474h11.093a5.474,5.474,0,0,1,5.474,5.474v5.876Z" transform="translate(-105.291 -324.279)" fill="#82aee3"/>
          <path id="Path_41298" data-name="Path 41298" d="M127.42,122.653H108.285l-1.273,9.432a4.909,4.909,0,0,0,4.865,5.566h11.951a4.909,4.909,0,0,0,4.865-5.566Z" transform="translate(-106.845 -114.232)" fill="#9e5528"/>
          <path id="Path_41299" data-name="Path 41299" d="M205.77,281.6v5.873h7.346V281.6Z" transform="translate(-198.423 -261.552)" fill="#ffcebf"/>
          <path id="Path_41300" data-name="Path 41300" d="M205.769,283.794a8.363,8.363,0,0,0,7.346,0v-2.2h-7.346Z" transform="translate(-198.422 -261.552)" fill="#ffb09e"/>
          <path id="Path_41301" data-name="Path 41301" d="M125.957,47.767l-.087,0a8.348,8.348,0,0,0-16.523,0l-.087,0a2.57,2.57,0,0,0,0,5.14l.087,0a8.348,8.348,0,0,0,16.522,0l.087,0v-5.14Z" transform="translate(-106.589 -38.2)" fill="#ffcebf"/>
          <path id="Path_41302" data-name="Path 41302" d="M124.992,15.544v1.851h7.025a2.554,2.554,0,0,0,2.554-2.554V8.611a1.1,1.1,0,0,0-1.095-1.095h-.457A8.028,8.028,0,0,0,124.992,15.544Z" transform="translate(-123.551 -7.514)" fill="#ac5e2e"/>
          <path id="Path_41303" data-name="Path 41303" d="M295.14,349.27h-2.9a5.474,5.474,0,0,1,5.474,5.474v5.876h2.9v-5.876A5.474,5.474,0,0,0,295.14,349.27Z" transform="translate(-278.573 -324.278)" fill="#528fd8"/>
          <path id="Path_41304" data-name="Path 41304" d="M164.849,326.388l3.673,2.6-2.7,2.563a.438.438,0,0,1-.591.011l-3.46-3.056a.438.438,0,0,1,.1-.725Z" transform="translate(-157.502 -303.069)" fill="#d3e1f5"/>
          <path id="Path_41305" data-name="Path 41305" d="M259.673,326.388l-3.673,2.6,2.7,2.563a.438.438,0,0,0,.591.011l3.46-3.056a.438.438,0,0,0-.1-.725Z" transform="translate(-244.98 -303.069)" fill="#d3e1f5"/>
          <path id="Path_41306" data-name="Path 41306" d="M197.012,361.915l-4.494,4.265a.511.511,0,0,0,.028.766L194,368.134a.511.511,0,0,0,.8-.219Z" transform="translate(-185.992 -335.998)" fill="#0055a3"/>
          <path id="Path_41307" data-name="Path 41307" d="M287.935,327.778l-2.976-1.39-.823.582,1.73.808a.438.438,0,0,1,.1.725l-2.69,2.375.707.67a.438.438,0,0,0,.591.011l3.461-3.056A.438.438,0,0,0,287.935,327.778Z" transform="translate(-270.266 -303.069)" fill="#c0d6f2"/>
          <path id="Path_41308" data-name="Path 41308" d="M256,361.915l4.494,4.265a.511.511,0,0,1-.028.766l-1.454,1.188a.511.511,0,0,1-.8-.219Z" transform="translate(-244.98 -335.998)" fill="#0055a3"/>
          <path id="Path_41309" data-name="Path 41309" d="M336.443,132.085l-1.273-9.432h-2.9l1.273,9.432a4.905,4.905,0,0,1-2.245,4.808.409.409,0,0,0,.214.758c.157,0,.271,0,.43-.014A4.91,4.91,0,0,0,336.443,132.085Z" transform="translate(-314.595 -114.232)" fill="#c86d36"/>
          <path id="Path_41310" data-name="Path 41310" d="M256,8.61v6.23a2.554,2.554,0,0,0,2.554,2.554h7.025V15.543a8.028,8.028,0,0,0-8.028-8.028h-.457A1.1,1.1,0,0,0,256,8.61Z" transform="translate(-244.98 -7.513)" fill="#ac5e2e"/>
          <path id="Path_41311" data-name="Path 41311" d="M263.868,7.487a1.666,1.666,0,0,0-1.053.177,8.029,8.029,0,0,1,6.353,7.851v1.851H271.9V15.515A8.028,8.028,0,0,0,263.868,7.487Z" transform="translate(-251.296 -7.485)" fill="#9e5528"/>
        </g>
        <g id="Group_177358" data-name="Group 177358" transform="translate(97.781 0)">
          <path id="Path_41312" data-name="Path 41312" d="M230.722,232.378a1.912,1.912,0,0,0,1.994-1.814.548.548,0,0,0-1.1,0,.92.92,0,0,1-1.795,0,.548.548,0,0,0-1.1,0A1.912,1.912,0,0,0,230.722,232.378Z" transform="translate(-219.153 -213.197)"/>
          <path id="Path_41313" data-name="Path 41313" d="M300.778,172.148a.548.548,0,0,0,.548-.548v-1.057h.4a.548.548,0,0,0,0-1.1h-.949a.548.548,0,0,0-.548.548V171.6A.548.548,0,0,0,300.778,172.148Z" transform="translate(-285.426 -157.055)"/>
          <path id="Path_41314" data-name="Path 41314" d="M184.342,170.542h.4V171.6a.548.548,0,0,0,1.1,0v-1.606a.548.548,0,0,0-.548-.548h-.949a.548.548,0,0,0,0,1.1Z" transform="translate(-177.505 -157.055)"/>
          <path id="Path_41315" data-name="Path 41315" d="M117.14,25.426a.547.547,0,0,0-.3-.383l-1.156-.54a5.471,5.471,0,0,0,3.873-2.009,5.4,5.4,0,0,0,1.169-4.167l-1.244-9.215V8.577a8.551,8.551,0,0,0-.52-2.948.548.548,0,1,0-1.03.377,7.459,7.459,0,0,1,.453,2.571v1.3H111.9A2.008,2.008,0,0,1,109.9,7.873V1.643a.547.547,0,0,1,.546-.546h.457a7.446,7.446,0,0,1,5.866,2.839.548.548,0,1,0,.86-.681A8.536,8.536,0,0,0,110.9,0h-.457a1.637,1.637,0,0,0-1.095.419A1.637,1.637,0,0,0,108.256,0H107.8a8.587,8.587,0,0,0-8.577,8.577v1.548A3.113,3.113,0,0,0,98.47,14.5l-.516,3.826a5.456,5.456,0,0,0,5.066,6.176l-1.155.54a.548.548,0,0,0-.3.383,6.043,6.043,0,0,0-3.78,5.588v1.819a.548.548,0,1,0,1.1,0V31.014a4.942,4.942,0,0,1,3.317-4.655l3.351,2.96-1.068,1.013a1.059,1.059,0,0,0,.059,1.589l1.454,1.188a1.059,1.059,0,0,0,1.664-.454l1.7-4.6,1.7,4.6a1.06,1.06,0,0,0,1.665.454l1.454-1.188a1.06,1.06,0,0,0,.059-1.589l-1.068-1.013,3.351-2.96a4.942,4.942,0,0,1,3.317,4.655v5.328H98.878v-.95a.548.548,0,1,0-1.1,0v.987a1.061,1.061,0,0,0,1.059,1.059h21.02a1.061,1.061,0,0,0,1.059-1.059V31.014a6.043,6.043,0,0,0-3.78-5.588Zm.686-7.1-.6-4.461-.39-2.89h1.79l1.012,7.5a4.318,4.318,0,0,1-.934,3.33,4.373,4.373,0,0,1-2.979,1.6,5.485,5.485,0,0,0,2.1-5.073Zm-17.508-9.75A7.489,7.489,0,0,1,107.8,1.1h.457a.547.547,0,0,1,.546.546v6.23A2.008,2.008,0,0,1,106.8,9.879h-6.477Zm-.4,2.4c7.633,0,8.267.341,9.431-1.343a3.109,3.109,0,0,0,2.555,1.343h3.822l.01.075.81,6c-.025.061-.05.122-.077.182l-.015.035a7.8,7.8,0,0,1-14.6-1.05v0a7.933,7.933,0,0,1-.225-1.042.549.549,0,0,0-.149-.3.578.578,0,0,0-.48-.164,2.021,2.021,0,0,1-1.487-.653l-.024-.027a2.02,2.02,0,0,1,.428-3.05Zm.159,10.951a4.361,4.361,0,0,1-1.038-3.454l.416-3.081a3.17,3.17,0,0,0,1.166.387,8.894,8.894,0,0,0,4.506,6.1v1.536h-1.766a4.361,4.361,0,0,1-3.284-1.491Zm6.565,10.3-1.38-1.128,2.76-2.619Zm-.3-3.666-3.258-2.878,2.5-1.168h.06l2.844,2.011Zm-.119-4.978v-1.2a8.939,8.939,0,0,0,6.25,0v1.2l-3.125,2.21Zm7.211,7.515-1.38,1.128-1.38-3.747Zm-1.081-2.538-2.144-2.034,2.844-2.011h.06l2.5,1.168Zm2.388-5.815a.97.97,0,0,0-.434.64c0,.011,0,.022-.005.033h-.733V21.883a8.93,8.93,0,0,0,3.205-2.932A4.386,4.386,0,0,1,114.745,22.746Z" transform="translate(-97.781 0)"/>
        </g>
      </g>
    </g>
    <g id="Group_177359" data-name="Group 177359">
      <g id="Ellipse_857" data-name="Ellipse 857" transform="translate(1098 2929)" fill="#fff" stroke="#009cdd" stroke-width="1">
        <circle cx="25" cy="25" r="25" stroke="none"/>
        <circle cx="25" cy="25" r="24.5" fill="none"/>
      </g>
      <g id="male" transform="translate(1010.57 2934.998)">
        <g id="Group_177355" data-name="Group 177355" transform="translate(101.047 0.559)">
          <path id="Path_41279" data-name="Path 41279" d="M130.747,366.7H108.724v-7.488a3.583,3.583,0,0,1,3.583-3.583h14.856a3.583,3.583,0,0,1,3.583,3.583V366.7Z" transform="translate(-108.724 -329.739)" fill="#d3e1f5"/>
          <path id="Path_41280" data-name="Path 41280" d="M203.1,266.27v8.147h7.514V266.27Z" transform="translate(-196.079 -247.026)" fill="#ffcebf"/>
          <path id="Path_41281" data-name="Path 41281" d="M227.685,426.843h-2.837l-.779,5.775h4.4Z" transform="translate(-215.491 -395.657)" fill="#0055a3"/>
          <path id="Path_41282" data-name="Path 41282" d="M203.1,270.637a8.061,8.061,0,0,0,7.514,0V266.27H203.1Z" transform="translate(-196.079 -247.026)" fill="#ffb09e"/>
          <path id="Path_41283" data-name="Path 41283" d="M130.6,75.328l-.083,0a8.052,8.052,0,0,0-15.937,0l-.083,0a2.479,2.479,0,1,0,0,4.958l.083,0a8.052,8.052,0,0,0,15.937,0l.083,0a2.479,2.479,0,0,0,0-4.958Z" transform="translate(-111.77 -63.906)" fill="#ffcebf"/>
          <path id="Path_41284" data-name="Path 41284" d="M317.223,57.745h2.262V52.323a4.07,4.07,0,0,0-4.07-4.07h-.162a1.4,1.4,0,0,0-1.4,1.4v4.72a3.371,3.371,0,0,0,3.371,3.371Z" transform="translate(-298.597 -45.222)" fill="#ac5e2e"/>
          <path id="Path_41285" data-name="Path 41285" d="M111.476,7.713l-1.718,2.792a6.974,6.974,0,0,0-.17,7.018,3.09,3.09,0,0,0,2.707,1.6h8.358a3.326,3.326,0,0,0,3.326-3.326V11.733a1.858,1.858,0,0,0-1.858-1.858H116.8a5.886,5.886,0,0,1-4.6-2.208.448.448,0,0,0-.731.045Z" transform="translate(-108.723 -7.5)" fill="#ac5e2e"/>
          <path id="Path_41286" data-name="Path 41286" d="M320.415,48.253h-.162a1.4,1.4,0,0,0-1,.42,4.069,4.069,0,0,1,2.269,3.65v5.349a3.385,3.385,0,0,0,.7.073h2.262V52.323A4.07,4.07,0,0,0,320.415,48.253Z" transform="translate(-303.596 -45.222)" fill="#9e5528"/>
          <path id="Path_41287" data-name="Path 41287" d="M319.8,355.629H316.84a3.583,3.583,0,0,1,3.583,3.583V366.7h2.963v-7.488A3.583,3.583,0,0,0,319.8,355.629Z" transform="translate(-301.363 -329.739)" fill="#c0d6f2"/>
          <path id="Path_41288" data-name="Path 41288" d="M254.255,426.843h-1.481l.779,5.775h1.481Z" transform="translate(-242.061 -395.657)" fill="#004281"/>
          <path id="Path_41289" data-name="Path 41289" d="M215.807,365.614l1.394,4.553h2.837l1.394-4.553Z" transform="translate(-207.843 -338.982)" fill="#004281"/>
          <path id="Path_41290" data-name="Path 41290" d="M170.808,337.135l-3.757-2.288-2.727,1.312a.3.3,0,0,0-.031.521l3.9,2.478a.6.6,0,0,0,.751-.09Z" transform="translate(-160.032 -310.503)" fill="#d3e1f5"/>
          <path id="Path_41291" data-name="Path 41291" d="M253.62,337.135l3.757-2.288,2.727,1.312a.3.3,0,0,1,.031.521l-3.9,2.478a.6.6,0,0,1-.751-.09Z" transform="translate(-242.844 -310.503)" fill="#d3e1f5"/>
          <path id="Path_41292" data-name="Path 41292" d="M277.476,336.159l-2.727-1.312-.934.569,1.545.743a.3.3,0,0,1,.031.521l-3,1.906.464.482a.6.6,0,0,0,.751.09l3.9-2.478A.3.3,0,0,0,277.476,336.159Z" transform="translate(-260.216 -310.503)" fill="#c0d6f2"/>
        </g>
        <g id="Group_177356" data-name="Group 177356" transform="translate(100.43 0.002)">
          <path id="Path_41293" data-name="Path 41293" d="M119.428,25.891h-.695a.853.853,0,0,0-.243-.178l-2.411-1.16V23.228a8.613,8.613,0,0,0,4.127-5.756,3.035,3.035,0,0,0,2.228-4.548V10.511a.558.558,0,1,0-1.116,0v2.014h-1.7A2.816,2.816,0,0,1,116.8,9.712V4.992a.845.845,0,0,1,.844-.844,3.521,3.521,0,0,1,3.674,3.512v.248a.558.558,0,1,0,1.116,0V7.66a4.634,4.634,0,0,0-4.789-4.628,1.949,1.949,0,0,0-1.237.441,2.415,2.415,0,0,0-2.022-1.1h-5.318a5.3,5.3,0,0,1-4.16-2,1.006,1.006,0,0,0-1.642.1l-1.718,2.792a7.544,7.544,0,0,0-.183,7.579,3.643,3.643,0,0,0,.807,1,3.033,3.033,0,0,0,1.15,5.623,8.613,8.613,0,0,0,4.127,5.756v1.325l-2.411,1.16a.853.853,0,0,0-.243.178h-.223a4.146,4.146,0,0,0-4.141,4.141v2.81a.558.558,0,1,0,1.116,0v-2.81a3.033,3.033,0,0,1,3.184-3.026.91.91,0,0,0,.221.2l3.9,2.479.006,0a1.152,1.152,0,0,0,.314.137l.6,1.965-.7,5.171h-7.533V35.445a.558.558,0,1,0-1.116,0V37.52a.558.558,0,0,0,.558.558h22.023a.558.558,0,0,0,.558-.558V30.033a4.146,4.146,0,0,0-4.141-4.141Zm-1.842.625c-.042.027-3.526,2.259-3.561,2.222l-1.377-1.432,2.9-1.769Zm-7.326,3.042c.039-.036,1.467-1.523,1.5-1.562.037.039,1.465,1.526,1.5,1.562l-.5,1.629h-2.012ZM102.5,3.857,104.135,1.2a6.411,6.411,0,0,0,4.932,2.3h5.318a1.3,1.3,0,0,1,1.3,1.3V8.857a2.771,2.771,0,0,1-2.768,2.768h-8.358a2.548,2.548,0,0,1-.873-.157h0a2.531,2.531,0,0,1-1.342-1.153,6.427,6.427,0,0,1,.156-6.457Zm1.85,13a.558.558,0,0,0-.588-.477,1.921,1.921,0,0,1-.329-3.82,3.66,3.66,0,0,0,1.129.18h8.358a3.891,3.891,0,0,0,3.073-1.511l0,.005a3.95,3.95,0,0,0,2.242,2.155c.839.316,1.3.251,3.319.251a1.921,1.921,0,0,1-1.8,2.74.556.556,0,0,0-.57.478,7.495,7.495,0,0,1-14.833,0Zm7.416,7.53a8.659,8.659,0,0,0,3.2-.616v.818l-3.2,1.948-3.2-1.948v-.818A8.666,8.666,0,0,0,111.763,24.388Zm-3.788,1.15,2.9,1.769c-.012.012-1.378,1.437-1.394,1.442s-3.519-2.216-3.544-2.232ZM110.2,36.963l.629-4.66h1.862l.629,4.66Zm12.25,0h-8l-.7-5.171.6-1.965a1.152,1.152,0,0,0,.32-.14l3.905-2.479h0a.908.908,0,0,0,.22-.2h.63a3.029,3.029,0,0,1,3.026,3.026v6.93Z" transform="translate(-100.43 -0.002)"/>
          <path id="Path_41294" data-name="Path 41294" d="M194.663,182.264a.558.558,0,0,0-.558.558v1.819a.558.558,0,1,0,1.116,0v-1.819A.558.558,0,0,0,194.663,182.264Z" transform="translate(-187.139 -168.709)"/>
          <path id="Path_41295" data-name="Path 41295" d="M297.1,185.2a.558.558,0,0,0,.558-.558v-1.819a.558.558,0,1,0-1.116,0v1.819A.558.558,0,0,0,297.1,185.2Z" transform="translate(-281.961 -168.709)"/>
          <path id="Path_41296" data-name="Path 41296" d="M227.477,243.936a1.953,1.953,0,0,0,2.037-1.852.558.558,0,1,0-1.116,0,.944.944,0,0,1-1.842,0,.558.558,0,1,0-1.116,0A1.953,1.953,0,0,0,227.477,243.936Z" transform="translate(-216.143 -223.564)"/>
        </g>
      </g>
    </g>
  </g>
</svg>
