<svg id="search" xmlns="http://www.w3.org/2000/svg" width="25" height="25" viewBox="0 0 25 25">
  <path id="Path_12045" data-name="Path 12045" d="M5.54,146.624l-.87,3.249-3.181.067A12.522,12.522,0,0,1,1.4,138.268h0l2.832.519L5.47,141.6a7.46,7.46,0,0,0,.07,5.023Z" transform="translate(0 -131.517)" fill="#fbbb00"/>
  <path id="Path_12046" data-name="Path 12046" d="M273.635,208.176a12.5,12.5,0,0,1-4.456,12.083h0l-3.567-.182-.5-3.151a7.45,7.45,0,0,0,3.205-3.8h-6.684v-4.945h12.007Z" transform="translate(-248.853 -198.011)" fill="#518ef8"/>
  <path id="Path_12047" data-name="Path 12047" d="M49.344,316.548h0a12.5,12.5,0,0,1-18.836-3.824l4.051-3.316a7.434,7.434,0,0,0,10.713,3.806Z" transform="translate(-29.019 -294.301)" fill="#28b446"/>
  <path id="Path_12048" data-name="Path 12048" d="M47.7,2.878,43.655,6.193A7.433,7.433,0,0,0,32.7,10.085L28.625,6.751h0A12.5,12.5,0,0,1,47.7,2.878Z" transform="translate(-27.226)" fill="#f14336"/>
</svg>
