<svg xmlns="http://www.w3.org/2000/svg" xmlns:xlink="http://www.w3.org/1999/xlink" width="167" height="48" viewBox="0 0 167 48">
  <defs>
    <clipPath id="clip-path">
      <rect id="Rectangle_15" data-name="Rectangle 15" width="167" height="48" rx="5" transform="translate(0)" fill="#7e7e7e"/>
    </clipPath>
    <linearGradient id="linear-gradient" x1="0.908" y1="1.032" x2="-0.383" y2="0.36" gradientUnits="objectBoundingBox">
      <stop offset="0" stop-color="#00a0ff"/>
      <stop offset="0.007" stop-color="#00a1ff"/>
      <stop offset="0.26" stop-color="#00beff"/>
      <stop offset="0.512" stop-color="#00d2ff"/>
      <stop offset="0.76" stop-color="#00dfff"/>
      <stop offset="1" stop-color="#00e3ff"/>
    </linearGradient>
    <linearGradient id="linear-gradient-2" x1="1.077" y1="0.729" x2="-1.307" y2="0.729" gradientUnits="objectBoundingBox">
      <stop offset="0" stop-color="#ffe000"/>
      <stop offset="0.409" stop-color="#ffbd00"/>
      <stop offset="0.775" stop-color="orange"/>
      <stop offset="1" stop-color="#ff9c00"/>
    </linearGradient>
    <linearGradient id="linear-gradient-3" x1="0.864" y1="-0.023" x2="-0.499" y2="-1.789" gradientUnits="objectBoundingBox">
      <stop offset="0" stop-color="#ff3a44"/>
      <stop offset="1" stop-color="#c31162"/>
    </linearGradient>
    <linearGradient id="linear-gradient-4" x1="-0.186" y1="2.701" x2="0.423" y2="1.909" gradientUnits="objectBoundingBox">
      <stop offset="0" stop-color="#32a071"/>
      <stop offset="0.069" stop-color="#2da771"/>
      <stop offset="0.476" stop-color="#15cf74"/>
      <stop offset="0.801" stop-color="#06e775"/>
      <stop offset="1" stop-color="#00f076"/>
    </linearGradient>
  </defs>
  <g id="Mask_Group_2" data-name="Mask Group 2" transform="translate(0)" clip-path="url(#clip-path)">
    <g id="google-168" transform="translate(1.004 0)">
      <path id="Path_34" data-name="Path 34" d="M158.992,48.921H6.115A6.056,6.056,0,0,1,0,42.805V6.115A6.056,6.056,0,0,1,6.115,0H158.992a6.056,6.056,0,0,1,6.115,6.115v36.69A6.056,6.056,0,0,1,158.992,48.921Z"/>
      <path id="Path_35" data-name="Path 35" d="M158.992.978a5.168,5.168,0,0,1,5.137,5.137v36.69a5.168,5.168,0,0,1-5.137,5.137H6.115A5.168,5.168,0,0,1,.978,42.805V6.115A5.168,5.168,0,0,1,6.115.978H158.992m0-.978H6.115A6.133,6.133,0,0,0,0,6.115v36.69a6.056,6.056,0,0,0,6.115,6.115H158.992a6.056,6.056,0,0,0,6.115-6.115V6.115A6.133,6.133,0,0,0,158.992,0Z" fill="#a6a6a6"/>
      <path id="Path_36" data-name="Path 36" d="M127.551,45.078a5.145,5.145,0,0,0-5.259,5.259,5.22,5.22,0,0,0,5.259,5.259,5.145,5.145,0,0,0,5.259-5.259A5.074,5.074,0,0,0,127.551,45.078Zm0,8.316a3.19,3.19,0,0,1,0-6.36,2.963,2.963,0,0,1,2.935,3.18A3.036,3.036,0,0,1,127.551,53.395Zm-11.374-8.316a5.145,5.145,0,0,0-5.259,5.259,5.22,5.22,0,0,0,5.259,5.259,5.145,5.145,0,0,0,5.259-5.259A5.074,5.074,0,0,0,116.177,45.078Zm0,8.316a3.19,3.19,0,0,1,0-6.36,2.963,2.963,0,0,1,2.935,3.18A3.036,3.036,0,0,1,116.177,53.395ZM102.6,46.668v2.2h5.259a4.625,4.625,0,0,1-1.223,2.813,5.413,5.413,0,0,1-4.036,1.59,5.694,5.694,0,0,1-5.748-5.87,5.769,5.769,0,0,1,5.748-5.87,6.064,6.064,0,0,1,4.036,1.59l1.59-1.59a7.837,7.837,0,0,0-5.5-2.2,8.073,8.073,0,1,0,0,16.144,7.038,7.038,0,0,0,5.626-2.324,7.362,7.362,0,0,0,1.957-5.137,4.586,4.586,0,0,0-.122-1.345Zm55.525,1.712a4.752,4.752,0,0,0-4.4-3.3,4.926,4.926,0,0,0-4.892,5.259,5.118,5.118,0,0,0,5.137,5.259,5.017,5.017,0,0,0,4.281-2.324l-1.712-1.223a2.981,2.981,0,0,1-2.568,1.468,2.654,2.654,0,0,1-2.568-1.59l6.971-2.935Zm-7.093,1.712a2.971,2.971,0,0,1,2.691-3.058,2.163,2.163,0,0,1,1.957,1.1l-4.647,1.957Zm-5.748,5.014h2.324V39.819h-2.324Zm-3.669-8.928a4.027,4.027,0,0,0-2.813-1.223,5.255,5.255,0,0,0-5.014,5.259,5.064,5.064,0,0,0,5.014,5.137,3.512,3.512,0,0,0,2.691-1.223h.122v.734c0,1.957-1.1,3.058-2.813,3.058a2.717,2.717,0,0,1-2.568-1.835l-1.957.856A5.046,5.046,0,0,0,138.925,60c2.691,0,4.892-1.59,4.892-5.381V45.323h-2.2Zm-2.691,7.216a3.19,3.19,0,0,1,0-6.36,3.2,3.2,0,0,1,0,6.36Zm29.842-13.575h-5.5V55.107h2.324V49.359h3.18a4.776,4.776,0,1,0,0-9.54Zm.122,7.338h-3.3V41.9h3.3a2.686,2.686,0,0,1,2.691,2.568A2.8,2.8,0,0,1,168.889,47.157Zm14.065-2.2a4.111,4.111,0,0,0-4.036,2.324l2.079.856a2.16,2.16,0,0,1,2.079-1.1,2.3,2.3,0,0,1,2.446,1.957v.122A4.851,4.851,0,0,0,183.2,48.5c-2.2,0-4.4,1.223-4.4,3.424a3.583,3.583,0,0,0,3.791,3.424,3.442,3.442,0,0,0,2.935-1.468h.122v1.223h2.2v-5.87A4.629,4.629,0,0,0,182.954,44.956Zm-.245,8.439c-.734,0-1.835-.367-1.835-1.345,0-1.223,1.345-1.59,2.446-1.59a4.73,4.73,0,0,1,2.079.489A2.848,2.848,0,0,1,182.709,53.395Zm12.842-8.072-2.568,6.6h-.122l-2.691-6.6h-2.446l4.036,9.295-2.324,5.137h2.324L198,45.323ZM175,55.107h2.324V39.819H175Z" transform="translate(-44.264 -18.416)" fill="#fff"/>
      <path id="Path_37" data-name="Path 37" d="M23.489,17.25A2.391,2.391,0,0,0,23,18.962V45.991a2.419,2.419,0,0,0,.612,1.712l.122.122L38.9,32.66v-.245Z" transform="translate(-10.77 -8.077)" fill="url(#linear-gradient)"/>
      <path id="Path_38" data-name="Path 38" d="M57.684,46.736,52.67,41.721v-.367l5.014-5.014.122.122L63.8,39.887c1.712.978,1.712,2.568,0,3.547Z" transform="translate(-24.663 -17.016)" fill="url(#linear-gradient-2)"/>
      <path id="Path_39" data-name="Path 39" d="M44.344,51.137,39.208,46,23.92,61.288c.612.612,1.468.612,2.568.122L44.344,51.137" transform="translate(-11.201 -21.54)" fill="url(#linear-gradient-3)"/>
      <path id="Path_40" data-name="Path 40" d="M44.344,27.047,26.488,16.9a1.982,1.982,0,0,0-2.568.122L39.208,32.184Z" transform="translate(-11.201 -7.723)" fill="url(#linear-gradient-4)"/>
      <path id="Path_41" data-name="Path 41" d="M44.222,55.43,26.488,65.459a2,2,0,0,1-2.446,0l-.122.122.122.122a2,2,0,0,0,2.446,0Z" transform="translate(-11.201 -25.955)" opacity="0.2"/>
      <path id="Path_42" data-name="Path 42" d="M23.489,61.043A2.391,2.391,0,0,1,23,59.331v.122a2.419,2.419,0,0,0,.612,1.712v-.122ZM49.906,47.59l-6.115,3.424.122.122,5.993-3.424A2.033,2.033,0,0,0,51.129,46C51.129,46.612,50.64,47.1,49.906,47.59Z" transform="translate(-10.77 -21.54)" opacity="0.12"/>
      <path id="Path_43" data-name="Path 43" d="M26.058,16.992,49.906,30.568c.734.489,1.223.978,1.223,1.59a2.033,2.033,0,0,0-1.223-1.712L26.058,16.87C24.345,15.892,23,16.625,23,18.582V18.7C23,16.87,24.345,16.014,26.058,16.992Z" transform="translate(-10.77 -7.697)" fill="#fff" opacity="0.25"/>
      <path id="Path_44" data-name="Path 44" d="M100.552,22.352a3.791,3.791,0,0,1-6.482-2.691,3.791,3.791,0,1,1,7.583,0A3.6,3.6,0,0,1,100.552,22.352ZM95.9,21.74a2.886,2.886,0,0,0,1.957.856,2.433,2.433,0,0,0,1.957-.856,2.951,2.951,0,0,0,.856-2.079,2.519,2.519,0,0,0-.856-2.079,2.886,2.886,0,0,0-1.957-.856,2.433,2.433,0,0,0-1.957.856,2.951,2.951,0,0,0-.856,2.079A2.519,2.519,0,0,0,95.9,21.74ZM103,23.33V15.992h1.1l3.547,5.748V15.992h.978V23.33h-.978l-3.669-5.993V23.33Zm9.784,0H111.8V16.848h-2.079v-.856h5.014v.856H112.66V23.33Zm3.3,0V15.992h2.2a3.807,3.807,0,0,1,2.691.978,3.5,3.5,0,0,1,.978,2.691,4.029,4.029,0,0,1-.978,2.691,3.5,3.5,0,0,1-2.691.978Zm.856-.856h1.345a2.582,2.582,0,0,0,1.957-.734,2.877,2.877,0,0,0,.734-2.079,2.877,2.877,0,0,0-.734-2.079,2.777,2.777,0,0,0-1.957-.734H116.94Zm10.64-5.626h-3.3v2.324h3.058v.856h-3.058v2.324h3.3v.978H123.3V15.992h4.281Zm6.971-.856-2.691,3.18L134.8,23.33h-1.1l-2.446-3.424-1.1,1.345V23.33h-.978V15.992h.978v3.791l3.18-3.791ZM138.1,23.33V15.992h.978v3.18h3.669v-3.18h.978V23.33h-.978v-3.3h-3.669v3.3Zm11.619-6.482h-3.3v2.324h3.058v.856h-3.058v2.324h3.3v.978h-4.281V15.992h4.281Zm3.914,6.482h-.978V16.848h-2.079v-.856h5.014v.856h-2.079V23.33Zm11.619-.978a3.791,3.791,0,0,1-6.482-2.691,3.791,3.791,0,1,1,7.583,0A3.6,3.6,0,0,1,165.249,22.352ZM160.6,21.74a2.886,2.886,0,0,0,1.957.856,2.433,2.433,0,0,0,1.957-.856,2.95,2.95,0,0,0,.856-2.079,2.519,2.519,0,0,0-.856-2.079,2.886,2.886,0,0,0-1.957-.856,2.433,2.433,0,0,0-1.957.856,2.951,2.951,0,0,0-.856,2.079A2.519,2.519,0,0,0,160.6,21.74Zm7.95,1.59h-.978V15.992h2.446a2.576,2.576,0,0,1,1.59.612,1.972,1.972,0,0,1,.734,1.59,2.153,2.153,0,0,1-.734,1.59,2.576,2.576,0,0,1-1.59.612h-1.59V23.33Zm0-3.914h1.59a1.389,1.389,0,0,0,.978-.367,1.182,1.182,0,0,0,0-1.712,1.389,1.389,0,0,0-.978-.367h-1.59Z" transform="translate(-44.049 -7.431)" fill="#fff" stroke="#fff" stroke-miterlimit="10" stroke-width="0.46"/>
    </g>
  </g>
</svg>
