<svg xmlns="http://www.w3.org/2000/svg" width="402.36" height="347.438" viewBox="0 0 402.36 347.438">
  <g id="Group_177121" data-name="Group 177121" opacity="0.69">
    <g id="instilling-good-behavior-in-down-syndrome-children-800x533" transform="translate(72.12)" fill="none" opacity="0.4">
      <path d="M157.26,11.1C32.215,56.8,0,81.51,0,168.363S168.413,347.438,255.265,347.438s74.35-103.754,74.35-190.606S282.305-34.59,157.26,11.1Z" stroke="none"/>
      <path d="M 213.7764587402344 0.999969482421875 C 205.3413543701172 0.999969482421875 196.4317016601562 1.894439697265625 187.2950592041016 3.658416748046875 C 177.7998962402344 5.49163818359375 167.8101501464844 8.312286376953125 157.6032562255859 12.04196166992188 C 122.8946533203125 24.72488403320312 99.07655334472656 34.46871948242188 80.37481689453125 43.6356201171875 C 69.83499145507812 48.8018798828125 60.912109375 53.7877197265625 53.09619140625 58.87812805175781 C 45.02841186523438 64.132568359375 38.26864624023438 69.41236877441406 32.43075561523438 75.01922607421875 C 26.52761840820312 80.688720703125 21.68734741210938 86.57608032226562 17.63351440429688 93.01777648925781 C 13.59976196289062 99.42747497558594 10.4283447265625 106.2535247802734 7.93804931640625 113.8858795166016 C 3.20458984375 128.3932800292969 1 145.7037200927734 1 168.3628692626953 C 1 173.6103820800781 1.634918212890625 179.0269775390625 2.887054443359375 184.4623260498047 C 4.1033935546875 189.7423706054688 5.9317626953125 195.1686248779297 8.321197509765625 200.59033203125 C 12.90966796875 211.0015258789062 19.67999267578125 221.6867218017578 28.44415283203125 232.34912109375 C 36.73934936523438 242.4410247802734 46.85601806640625 252.5608215332031 58.51309204101562 262.4274291992188 C 69.62435913085938 271.8320922851562 82.10299682617188 280.9835205078125 95.60235595703125 289.627685546875 C 108.6393585205078 297.9757385253906 122.4905548095703 305.7653198242188 136.7712097167969 312.7801208496094 C 150.8203582763672 319.6811828613281 165.0536499023438 325.7200317382812 179.0757598876953 330.7289733886719 C 193.16650390625 335.7624206542969 206.7890014648438 339.6642761230469 219.5648498535156 342.326171875 C 232.6581115722656 345.0542297363281 244.6694946289062 346.4374694824219 255.2654113769531 346.4374694824219 C 260.5834045410156 346.4374694824219 265.658203125 346.0372314453125 270.3488464355469 345.2479248046875 C 274.9065551757812 344.4809265136719 279.2348022460938 343.3241271972656 283.2134094238281 341.8095703125 C 287.0731201171875 340.3402709960938 290.7185668945312 338.4905395507812 294.0484008789062 336.3116149902344 C 297.2756958007812 334.1998291015625 300.3042907714844 331.7149353027344 303.0498962402344 328.9259338378906 C 306.3948364257812 325.5281372070312 309.4379577636719 321.5581665039062 312.0946655273438 317.1263122558594 C 314.6315612792969 312.8943176269531 316.8997192382812 308.1014404296875 318.8359375 302.8807678222656 C 322.4174499511719 293.2243347167969 324.9808654785156 281.9673156738281 326.6726684570312 268.4664916992188 C 329.8203125 243.3475646972656 329.3656005859375 214.3486785888672 328.9259033203125 186.3045349121094 C 328.7732543945312 176.5702819824219 328.6154479980469 166.5046234130859 328.6154479980469 156.8315734863281 C 328.6154479980469 147.7149200439453 328.08935546875 138.5039215087891 327.0516967773438 129.4545288085938 C 325.9790954589844 120.0998687744141 324.3553161621094 110.8859710693359 322.2254028320312 102.0686187744141 C 320.0057373046875 92.87962341308594 317.2174072265625 84.04698181152344 313.9378051757812 75.81607055664062 C 310.5029602050781 67.19548034667969 306.4851989746094 59.1273193359375 301.9961547851562 51.83572387695312 C 292.2828063964844 36.05816650390625 280.3063659667969 23.72991943359375 266.3995056152344 15.1934814453125 C 258.9411010742188 10.61526489257812 250.8457946777344 7.097625732421875 242.3385009765625 4.738311767578125 C 233.3947143554688 2.2579345703125 223.7857513427734 1.00018310546875 213.7773590087891 0.999969482421875 L 213.7764587402344 0.999969482421875 M 213.7786712646484 0 C 296.8470458984375 0.001556396484375 329.6154479980469 84.55180358886719 329.6154479980469 156.8315734863281 C 329.6154479980469 243.6839752197266 342.1177062988281 347.4374694824219 255.2654113769531 347.4374694824219 C 168.4131011962891 347.4374694824219 0 255.2152252197266 0 168.3628692626953 C 0 81.51048278808594 32.21475219726562 56.79562377929688 157.2600555419922 11.10272216796875 C 178.2408447265625 3.436126708984375 197.0309600830078 -0.00030517578125 213.7786712646484 0 Z" stroke="none" fill="#f58737"/>
    </g>
    <g id="instilling-good-behavior-in-down-syndrome-children-800x533-2" data-name="instilling-good-behavior-in-down-syndrome-children-800x533" transform="translate(35.12)" fill="none" opacity="0.4">
      <path d="M157.26,11.1C32.215,56.8,0,81.51,0,168.363S168.413,347.438,255.265,347.438s74.35-103.754,74.35-190.606S282.305-34.59,157.26,11.1Z" stroke="none"/>
      <path d="M 213.7764587402344 0.999969482421875 C 205.3413543701172 0.999969482421875 196.4317016601562 1.894439697265625 187.2950592041016 3.658416748046875 C 177.7998962402344 5.49163818359375 167.8101501464844 8.312286376953125 157.6032562255859 12.04196166992188 C 122.8946533203125 24.72488403320312 99.07655334472656 34.46871948242188 80.37481689453125 43.6356201171875 C 69.83499145507812 48.8018798828125 60.912109375 53.7877197265625 53.09619140625 58.87812805175781 C 45.02841186523438 64.132568359375 38.26864624023438 69.41236877441406 32.43075561523438 75.01922607421875 C 26.52761840820312 80.688720703125 21.68734741210938 86.57608032226562 17.63351440429688 93.01777648925781 C 13.59976196289062 99.42747497558594 10.4283447265625 106.2535247802734 7.93804931640625 113.8858795166016 C 3.20458984375 128.3932800292969 1 145.7037200927734 1 168.3628692626953 C 1 173.6103820800781 1.634918212890625 179.0269775390625 2.887054443359375 184.4623260498047 C 4.1033935546875 189.7423706054688 5.9317626953125 195.1686248779297 8.321197509765625 200.59033203125 C 12.90966796875 211.0015258789062 19.67999267578125 221.6867218017578 28.44415283203125 232.34912109375 C 36.73934936523438 242.4410247802734 46.85601806640625 252.5608215332031 58.51309204101562 262.4274291992188 C 69.62435913085938 271.8320922851562 82.10299682617188 280.9835205078125 95.60235595703125 289.627685546875 C 108.6393585205078 297.9757385253906 122.4905548095703 305.7653198242188 136.7712097167969 312.7801208496094 C 150.8203582763672 319.6811828613281 165.0536499023438 325.7200317382812 179.0757598876953 330.7289733886719 C 193.16650390625 335.7624206542969 206.7890014648438 339.6642761230469 219.5648498535156 342.326171875 C 232.6581115722656 345.0542297363281 244.6694946289062 346.4374694824219 255.2654113769531 346.4374694824219 C 260.5834045410156 346.4374694824219 265.658203125 346.0372314453125 270.3488464355469 345.2479248046875 C 274.9065551757812 344.4809265136719 279.2348022460938 343.3241271972656 283.2134094238281 341.8095703125 C 287.0731201171875 340.3402709960938 290.7185668945312 338.4905395507812 294.0484008789062 336.3116149902344 C 297.2756958007812 334.1998291015625 300.3042907714844 331.7149353027344 303.0498962402344 328.9259338378906 C 306.3948364257812 325.5281372070312 309.4379577636719 321.5581665039062 312.0946655273438 317.1263122558594 C 314.6315612792969 312.8943176269531 316.8997192382812 308.1014404296875 318.8359375 302.8807678222656 C 322.4174499511719 293.2243347167969 324.9808654785156 281.9673156738281 326.6726684570312 268.4664916992188 C 329.8203125 243.3475646972656 329.3656005859375 214.3486785888672 328.9259033203125 186.3045349121094 C 328.7732543945312 176.5702819824219 328.6154479980469 166.5046234130859 328.6154479980469 156.8315734863281 C 328.6154479980469 147.7149200439453 328.08935546875 138.5039215087891 327.0516967773438 129.4545288085938 C 325.9790954589844 120.0998687744141 324.3553161621094 110.8859710693359 322.2254028320312 102.0686187744141 C 320.0057373046875 92.87962341308594 317.2174072265625 84.04698181152344 313.9378051757812 75.81607055664062 C 310.5029602050781 67.19548034667969 306.4851989746094 59.1273193359375 301.9961547851562 51.83572387695312 C 292.2828063964844 36.05816650390625 280.3063659667969 23.72991943359375 266.3995056152344 15.1934814453125 C 258.9411010742188 10.61526489257812 250.8457946777344 7.097625732421875 242.3385009765625 4.738311767578125 C 233.3947143554688 2.2579345703125 223.7857513427734 1.00018310546875 213.7773590087891 0.999969482421875 L 213.7764587402344 0.999969482421875 M 213.7786712646484 0 C 296.8470458984375 0.001556396484375 329.6154479980469 84.55180358886719 329.6154479980469 156.8315734863281 C 329.6154479980469 243.6839752197266 342.1177062988281 347.4374694824219 255.2654113769531 347.4374694824219 C 168.4131011962891 347.4374694824219 0 255.2152252197266 0 168.3628692626953 C 0 81.51048278808594 32.21475219726562 56.79562377929688 157.2600555419922 11.10272216796875 C 178.2408447265625 3.436126708984375 197.0309600830078 -0.00030517578125 213.7786712646484 0 Z" stroke="none" fill="#f58737"/>
    </g>
    <g id="instilling-good-behavior-in-down-syndrome-children-800x533-3" data-name="instilling-good-behavior-in-down-syndrome-children-800x533" transform="translate(0)" fill="none" opacity="0.4">
      <path d="M157.26,11.1C32.215,56.8,0,81.51,0,168.363S168.413,347.438,255.265,347.438s74.35-103.754,74.35-190.606S282.305-34.59,157.26,11.1Z" stroke="none"/>
      <path d="M 213.7764587402344 0.999969482421875 C 205.3413543701172 0.999969482421875 196.4317016601562 1.894439697265625 187.2950592041016 3.658416748046875 C 177.7998962402344 5.49163818359375 167.8101501464844 8.312286376953125 157.6032562255859 12.04196166992188 C 122.8946533203125 24.72488403320312 99.07655334472656 34.46871948242188 80.37481689453125 43.6356201171875 C 69.83499145507812 48.8018798828125 60.912109375 53.7877197265625 53.09619140625 58.87812805175781 C 45.02841186523438 64.132568359375 38.26864624023438 69.41236877441406 32.43075561523438 75.01922607421875 C 26.52761840820312 80.688720703125 21.68734741210938 86.57608032226562 17.63351440429688 93.01777648925781 C 13.59976196289062 99.42747497558594 10.4283447265625 106.2535247802734 7.93804931640625 113.8858795166016 C 3.20458984375 128.3932800292969 1 145.7037200927734 1 168.3628692626953 C 1 173.6103820800781 1.634918212890625 179.0269775390625 2.887054443359375 184.4623260498047 C 4.1033935546875 189.7423706054688 5.9317626953125 195.1686248779297 8.321197509765625 200.59033203125 C 12.90966796875 211.0015258789062 19.67999267578125 221.6867218017578 28.44415283203125 232.34912109375 C 36.73934936523438 242.4410247802734 46.85601806640625 252.5608215332031 58.51309204101562 262.4274291992188 C 69.62435913085938 271.8320922851562 82.10299682617188 280.9835205078125 95.60235595703125 289.627685546875 C 108.6393585205078 297.9757385253906 122.4905548095703 305.7653198242188 136.7712097167969 312.7801208496094 C 150.8203582763672 319.6811828613281 165.0536499023438 325.7200317382812 179.0757598876953 330.7289733886719 C 193.16650390625 335.7624206542969 206.7890014648438 339.6642761230469 219.5648498535156 342.326171875 C 232.6581115722656 345.0542297363281 244.6694946289062 346.4374694824219 255.2654113769531 346.4374694824219 C 260.5834045410156 346.4374694824219 265.658203125 346.0372314453125 270.3488464355469 345.2479248046875 C 274.9065551757812 344.4809265136719 279.2348022460938 343.3241271972656 283.2134094238281 341.8095703125 C 287.0731201171875 340.3402709960938 290.7185668945312 338.4905395507812 294.0484008789062 336.3116149902344 C 297.2756958007812 334.1998291015625 300.3042907714844 331.7149353027344 303.0498962402344 328.9259338378906 C 306.3948364257812 325.5281372070312 309.4379577636719 321.5581665039062 312.0946655273438 317.1263122558594 C 314.6315612792969 312.8943176269531 316.8997192382812 308.1014404296875 318.8359375 302.8807678222656 C 322.4174499511719 293.2243347167969 324.9808654785156 281.9673156738281 326.6726684570312 268.4664916992188 C 329.8203125 243.3475646972656 329.3656005859375 214.3486785888672 328.9259033203125 186.3045349121094 C 328.7732543945312 176.5702819824219 328.6154479980469 166.5046234130859 328.6154479980469 156.8315734863281 C 328.6154479980469 147.7149200439453 328.08935546875 138.5039215087891 327.0516967773438 129.4545288085938 C 325.9790954589844 120.0998687744141 324.3553161621094 110.8859710693359 322.2254028320312 102.0686187744141 C 320.0057373046875 92.87962341308594 317.2174072265625 84.04698181152344 313.9378051757812 75.81607055664062 C 310.5029602050781 67.19548034667969 306.4851989746094 59.1273193359375 301.9961547851562 51.83572387695312 C 292.2828063964844 36.05816650390625 280.3063659667969 23.72991943359375 266.3995056152344 15.1934814453125 C 258.9411010742188 10.61526489257812 250.8457946777344 7.097625732421875 242.3385009765625 4.738311767578125 C 233.3947143554688 2.2579345703125 223.7857513427734 1.00018310546875 213.7773590087891 0.999969482421875 L 213.7764587402344 0.999969482421875 M 213.7786712646484 0 C 296.8470458984375 0.001556396484375 329.6154479980469 84.55180358886719 329.6154479980469 156.8315734863281 C 329.6154479980469 243.6839752197266 342.1177062988281 347.4374694824219 255.2654113769531 347.4374694824219 C 168.4131011962891 347.4374694824219 0 255.2152252197266 0 168.3628692626953 C 0 81.51048278808594 32.21475219726562 56.79562377929688 157.2600555419922 11.10272216796875 C 178.2408447265625 3.436126708984375 197.0309600830078 -0.00030517578125 213.7786712646484 0 Z" stroke="none" fill="#f58737"/>
    </g>
  </g>
</svg>
