<svg xmlns="http://www.w3.org/2000/svg" width="153.027" height="160.996" viewBox="0 0 153.027 160.996">
  <g id="Group_177407" data-name="Group 177407" transform="translate(0 0)">
    <path id="instilling-good-behavior-in-down-syndrome-children-800x533" d="M67.428,4.76C13.813,24.352,0,34.949,0,72.189S72.21,148.97,109.45,148.97s31.879-44.486,31.879-81.726S121.044-14.831,67.428,4.76Z" transform="translate(5.715 6.013)" fill="#f58737" opacity="0.22"/>
    <g id="instilling-good-behavior-in-down-syndrome-children-800x533-2" data-name="instilling-good-behavior-in-down-syndrome-children-800x533" fill="none" opacity="0.67">
      <path d="M72.871,5.145C14.928,26.318,0,37.77,0,78.016S78.039,161,118.285,161s34.452-48.077,34.452-88.323S130.815-16.028,72.871,5.145Z" stroke="none"/>
      <path d="M 99.05989074707031 0.9999847412109375 C 91.14225006103516 0.9999847412109375 82.44659423828125 2.71051025390625 73.21445465087891 6.084030151367188 C 57.14956665039062 11.95433044433594 46.12875366210938 16.46260070800781 37.48032379150391 20.70176696777344 C 27.67422485351562 25.50835418701172 20.65788269042969 30.09922027587891 15.39947509765625 35.14949035644531 C 12.69599914550781 37.7459716796875 10.48011779785156 40.44097137451172 8.62518310546875 43.38846588134766 C 6.77984619140625 46.32078552246094 5.328567504882812 49.44476318359375 4.188507080078125 52.93897247314453 C 2.013168334960938 59.6060791015625 1 67.57451629638672 1 78.01610565185547 C 1 82.74256134033203 2.126068115234375 87.69412231445312 4.346939086914062 92.73326110839844 C 6.453414916992188 97.51290130615234 9.56494140625 102.4223785400391 13.59503173828125 107.3253555297852 C 17.41838073730469 111.9768524169922 22.08343505859375 116.6430130004883 27.46052551269531 121.194221496582 C 32.5911865234375 125.5368347167969 38.35425567626953 129.7632141113281 44.58963775634766 133.7559661865234 C 56.63732147216797 141.4705657958984 69.97499847412109 148.0379180908203 83.16075134277344 152.7481079101562 C 96.43424987792969 157.4896240234375 108.5800476074219 159.995849609375 118.2850494384766 159.995849609375 C 123.0748901367188 159.995849609375 127.3678665161133 159.2861480712891 131.044677734375 157.8864898681641 C 134.4898681640625 156.5749969482422 137.5180206298828 154.6084747314453 140.0450439453125 152.0414886474609 C 152.7098236083984 139.1765747070312 152.2886657714844 112.3152465820312 151.8813629150391 86.33833312988281 C 151.8105926513672 81.82560729980469 151.7374267578125 77.15924072265625 151.7374267578125 72.67274475097656 C 151.7374267578125 64.13269805908203 150.7187042236328 55.40135192871094 148.7914123535156 47.42265319824219 C 146.6809844970703 38.68585205078125 143.5489044189453 30.90660858154297 139.4822082519531 24.30099487304688 C 135.0257720947266 17.06233215332031 129.5354156494141 11.40890502929688 123.1636352539062 7.497695922851562 C 116.1399078369141 3.186309814453125 108.0305480957031 1.000152587890625 99.060302734375 0.9999847412109375 L 99.05989074707031 0.9999847412109375 M 99.06089019775391 0 C 137.5531768798828 0.0007171630859375 152.7374267578125 39.17967224121094 152.7374267578125 72.67274475097656 C 152.7374267578125 112.9184417724609 158.5307312011719 160.995849609375 118.2850494384766 160.995849609375 C 78.03936767578125 160.995849609375 0 118.2618103027344 0 78.01610565185547 C 0 37.77040100097656 14.92770385742188 26.3179931640625 72.87125396728516 5.144790649414062 C 82.59334564208984 1.59222412109375 91.30032348632812 -0.000152587890625 99.06089019775391 0 Z" stroke="none" fill="#f58737"/>
    </g>
  </g>
</svg>
