<svg xmlns="http://www.w3.org/2000/svg" width="34.938" height="30.571" viewBox="0 0 34.938 30.571">
  <path id="quote-left-solid" d="M31.663,47.285H26.2V42.918a4.371,4.371,0,0,1,4.367-4.367h.546a1.634,1.634,0,0,0,1.638-1.638V33.638A1.634,1.634,0,0,0,31.117,32h-.546A10.915,10.915,0,0,0,19.653,42.918V59.3a3.276,3.276,0,0,0,3.275,3.275h8.735A3.276,3.276,0,0,0,34.938,59.3V50.561A3.276,3.276,0,0,0,31.663,47.285Zm-19.653,0H6.551V42.918a4.371,4.371,0,0,1,4.367-4.367h.546A1.634,1.634,0,0,0,13.1,36.913V33.638A1.634,1.634,0,0,0,11.464,32h-.546A10.915,10.915,0,0,0,0,42.918V59.3a3.276,3.276,0,0,0,3.275,3.275H12.01A3.276,3.276,0,0,0,15.285,59.3V50.561A3.276,3.276,0,0,0,12.01,47.285Z" transform="translate(0 -32)" fill="#0860a6"/>
</svg>
