<svg xmlns="http://www.w3.org/2000/svg" width="522.551" height="301.776" viewBox="0 0 522.551 301.776">
  <path id="Path_41356" data-name="Path 41356" d="M986.488-466.247a150.807,150.807,0,0,0-130.155,74.53c-.224.381-.454.757-.675,1.139-36.577,63.487-1.446,99.008-48.974,150.592a110.98,110.98,0,0,1-81.856,35.9,110.974,110.974,0,0,1-81.854-35.9H594.093a150.82,150.82,0,0,0,130.735,75.514,150.823,150.823,0,0,0,130.737-75.514c.031-.052.064-.1.093-.157,36.481-63.31,1.383-100.175,49.889-151.574a110.96,110.96,0,0,1,80.941-34.923,110.958,110.958,0,0,1,80.941,34.923h49.215A150.81,150.81,0,0,0,986.488-466.247Z" transform="translate(-594.093 466.247)" fill="#0070b5"/>
</svg>
