<svg xmlns="http://www.w3.org/2000/svg" width="543.058" height="301.776" viewBox="0 0 543.058 301.776">
  <path id="Path_41358" data-name="Path 41358" d="M782.6-466.247a150.805,150.805,0,0,0-130.154,74.53c-37.4,63.622-1.987,99.62-50,151.732a110.98,110.98,0,0,1-81.856,35.9,110.972,110.972,0,0,1-81.854-35.9,111.242,111.242,0,0,1,.913-151.732,110.959,110.959,0,0,1,80.941-34.923,110.956,110.956,0,0,1,80.942,34.923h49.215a150.813,150.813,0,0,0-130.158-74.53,150.809,150.809,0,0,0-130.155,74.53,151.008,151.008,0,0,0-.58,151.732,150.82,150.82,0,0,0,130.735,75.514,150.823,150.823,0,0,0,130.737-75.514c.091-.155.181-.309.27-.467,36.151-63.083,1.193-99.479,50.064-151.265A110.96,110.96,0,0,1,782.6-426.64a110.961,110.961,0,0,1,80.943,34.923h49.214A150.812,150.812,0,0,0,782.6-466.247Z" transform="translate(-369.698 466.247)" fill="#f59033"/>
</svg>
