<svg xmlns="http://www.w3.org/2000/svg" width="542.924" height="301.776" viewBox="0 0 542.924 301.776">
  <path id="Path_41357" data-name="Path 41357" d="M1324.394-391.717a150.809,150.809,0,0,0-130.155-74.53,150.806,150.806,0,0,0-130.156,74.53c-37.434,63.466-2.053,100.138-49.589,151.732a110.974,110.974,0,0,1-81.854,35.9,110.975,110.975,0,0,1-81.855-35.9h-48.28c-.1.172-.2.339-.3.512a150.822,150.822,0,0,0,130.435,75,150.828,150.828,0,0,0,130.737-75.514c.02-.034.042-.068.062-.106,36.628-63.505,1.314-100.192,49.858-151.626a110.956,110.956,0,0,1,80.942-34.923,110.956,110.956,0,0,1,80.941,34.923,111.24,111.24,0,0,1,.913,151.732,110.975,110.975,0,0,1-81.854,35.9,110.972,110.972,0,0,1-81.855-35.9H1063.5a150.82,150.82,0,0,0,130.737,75.514,150.822,150.822,0,0,0,130.735-75.514A150.989,150.989,0,0,0,1324.394-391.717Z" transform="translate(-802.205 466.247)" fill="#0a2b53"/>
</svg>
