<svg xmlns="http://www.w3.org/2000/svg" width="89.123" height="84.712" viewBox="0 0 89.123 84.712">
  <g id="Group_177283" data-name="Group 177283" transform="translate(3823.622 -1123.125) rotate(90)">
    <path id="instilling-good-behavior-in-down-syndrome-children-800x533" d="M37.327,2.635C7.646,13.481,0,19.347,0,39.962s39.974,42.5,60.589,42.5S78.236,57.84,78.236,37.225,67.007-8.21,37.327,2.635Z" transform="translate(1126.289 3737.827)" fill="#f58737" opacity="0.22"/>
    <g id="instilling-good-behavior-in-down-syndrome-children-800x533-2" data-name="instilling-good-behavior-in-down-syndrome-children-800x533" transform="translate(1123.125 3734.499)" fill="none" opacity="0.67">
      <path d="M40.34,2.848C8.264,14.569,0,20.909,0,43.188S43.2,89.123,65.48,89.123,84.552,62.509,84.552,40.23,72.416-8.873,40.34,2.848Z" stroke="none"/>
      <path d="M 54.83707809448242 0.9999923706054688 C 50.50650405883789 0.9999923706054688 45.7443733215332 1.937767028808594 40.68294525146484 3.787269592285156 C 31.80510330200195 7.031333923339844 25.71759796142578 9.521308898925781 20.94466400146484 11.86083221435547 C 15.55892181396484 14.50074005126953 11.71067810058594 17.01707077026367 8.834014892578125 19.77986907958984 C 5.915107727050781 22.58322906494141 3.979667663574219 25.65413665771484 2.743049621582031 29.44417572021484 C 1.553863525390625 33.08888244628906 1 37.45601654052734 1 43.18778991699219 C 1 45.74185562133789 1.610610961914062 48.42234802246094 2.814865112304688 51.15480422973633 C 3.964561462402344 53.76347351074219 5.665596008300781 56.44644165039062 7.870735168457031 59.12918853759766 C 11.97895812988281 64.12722778320312 17.87603759765625 69.15468597412109 24.92446517944336 73.66804504394531 C 31.56579971313477 77.92073822021484 38.91789245605469 81.5408935546875 46.18591690063477 84.13716125488281 C 53.48614501953125 86.74493408203125 60.1578254699707 88.12332153320312 65.47967529296875 88.12332153320312 C 68.07674407958984 88.12332153320312 70.3997802734375 87.74028015136719 72.38427734375 86.98484802246094 C 74.23104858398438 86.28181457519531 75.85377502441406 85.22818756103516 77.20734405517578 83.85321807861328 C 84.08708953857422 76.86476135253906 83.85543823242188 62.09001922607422 83.63140106201172 47.80173873901367 C 83.59220886230469 45.30189895629883 83.55168151855469 42.71693801879883 83.55168151855469 40.22983169555664 C 83.55168151855469 35.53704452514648 82.99205017089844 30.73983001708984 81.93330383300781 26.35681915283203 C 80.77607727050781 21.56605911254883 79.06033325195312 17.30313873291016 76.83375549316406 13.68647003173828 C 74.40383911132812 9.739509582519531 71.41383361816406 6.659164428710938 67.94680786132812 4.531005859375 C 64.12994384765625 2.188087463378906 59.71938323974609 1.000083923339844 54.83731842041016 0.9999923706054688 L 54.83707809448242 0.9999923706054688 M 54.83766174316406 -7.62939453125e-06 C 76.14604187011719 0.00038909912109375 84.55168151855469 21.68889236450195 84.55168151855469 40.22983169555664 C 84.55168151855469 62.50887298583984 87.75868988037109 89.12332153320312 65.47967529296875 89.12332153320312 C 43.20066452026367 89.12332153320312 0 65.46681976318359 0 43.18778991699219 C 0 20.90875244140625 8.26361083984375 14.56899261474609 40.3397331237793 2.848014831542969 C 45.72164154052734 0.88140869140625 50.54160690307617 -9.1552734375e-05 54.83766174316406 -7.62939453125e-06 Z" stroke="none" fill="#f58737"/>
    </g>
  </g>
</svg>
