<svg xmlns="http://www.w3.org/2000/svg" width="124.606" height="95.16" viewBox="0 0 124.606 95.16">
  <g id="Group_177407" data-name="Group 177407" transform="translate(-413.237 -3170.913)">
    <path id="instilling-good-behavior-in-down-syndrome-children-800x533" d="M11.968-13.2c-27.083,9.9-34.06,15.249-34.06,34.06S14.384,59.646,33.195,59.646,49.3,37.175,49.3,18.364,39.051-23.095,11.968-13.2Z" transform="translate(435.329 3206.426)" fill="#fffdfa" opacity="0.49"/>
    <g id="partner-3134730" transform="translate(434.157 3160.236)">
      <rect id="Rectangle_162925" data-name="Rectangle 162925" width="50.08" height="23.722" transform="translate(16.999 54.208) rotate(-45)" fill="#ffd5c5"/>
      <path id="Path_39127" data-name="Path 39127" d="M23.265,25.76l-5.208,5.208,5.642,5.64,3.326,3.326a6.944,6.944,0,0,1-.073,9.895L18.6,57.944l3.1,2.691L34.956,47.626l5.208-5.454Z" transform="translate(11.081 11.101)" fill="#f4a490"/>
      <path id="Path_39128" data-name="Path 39128" d="M31.1,11.481a3.729,3.729,0,0,0-.247,5.5L28.4,14.536a3.908,3.908,0,0,0-5.208-.413,3.727,3.727,0,0,0-.245,5.5l2.635,2.635a3.729,3.729,0,0,0-5.5.247,3.908,3.908,0,0,0,.413,5.208l2.444,2.449a3.729,3.729,0,0,0-5.5.247,3.908,3.908,0,0,0,.413,5.208l3.765,3.765,6.6,6.6,9.742,9.74a11.738,11.738,0,0,0,7.794,3.427c3.029.128,6.452.278,6.465.292l12.5,12.5a.059.059,0,0,0,.085,0L80.529,56.2a.059.059,0,0,0,0-.085L49.3,24.884l-7.327-7.327-5.664-5.663a3.909,3.909,0,0,0-5.211-.413Z" transform="translate(10.039)" fill="#ffd5c5"/>
      <path id="Path_39129" data-name="Path 39129" d="M31.1,11.481a3.729,3.729,0,0,0-.247,5.5L28.4,14.536a3.908,3.908,0,0,0-5.208-.413,3.727,3.727,0,0,0-.245,5.5l2.635,2.635a3.729,3.729,0,0,0-5.5.247,3.908,3.908,0,0,0,.413,5.208l2.444,2.449a3.729,3.729,0,0,0-5.5.247,3.908,3.908,0,0,0,.413,5.208l3.765,3.765,6.6,6.6,9.742,9.74a11.738,11.738,0,0,0,7.794,3.427c3.029.128,6.452.278,6.465.292l12.5,12.5a.059.059,0,0,0,.085,0L80.529,56.2a.059.059,0,0,0,0-.085L49.3,24.884l-7.327-7.327-5.664-5.663a3.909,3.909,0,0,0-5.211-.413Z" transform="translate(10.039)" fill="#ffd5c5"/>
      <path id="Path_39130" data-name="Path 39130" d="M65.67,59.4a.059.059,0,0,1-.085,0L54.03,47.842a3.472,3.472,0,0,0-2.293-1.014c-1.278-.057-3.271-.144-5.118-.222a11.738,11.738,0,0,1-7.794-3.427l-9.742-9.74L18.726,23.084a4.241,4.241,0,0,1-.868-1.274,3.776,3.776,0,0,0-.417.4,3.909,3.909,0,0,0,.411,5.208L28.21,37.774l9.742,9.74a11.738,11.738,0,0,0,7.794,3.427c3.027.128,6.452.278,6.465.292l12.5,12.5a.059.059,0,0,0,.085,0L80.531,48.005a.059.059,0,0,0,0-.085l-1.693-1.693Z" transform="translate(10.037 8.194)" fill="#f4a490"/>
      <rect id="Rectangle_162926" data-name="Rectangle 162926" width="22.526" height="7.456" rx="2" transform="translate(52.602 28.642) rotate(-45)" fill="#ffd5c5"/>
      <path id="Path_39131" data-name="Path 39131" d="M49.559,13.386l-10.87,10.87a3.472,3.472,0,0,1-4.909,0l-.214-.214-.148.149a3.472,3.472,0,0,0,0,4.911l.361.361a3.472,3.472,0,0,0,4.909,0l11.02-11.02a3.472,3.472,0,0,0,0-4.911Z" transform="translate(21.637 1.994)" fill="#f4a490"/>
      <rect id="Rectangle_162927" data-name="Rectangle 162927" width="26.093" height="7.456" rx="2" transform="translate(55.345 36.44) rotate(-45)" fill="#ffd5c5"/>
      <path id="Path_39132" data-name="Path 39132" d="M53.666,16.425l-13.4,13.393a3.472,3.472,0,0,1-4.909,0l-.214-.214-.149.149a3.472,3.472,0,0,0,0,4.911l.363.361a3.472,3.472,0,0,0,4.909,0l13.54-13.54a3.472,3.472,0,0,0,0-4.911Z" transform="translate(22.797 4.231)" fill="#f4a490"/>
      <rect id="Rectangle_162928" data-name="Rectangle 162928" width="22.526" height="7.456" rx="2" transform="translate(63.169 39.163) rotate(-45)" fill="#ffd5c5"/>
      <path id="Path_39133" data-name="Path 39133" d="M55.648,19.446l-10.87,10.87a3.472,3.472,0,0,1-4.909,0l-.214-.214-.149.149a3.472,3.472,0,0,0,0,4.911l.363.361a3.472,3.472,0,0,0,4.909,0L55.8,24.506a3.472,3.472,0,0,0,0-4.911Z" transform="translate(26.117 6.454)" fill="#f4a490"/>
      <rect id="Rectangle_162929" data-name="Rectangle 162929" width="18.833" height="7.456" rx="2" transform="translate(69.315 43.557) rotate(-45)" fill="#ffd5c5"/>
      <path id="Path_39134" data-name="Path 39134" d="M56.575,23.483l-8.258,8.258a3.472,3.472,0,0,1-4.909,0l-.214-.212-.148.148a3.472,3.472,0,0,0,0,4.911l.361.361a3.472,3.472,0,0,0,4.909,0l8.416-8.4a3.472,3.472,0,0,0,0-4.909Z" transform="translate(28.724 9.425)" fill="#f4a490"/>
      <path id="Path_39135" data-name="Path 39135" d="M32.977,16.386l3.793,3.793h4.321a3.954,3.954,0,1,0,0-7.908H28.863Z" transform="translate(19.034 1.173)" fill="#ffd5c5"/>
      <path id="Path_39136" data-name="Path 39136" d="M39.648,12.3a3.646,3.646,0,0,1,.045.439,3.954,3.954,0,0,1-3.954,3.953H31.418l3.472,3.472h4.321a3.944,3.944,0,0,0,.437-7.864Z" transform="translate(20.914 1.195)" fill="#f4a490"/>
      <rect id="Rectangle_162930" data-name="Rectangle 162930" width="31.684" height="16.521" transform="translate(69.599 73.3) rotate(-45)" fill="#545a6d"/>
      <path id="Path_39137" data-name="Path 39137" d="M46.572,47.559h0l-5.208,5.208L53.047,64.45l22.4-22.4-3.472-3.472-8.987,8.985a11.612,11.612,0,0,1-16.42,0Z" transform="translate(28.234 20.531)" fill="#44394a"/>
      <rect id="Rectangle_162931" data-name="Rectangle 162931" width="16.521" height="31.684" transform="translate(3 62.577) rotate(-45)" fill="#545a6d"/>
      <path id="Path_39138" data-name="Path 39138" d="M19.889,39.052h0l-5.208-5.208L3,45.527l22.4,22.4,5.208-5.208L19.889,51.995a9.159,9.159,0,0,1,0-12.943Z" transform="translate(0 17.05)" fill="#44394a"/>
      <path id="Path_39139" data-name="Path 39139" d="M29.573,34.993h0a1.791,1.791,0,0,0,.019-2.512l-10.369-10.7H19.2a3.869,3.869,0,0,0,.182,5.461l2.449,2.451a3.593,3.593,0,0,0-.453-.365L27.041,35a1.79,1.79,0,0,0,2.533,0ZM21.557,14.188a3.724,3.724,0,0,0,.271,4.961l2.635,2.635c-.247-.247,7.911,8.126,7.911,8.126a1.767,1.767,0,0,0,2.441.054h0a1.764,1.764,0,0,0,.083-2.528L22.241,14.383Zm8.178,2.324L37.48,24.46a1.781,1.781,0,0,0,2.484.033h0a1.781,1.781,0,0,0,.054-2.531L29.69,11.31a3.713,3.713,0,0,0,.045,5.2Z" transform="translate(11.154 0.466)" fill="#f4a490"/>
      <path id="Path_39140" data-name="Path 39140" d="M86.905,48.948a1.724,1.724,0,0,0,1.227-.509L97.472,39.1l-2.455-2.455-9.339,9.339a1.736,1.736,0,0,0,1.227,2.963ZM7.969,36.645,5.514,39.1l9.339,9.339a1.736,1.736,0,1,0,2.455-2.455ZM19.808,49.076a1.864,1.864,0,1,0,1.863,1.863A1.864,1.864,0,0,0,19.808,49.076Zm63.369,0a1.861,1.861,0,1,0,1.319.544,1.864,1.864,0,0,0-1.319-.544Z" transform="translate(1.85 19.111)" fill="#f7fcff"/>
    </g>
  </g>
</svg>
