<svg xmlns="http://www.w3.org/2000/svg" width="111.69" height="75.33" viewBox="0 0 111.69 75.33">
  <g id="Group_177408" data-name="Group 177408" transform="translate(-142.31 -3175.795)">
    <path id="instilling-good-behavior-in-down-syndrome-children-800x533" d="M11.968-13.2c-27.083,9.9-34.06,15.249-34.06,34.06S14.384,59.646,33.195,59.646,49.3,37.175,49.3,18.364,39.051-23.095,11.968-13.2Z" transform="translate(164.401 3191.479)" fill="#fffdfa" opacity="0.49"/>
    <g id="medical-kit-svgrepo-com_1_" data-name="medical-kit-svgrepo-com (1)" transform="translate(173.669 3146.164)">
      <g id="Layer_2_36_" transform="translate(0 29.631)">
        <g id="Group_177160" data-name="Group 177160" transform="translate(0 0)">
          <rect id="Rectangle_162932" data-name="Rectangle 162932" width="23.356" height="7.815" transform="translate(28.64 7.022)" fill="none"/>
          <path id="Path_39141" data-name="Path 39141" d="M110.193,36.653h23.356v7.815h7.022V33.142a3.511,3.511,0,0,0-3.511-3.511H106.682a3.511,3.511,0,0,0-3.511,3.511V44.468h7.022V36.653Z" transform="translate(-81.553 -29.631)" fill="#1b2327"/>
          <path id="Path_39142" data-name="Path 39142" d="M70.767,100.44H9.564A9.563,9.563,0,0,0,0,110v33.949a9.564,9.564,0,0,0,9.564,9.564h61.2a9.564,9.564,0,0,0,9.564-9.564V110A9.564,9.564,0,0,0,70.767,100.44ZM40.515,143.421a15.26,15.26,0,1,1,15.26-15.26A15.26,15.26,0,0,1,40.515,143.421Z" transform="translate(0 -85.603)" fill="#f7f1e6"/>
          <path id="Path_39143" data-name="Path 39143" d="M135.788,159.911a15.26,15.26,0,1,0,15.26,15.26A15.26,15.26,0,0,0,135.788,159.911Zm8.862,16.015a2.259,2.259,0,0,1-2.26,2.26H138.8v3.587a2.26,2.26,0,0,1-2.26,2.26h-1.511a2.26,2.26,0,0,1-2.26-2.26v-3.587h-3.588a2.26,2.26,0,0,1-2.26-2.26v-1.511a2.26,2.26,0,0,1,2.26-2.26h3.588v-3.587a2.26,2.26,0,0,1,2.26-2.26h1.511a2.26,2.26,0,0,1,2.26,2.26v3.587h3.588a2.26,2.26,0,0,1,2.26,2.26Z" transform="translate(-95.273 -132.612)" fill="#e74424"/>
          <path id="Path_39144" data-name="Path 39144" d="M166.522,196.287h-3.588V192.7a2.26,2.26,0,0,0-2.26-2.26h-1.511a2.26,2.26,0,0,0-2.26,2.26v3.588h-3.588a2.26,2.26,0,0,0-2.26,2.26v1.511a2.26,2.26,0,0,0,2.26,2.26H156.9v3.588a2.26,2.26,0,0,0,2.26,2.26h1.511a2.26,2.26,0,0,0,2.26-2.26v-3.588h3.588a2.259,2.259,0,0,0,2.26-2.26v-1.511A2.26,2.26,0,0,0,166.522,196.287Z" transform="translate(-119.404 -156.744)" fill="#f7f1e6"/>
        </g>
      </g>
    </g>
  </g>
</svg>
