<svg xmlns="http://www.w3.org/2000/svg" width="94.867" height="107.115" viewBox="0 0 94.867 107.115">
  <g id="Group_177405" data-name="Group 177405" transform="translate(-1087.363 -3165.797)">
    <path id="instilling-good-behavior-in-down-syndrome-children-800x533" d="M11.968-13.2c-27.083,9.9-34.06,15.249-34.06,34.06S14.384,59.646,33.195,59.646,49.3,37.175,49.3,18.364,39.051-23.095,11.968-13.2Z" transform="translate(1109.455 3213.266)" fill="#fffdfa" opacity="0.49"/>
    <g id="undraw_profile_pic_ic5t" transform="translate(1053.441 3113.18)">
      <path id="Path_39145" data-name="Path 39145" d="M435.972,682.345a54.078,54.078,0,0,0,29.868-8.939c-2-10.943-9.623-11.566-9.623-11.566H414.2s-7.191.59-9.437,10.656A54.088,54.088,0,0,0,435.972,682.345Z" transform="translate(-337.052 -539.025)" fill="#00b0ff"/>
      <circle id="Ellipse_820" data-name="Ellipse 820" cx="26.228" cy="26.228" r="26.228" transform="translate(72.116 61.394)" fill="#333"/>
      <path id="Path_39146" data-name="Path 39146" d="M293.15,476.92h16.805v13.445a8.4,8.4,0,0,1-8.4,8.4h0a8.4,8.4,0,0,1-8.4-8.4V476.92Z" transform="translate(-203.271 -367.453)" opacity="0.1"/>
      <path id="Path_39147" data-name="Path 39147" d="M293.7,473h15.746a.533.533,0,0,1,.533.533v12.912a8.4,8.4,0,0,1-8.408,8.4h0a8.4,8.4,0,0,1-8.4-8.4V473.533a.533.533,0,0,1,.53-.533Z" transform="translate(-203.288 -364.156)" fill="#fdb797"/>
      <path id="Path_39148" data-name="Path 39148" d="M544.34,607.132a24.187,24.187,0,0,0,16.805.046V605.11H544.34Z" transform="translate(-454.431 -491.318)" opacity="0.1"/>
      <circle id="Ellipse_821" data-name="Ellipse 821" cx="24.088" cy="24.088" r="24.088" transform="translate(74.255 68.761)" fill="#fdb797"/>
      <path id="Path_39149" data-name="Path 39149" d="M489.49,303.657s10.152,20.607,38.79,8.64l-6.668-10.454L509.793,297.6Z" transform="translate(-408.305 -232.718)" opacity="0.1"/>
      <path id="Path_39150" data-name="Path 39150" d="M489.49,301.74s10.152,20.607,38.79,8.637l-6.668-10.454-11.819-4.242Z" transform="translate(-408.305 -231.103)" fill="#333"/>
      <path id="Path_39151" data-name="Path 39151" d="M486.271,237.113a13.917,13.917,0,0,1,3.45-5.61c4.738-4.684,12.506-5.672,16.49-11.013a3.119,3.119,0,0,1-1.431,4.4c3.817-.025,8.24-.359,10.4-3.5a7.14,7.14,0,0,1-1.2,7.539c3.383.159,7,2.449,7.211,5.829a6.744,6.744,0,0,1-3.116,5.675,17.261,17.261,0,0,1-6.292,2.37C505.346,244.222,482.074,250.166,486.271,237.113Z" transform="translate(-405.175 -167.872)" fill="#333"/>
      <ellipse id="Ellipse_822" data-name="Ellipse 822" cx="2.241" cy="4.202" rx="2.241" ry="4.202" transform="translate(72.004 88.625)" fill="#fdb797"/>
      <ellipse id="Ellipse_823" data-name="Ellipse 823" cx="2.241" cy="4.202" rx="2.241" ry="4.202" transform="translate(120.188 88.625)" fill="#fdb797"/>
    </g>
  </g>
</svg>
