<svg xmlns="http://www.w3.org/2000/svg" width="402.36" height="347.438" viewBox="0 0 402.36 347.438">
  <g id="Group_177126" data-name="Group 177126" opacity="0.69">
    <g id="instilling-good-behavior-in-down-syndrome-children-800x533" transform="translate(0)" fill="none" opacity="0.4">
      <path d="M172.98,11.1C298.025,56.8,330.24,81.51,330.24,168.363S161.827,347.438,74.975,347.438.625,243.684.625,156.832,47.935-34.59,172.98,11.1Z" stroke="none"/>
      <path d="M 116.4615783691406 0.999969482421875 C 106.4544830322266 0.999969482421875 96.84553527832031 2.257568359375 87.9017333984375 4.737884521484375 C 79.39442443847656 7.097076416015625 71.29913330078125 10.61468505859375 63.84072875976562 15.19284057617188 C 49.93386840820312 23.72921752929688 37.95742797851562 36.05746459960938 28.24407958984375 51.83511352539062 C 23.75503540039062 59.12677001953125 19.73727416992188 67.19502258300781 16.30242919921875 75.815673828125 C 13.0228271484375 84.046630859375 10.23446655273438 92.87931823730469 8.0147705078125 102.0684204101562 C 5.884918212890625 110.8857727050781 4.261077880859375 120.0997772216797 3.1884765625 129.4544219970703 C 2.15081787109375 138.5039215087891 1.624725341796875 147.7149200439453 1.624725341796875 156.8315734863281 C 1.624725341796875 166.5045776367188 1.4669189453125 176.5702209472656 1.31427001953125 186.3044281005859 C 0.87457275390625 214.3485717773438 0.419891357421875 243.3475341796875 3.567535400390625 268.4664306640625 C 5.25933837890625 281.96728515625 7.822723388671875 293.2243347167969 11.40423583984375 302.8807373046875 C 13.34054565429688 308.1014404296875 15.608642578125 312.8943176269531 18.14556884765625 317.1263122558594 C 20.80227661132812 321.5581665039062 23.84536743164062 325.5281372070312 27.19027709960938 328.9258728027344 C 29.93594360351562 331.7149353027344 32.9644775390625 334.1998291015625 36.19183349609375 336.3116149902344 C 39.52166748046875 338.4905395507812 43.16708374023438 340.3402709960938 47.02682495117188 341.8095703125 C 51.00543212890625 343.3241271972656 55.33367919921875 344.4809265136719 59.89138793945312 345.2479248046875 C 64.58203125 346.0372314453125 69.65682983398438 346.4374694824219 74.97483825683594 346.4374694824219 C 85.57072448730469 346.4374694824219 97.58213806152344 345.0542297363281 110.6753845214844 342.326171875 C 123.4512329101562 339.6642761230469 137.07373046875 335.7624206542969 151.1644744873047 330.7289733886719 C 165.1865844726562 325.7200317382812 179.4198760986328 319.6811828613281 193.4690246582031 312.7801208496094 C 207.7496795654297 305.7653198242188 221.6008911132812 297.9757385253906 234.6378784179688 289.627685546875 C 248.1372375488281 280.9835205078125 260.6158752441406 271.8320922851562 271.7271423339844 262.4274291992188 C 283.3842163085938 252.5608215332031 293.5008850097656 242.4410247802734 301.7960815429688 232.34912109375 C 310.5602416992188 221.6867218017578 317.33056640625 211.0015258789062 321.9190368652344 200.59033203125 C 324.3084716796875 195.1686248779297 326.1368408203125 189.7423706054688 327.3531799316406 184.4623260498047 C 328.6053466796875 179.0269775390625 329.240234375 173.6103820800781 329.240234375 168.3628692626953 C 329.240234375 145.7037200927734 327.03564453125 128.3932800292969 322.3021850585938 113.8858795166016 C 319.8118896484375 106.2535247802734 316.6404724121094 99.42747497558594 312.6067199707031 93.01777648925781 C 308.5528259277344 86.57608032226562 303.712646484375 80.688720703125 297.8094787597656 75.01922607421875 C 291.9715881347656 69.41236877441406 285.2118225097656 64.132568359375 277.14404296875 58.87812805175781 C 269.328125 53.7877197265625 260.4051818847656 48.8018798828125 249.8653869628906 43.6356201171875 C 231.1636810302734 34.46871948242188 207.3455810546875 24.72488403320312 172.6369781494141 12.04196166992188 C 162.4296875 8.3121337890625 152.4394836425781 5.491424560546875 142.9439239501953 3.658233642578125 C 133.8072814941406 1.894317626953125 124.8973236083984 0.999969482421875 116.4615783691406 0.999969482421875 M 116.4615631103516 0 C 133.2092742919922 0 151.9993896484375 3.436126708984375 172.9801788330078 11.10272216796875 C 298.0254211425781 56.79562377929688 330.240234375 81.51048278808594 330.240234375 168.3628692626953 C 330.240234375 255.2152252197266 161.8271331787109 347.4374694824219 74.97483825683594 347.4374694824219 C -11.87747192382812 347.4374694824219 0.624725341796875 243.6839752197266 0.624725341796875 156.8315734863281 C 0.624725341796875 84.55180358886719 33.3931884765625 0 116.4615631103516 0 Z" stroke="none" fill="#f58737"/>
    </g>
    <g id="instilling-good-behavior-in-down-syndrome-children-800x533-2" data-name="instilling-good-behavior-in-down-syndrome-children-800x533" transform="translate(37)" fill="none" opacity="0.4">
      <path d="M172.98,11.1C298.025,56.8,330.24,81.51,330.24,168.363S161.827,347.438,74.975,347.438.625,243.684.625,156.832,47.935-34.59,172.98,11.1Z" stroke="none"/>
      <path d="M 116.4615783691406 0.999969482421875 C 106.4544830322266 0.999969482421875 96.84553527832031 2.257568359375 87.9017333984375 4.737884521484375 C 79.39442443847656 7.097076416015625 71.29913330078125 10.61468505859375 63.84072875976562 15.19284057617188 C 49.93386840820312 23.72921752929688 37.95742797851562 36.05746459960938 28.24407958984375 51.83511352539062 C 23.75503540039062 59.12677001953125 19.73727416992188 67.19502258300781 16.30242919921875 75.815673828125 C 13.0228271484375 84.046630859375 10.23446655273438 92.87931823730469 8.0147705078125 102.0684204101562 C 5.884918212890625 110.8857727050781 4.261077880859375 120.0997772216797 3.1884765625 129.4544219970703 C 2.15081787109375 138.5039215087891 1.624725341796875 147.7149200439453 1.624725341796875 156.8315734863281 C 1.624725341796875 166.5045776367188 1.4669189453125 176.5702209472656 1.31427001953125 186.3044281005859 C 0.87457275390625 214.3485717773438 0.419891357421875 243.3475341796875 3.567535400390625 268.4664306640625 C 5.25933837890625 281.96728515625 7.822723388671875 293.2243347167969 11.40423583984375 302.8807373046875 C 13.34054565429688 308.1014404296875 15.608642578125 312.8943176269531 18.14556884765625 317.1263122558594 C 20.80227661132812 321.5581665039062 23.84536743164062 325.5281372070312 27.19027709960938 328.9258728027344 C 29.93594360351562 331.7149353027344 32.9644775390625 334.1998291015625 36.19183349609375 336.3116149902344 C 39.52166748046875 338.4905395507812 43.16708374023438 340.3402709960938 47.02682495117188 341.8095703125 C 51.00543212890625 343.3241271972656 55.33367919921875 344.4809265136719 59.89138793945312 345.2479248046875 C 64.58203125 346.0372314453125 69.65682983398438 346.4374694824219 74.97483825683594 346.4374694824219 C 85.57072448730469 346.4374694824219 97.58213806152344 345.0542297363281 110.6753845214844 342.326171875 C 123.4512329101562 339.6642761230469 137.07373046875 335.7624206542969 151.1644744873047 330.7289733886719 C 165.1865844726562 325.7200317382812 179.4198760986328 319.6811828613281 193.4690246582031 312.7801208496094 C 207.7496795654297 305.7653198242188 221.6008911132812 297.9757385253906 234.6378784179688 289.627685546875 C 248.1372375488281 280.9835205078125 260.6158752441406 271.8320922851562 271.7271423339844 262.4274291992188 C 283.3842163085938 252.5608215332031 293.5008850097656 242.4410247802734 301.7960815429688 232.34912109375 C 310.5602416992188 221.6867218017578 317.33056640625 211.0015258789062 321.9190368652344 200.59033203125 C 324.3084716796875 195.1686248779297 326.1368408203125 189.7423706054688 327.3531799316406 184.4623260498047 C 328.6053466796875 179.0269775390625 329.240234375 173.6103820800781 329.240234375 168.3628692626953 C 329.240234375 145.7037200927734 327.03564453125 128.3932800292969 322.3021850585938 113.8858795166016 C 319.8118896484375 106.2535247802734 316.6404724121094 99.42747497558594 312.6067199707031 93.01777648925781 C 308.5528259277344 86.57608032226562 303.712646484375 80.688720703125 297.8094787597656 75.01922607421875 C 291.9715881347656 69.41236877441406 285.2118225097656 64.132568359375 277.14404296875 58.87812805175781 C 269.328125 53.7877197265625 260.4051818847656 48.8018798828125 249.8653869628906 43.6356201171875 C 231.1636810302734 34.46871948242188 207.3455810546875 24.72488403320312 172.6369781494141 12.04196166992188 C 162.4296875 8.3121337890625 152.4394836425781 5.491424560546875 142.9439239501953 3.658233642578125 C 133.8072814941406 1.894317626953125 124.8973236083984 0.999969482421875 116.4615783691406 0.999969482421875 M 116.4615631103516 0 C 133.2092742919922 0 151.9993896484375 3.436126708984375 172.9801788330078 11.10272216796875 C 298.0254211425781 56.79562377929688 330.240234375 81.51048278808594 330.240234375 168.3628692626953 C 330.240234375 255.2152252197266 161.8271331787109 347.4374694824219 74.97483825683594 347.4374694824219 C -11.87747192382812 347.4374694824219 0.624725341796875 243.6839752197266 0.624725341796875 156.8315734863281 C 0.624725341796875 84.55180358886719 33.3931884765625 0 116.4615631103516 0 Z" stroke="none" fill="#f58737"/>
    </g>
    <g id="instilling-good-behavior-in-down-syndrome-children-800x533-3" data-name="instilling-good-behavior-in-down-syndrome-children-800x533" transform="translate(72.12)" fill="none" opacity="0.4">
      <path d="M172.98,11.1C298.025,56.8,330.24,81.51,330.24,168.363S161.827,347.438,74.975,347.438.625,243.684.625,156.832,47.935-34.59,172.98,11.1Z" stroke="none"/>
      <path d="M 116.4615783691406 0.999969482421875 C 106.4544830322266 0.999969482421875 96.84553527832031 2.257568359375 87.9017333984375 4.737884521484375 C 79.39442443847656 7.097076416015625 71.29913330078125 10.61468505859375 63.84072875976562 15.19284057617188 C 49.93386840820312 23.72921752929688 37.95742797851562 36.05746459960938 28.24407958984375 51.83511352539062 C 23.75503540039062 59.12677001953125 19.73727416992188 67.19502258300781 16.30242919921875 75.815673828125 C 13.0228271484375 84.046630859375 10.23446655273438 92.87931823730469 8.0147705078125 102.0684204101562 C 5.884918212890625 110.8857727050781 4.261077880859375 120.0997772216797 3.1884765625 129.4544219970703 C 2.15081787109375 138.5039215087891 1.624725341796875 147.7149200439453 1.624725341796875 156.8315734863281 C 1.624725341796875 166.5045776367188 1.4669189453125 176.5702209472656 1.31427001953125 186.3044281005859 C 0.87457275390625 214.3485717773438 0.419891357421875 243.3475341796875 3.567535400390625 268.4664306640625 C 5.25933837890625 281.96728515625 7.822723388671875 293.2243347167969 11.40423583984375 302.8807373046875 C 13.34054565429688 308.1014404296875 15.608642578125 312.8943176269531 18.14556884765625 317.1263122558594 C 20.80227661132812 321.5581665039062 23.84536743164062 325.5281372070312 27.19027709960938 328.9258728027344 C 29.93594360351562 331.7149353027344 32.9644775390625 334.1998291015625 36.19183349609375 336.3116149902344 C 39.52166748046875 338.4905395507812 43.16708374023438 340.3402709960938 47.02682495117188 341.8095703125 C 51.00543212890625 343.3241271972656 55.33367919921875 344.4809265136719 59.89138793945312 345.2479248046875 C 64.58203125 346.0372314453125 69.65682983398438 346.4374694824219 74.97483825683594 346.4374694824219 C 85.57072448730469 346.4374694824219 97.58213806152344 345.0542297363281 110.6753845214844 342.326171875 C 123.4512329101562 339.6642761230469 137.07373046875 335.7624206542969 151.1644744873047 330.7289733886719 C 165.1865844726562 325.7200317382812 179.4198760986328 319.6811828613281 193.4690246582031 312.7801208496094 C 207.7496795654297 305.7653198242188 221.6008911132812 297.9757385253906 234.6378784179688 289.627685546875 C 248.1372375488281 280.9835205078125 260.6158752441406 271.8320922851562 271.7271423339844 262.4274291992188 C 283.3842163085938 252.5608215332031 293.5008850097656 242.4410247802734 301.7960815429688 232.34912109375 C 310.5602416992188 221.6867218017578 317.33056640625 211.0015258789062 321.9190368652344 200.59033203125 C 324.3084716796875 195.1686248779297 326.1368408203125 189.7423706054688 327.3531799316406 184.4623260498047 C 328.6053466796875 179.0269775390625 329.240234375 173.6103820800781 329.240234375 168.3628692626953 C 329.240234375 145.7037200927734 327.03564453125 128.3932800292969 322.3021850585938 113.8858795166016 C 319.8118896484375 106.2535247802734 316.6404724121094 99.42747497558594 312.6067199707031 93.01777648925781 C 308.5528259277344 86.57608032226562 303.712646484375 80.688720703125 297.8094787597656 75.01922607421875 C 291.9715881347656 69.41236877441406 285.2118225097656 64.132568359375 277.14404296875 58.87812805175781 C 269.328125 53.7877197265625 260.4051818847656 48.8018798828125 249.8653869628906 43.6356201171875 C 231.1636810302734 34.46871948242188 207.3455810546875 24.72488403320312 172.6369781494141 12.04196166992188 C 162.4296875 8.3121337890625 152.4394836425781 5.491424560546875 142.9439239501953 3.658233642578125 C 133.8072814941406 1.894317626953125 124.8973236083984 0.999969482421875 116.4615783691406 0.999969482421875 M 116.4615631103516 0 C 133.2092742919922 0 151.9993896484375 3.436126708984375 172.9801788330078 11.10272216796875 C 298.0254211425781 56.79562377929688 330.240234375 81.51048278808594 330.240234375 168.3628692626953 C 330.240234375 255.2152252197266 161.8271331787109 347.4374694824219 74.97483825683594 347.4374694824219 C -11.87747192382812 347.4374694824219 0.624725341796875 243.6839752197266 0.624725341796875 156.8315734863281 C 0.624725341796875 84.55180358886719 33.3931884765625 0 116.4615631103516 0 Z" stroke="none" fill="#f58737"/>
    </g>
  </g>
</svg>
