<svg xmlns="http://www.w3.org/2000/svg" xmlns:xlink="http://www.w3.org/1999/xlink" width="640.718" height="501.022" viewBox="0 0 640.718 501.022">
  <defs>
    <linearGradient id="linear-gradient" x1="0.072" y1="1.941" x2="0.355" y2="1.038" gradientUnits="objectBoundingBox">
      <stop offset="0" stop-color="#ff3c4a"/>
      <stop offset="1" stop-color="#ff9400"/>
    </linearGradient>
    <linearGradient id="linear-gradient-2" x1="-4.163" y1="-8.451" x2="-4.009" y2="-10.116" gradientUnits="objectBoundingBox">
      <stop offset="0" stop-color="#055a7f"/>
      <stop offset="1" stop-color="#089ab2"/>
    </linearGradient>
    <linearGradient id="linear-gradient-3" x1="-0.15" y1="-4.87" x2="-0.837" y2="-5.879" xlink:href="#linear-gradient-2"/>
    <linearGradient id="linear-gradient-4" x1="-0.929" y1="-6.803" x2="-0.319" y2="-6.221" xlink:href="#linear-gradient-2"/>
    <radialGradient id="radial-gradient" cx="0.5" cy="0.5" r="0.812" gradientTransform="translate(0.116 1.63) scale(0.616 0.616)" gradientUnits="objectBoundingBox">
      <stop offset="0" stop-color="#055a7f"/>
      <stop offset="1" stop-color="#fff"/>
    </radialGradient>
    <linearGradient id="linear-gradient-5" x1="0.534" y1="1.007" x2="0.421" y2="0.287" gradientUnits="objectBoundingBox">
      <stop offset="0.14" stop-color="#09b1b5"/>
      <stop offset="1" stop-color="#00d6e4"/>
    </linearGradient>
    <linearGradient id="linear-gradient-6" x1="1.238" y1="0.302" x2="-0.05" y2="1.447" gradientUnits="objectBoundingBox">
      <stop offset="0" stop-color="#73f5cf"/>
      <stop offset="1" stop-color="#00d6e4"/>
    </linearGradient>
    <linearGradient id="linear-gradient-7" x1="0.975" y1="0.732" x2="0.273" y2="0.055" xlink:href="#linear-gradient-2"/>
    <linearGradient id="linear-gradient-8" x1="0.5" y1="2.161" x2="0.5" y2="0.243" xlink:href="#linear-gradient-6"/>
    <linearGradient id="linear-gradient-10" x1="-0.122" y1="0.5" x2="0.965" y2="0.5" xlink:href="#linear-gradient-2"/>
    <linearGradient id="linear-gradient-11" x1="1.014" y1="0.5" x2="-0.008" y2="0.5" xlink:href="#linear-gradient-2"/>
    <linearGradient id="linear-gradient-12" x1="0" y1="0.5" x2="1" y2="0.5" xlink:href="#linear-gradient-6"/>
    <linearGradient id="linear-gradient-13" x1="-2.409" y1="-12.016" x2="-3.081" y2="-12.689" xlink:href="#linear-gradient-2"/>
    <linearGradient id="linear-gradient-14" x1="-2.786" y1="-12.342" x2="-2.296" y2="-12.342" xlink:href="#linear-gradient-2"/>
    <linearGradient id="linear-gradient-15" x1="-5.715" y1="14.487" x2="-6.387" y2="13.815" xlink:href="#linear-gradient-2"/>
    <linearGradient id="linear-gradient-16" x1="-6.093" y1="14.167" x2="-5.603" y2="14.167" xlink:href="#linear-gradient-2"/>
    <linearGradient id="linear-gradient-17" x1="1.21" y1="0.902" x2="0.093" y2="0.209" xlink:href="#linear-gradient-2"/>
    <linearGradient id="linear-gradient-18" x1="0.851" y1="0.914" x2="0.208" y2="0.254" xlink:href="#linear-gradient"/>
    <linearGradient id="linear-gradient-19" x1="0.083" y1="-3.95" x2="-0.567" y2="-4.596" xlink:href="#linear-gradient"/>
    <linearGradient id="linear-gradient-20" x1="-0.153" y1="4.869" x2="-0.814" y2="4.225" xlink:href="#linear-gradient"/>
  </defs>
  <g id="Group_177207" data-name="Group 177207" transform="translate(-627.647 -91.106)" opacity="0.18">
    <g id="Group_177204" data-name="Group 177204" transform="translate(627.647 91.106)">
      <g id="Group_177203" data-name="Group 177203">
        <g id="Group_177184" data-name="Group 177184" transform="translate(0 19.783)">
          <path id="Path_39197" data-name="Path 39197" d="M800.339,267.649a37.3,37.3,0,0,0-10.969,1.642c.008-.333.024-.663.024-1a37.34,37.34,0,0,0-63.836-26.313,37.336,37.336,0,0,0-61.426,28.531c0,.873.041,1.736.1,2.595A37.336,37.336,0,1,0,670,347.427a37.335,37.335,0,0,0,58.234,10.792,37.342,37.342,0,0,0,66.91-16.252,37.341,37.341,0,1,0,5.194-74.318Z" transform="translate(-627.647 -29.087)" fill="#fff"/>
          <path id="Path_39198" data-name="Path 39198" d="M1072.073,326.89a37.324,37.324,0,0,0-10.971,1.64c.008-.331.025-.662.025-1a37.34,37.34,0,0,0-63.837-26.312,37.336,37.336,0,0,0-61.426,28.529c0,.873.041,1.737.1,2.595a37.337,37.337,0,1,0,5.769,74.323,37.335,37.335,0,0,0,58.234,10.792,37.342,37.342,0,0,0,66.91-16.252,37.341,37.341,0,1,0,5.2-74.318Z" transform="translate(-468.696 5.565)" fill="#fff"/>
          <path id="Path_39199" data-name="Path 39199" d="M909.8,135.823a32.8,32.8,0,0,0-9.636,1.442c.008-.292.022-.582.022-.876a32.8,32.8,0,0,0-56.074-23.112,32.8,32.8,0,0,0-53.956,25.06c0,.767.036,1.526.089,2.279a32.8,32.8,0,1,0,5.067,65.284,32.794,32.794,0,0,0,51.153,9.48A32.8,32.8,0,0,0,905.233,201.1a32.8,32.8,0,1,0,4.563-65.281Z" transform="translate(-551.336 -103.588)" fill="#fff"/>
        </g>
        <g id="Group_177190" data-name="Group 177190" transform="translate(365.726)">
          <g id="Group_177185" data-name="Group 177185" transform="translate(91.456)">
            <path id="Path_39200" data-name="Path 39200" d="M941.533,276.346s-36.018-108.306-22.33-113,31.227,13.787,31.227,13.787-17.737-41.358-8.991-49.707,18.232,8.2,18.232,8.2-3.763-52.874,26.237-43.38c24.359,7.708,0,57.611,0,57.611s15.713-26.187,28.559-10.919-38.047,65.072-38.047,65.072,25.05-23.519,38-8.6S941.533,276.346,941.533,276.346Z" transform="translate(-916.099 -91.106)" fill="url(#linear-gradient)"/>
            <path id="Path_39201" data-name="Path 39201" d="M990.631,198.472c-6.828,2.011-31.964,24.251-41.2,32.564,6.4-21.589,12.451-45.379,17.233-66.024,9.743-7.253,26.667-19.569,29.513-20.582l-.48-1.349c-3.229,1.149-21.43,14.515-28.539,19.782,6.034-26.263,9.911-47,9.641-50.783a1.406,1.406,0,0,0-.4-1.022l-.919,1.1a.465.465,0,0,1-.143-.187c.709,2.247-3.484,24.27-10.05,52.283l-.062.048c-1.946-6.31-14.09-29.846-15.87-30.357l-.244.857-.4.382c1.533,1.593,15.314,26.611,15.342,30.353l.011,1.415.711-.533c-4.951,20.966-11.171,45.016-17.634,66.577-1.36-10.431-15.572-53.337-16.932-54.12l-.452.783-.448.295c1.418,2.162,17.1,49.311,16.5,54.6l-.217,1.9.7-.639c-8.005,26.342-16.315,48.507-23,55.954l1.065.956c7.284-8.112,16.033-31.579,24.28-59.043,7.121-6.441,35.449-31.793,42.39-33.836Z" transform="translate(-911.887 -79.436)" fill="#ba1125"/>
          </g>
          <g id="Group_177186" data-name="Group 177186" transform="translate(84.789 156.518)">
            <path id="Path_39202" data-name="Path 39202" d="M927.513,256.072s95.606,31.794,99.749,19.712-12.169-27.564-12.169-27.564,36.508,15.656,43.878,7.936-7.24-16.094-7.24-16.094,46.673,3.32,38.294-23.161c-6.806-21.5-50.856,0-50.856,0s23.116-13.87,9.638-25.21-57.44,33.585-57.44,33.585,20.76-22.113,7.589-33.541S927.513,256.072,927.513,256.072Z" transform="translate(-902.754 -189.858)" fill="url(#linear-gradient-2)"/>
            <path id="Path_39203" data-name="Path 39203" d="M995.091,203.754c-1.775,6.026-21.406,28.214-28.746,36.367,19.057-5.649,40.058-10.993,58.282-15.214,6.4-8.6,17.276-23.54,18.17-26.053l1.19.425c-1.014,2.851-12.813,18.918-17.463,25.193,23.183-5.327,41.491-8.749,44.829-8.51a1.231,1.231,0,0,1,.9.349l-.97.811a.426.426,0,0,0,.167.125c-1.984-.626-21.426,3.075-46.152,8.873l-.041.054c5.568,1.718,26.347,12.439,26.8,14.009l-.756.216-.338.352c-1.406-1.354-23.489-13.518-26.794-13.543l-1.249-.011.469-.628c-18.506,4.371-39.736,9.86-58.77,15.566,9.209,1.2,47.083,13.746,47.773,14.948l-.691.4-.26.4c-1.908-1.252-43.529-15.093-48.2-14.564l-1.677.19.564-.615c-23.253,7.067-42.819,14.4-49.392,20.3l-.843-.941c7.161-6.43,27.874-14.152,52.119-21.432,5.685-6.288,28.063-31.292,29.867-37.419Z" transform="translate(-911.892 -184.597)" fill="#055159"/>
          </g>
          <g id="Group_177189" data-name="Group 177189" transform="translate(0 293.34)">
            <g id="Group_177187" data-name="Group 177187" transform="translate(18.274 73.21)">
              <path id="Path_39204" data-name="Path 39204" d="M870.584,434.705s-4.363-29.3,9.377-46.81S900.31,364.82,900.31,364.82l17.956,16.813-8.128-29.6S943.3,334.091,957.3,332.04l12.288,15.778.133-23.207s61.363-9.866,84.793,11.852c0,0-22.247,44.775-30.022,53.261,0,0-15.536-5.94-18.294-10.036,0,0,5.345,13.707,10.356,17.656,0,0-39.121,35-58.553,37.554L940.06,421.856l7.172,18.018S895.422,448.657,870.584,434.705Z" transform="translate(-869.926 -322.375)" fill="url(#linear-gradient-3)"/>
              <path id="Path_39205" data-name="Path 39205" d="M946.989,434.674l-7.172-18.018L957.756,429.7c19.432-2.556,58.553-37.552,58.553-37.552-5.011-3.95-10.356-17.656-10.356-17.656,2.758,4.1,18.294,10.036,18.294,10.036,7.776-8.486,30.022-53.261,30.022-53.261s-93.528,20.178-183.927,98.242C895.179,443.458,946.989,434.674,946.989,434.674Z" transform="translate(-869.683 -317.176)" fill="url(#linear-gradient-4)"/>
            </g>
            <ellipse id="Ellipse_825" data-name="Ellipse 825" cx="76.223" cy="46.925" rx="76.223" ry="46.925" transform="translate(0 78.597) rotate(-13.384)" fill="url(#radial-gradient)" style="mix-blend-mode: multiply;isolation: isolate"/>
            <g id="Group_177188" data-name="Group 177188" transform="translate(33.34)">
              <path id="Path_39206" data-name="Path 39206" d="M882.242,398.243s-7.814-26.493,2.614-44.444,15.815-23.939,15.815-23.939l18.755,13.209L908.1,316.781s28.313-20.856,40.973-24.557l13.387,12.986-2.874-21.451s55.4-17.038,79.842,0c0,0-14.762,44.225-20.848,53.069,0,0-15.114-3.481-18.19-6.909,0,0,6.706,11.971,11.844,14.971,0,0-31.612,37.373-49.227,42.245L944.75,377.4l8.95,15.715S906.985,407.922,882.242,398.243Z" transform="translate(-879.431 -276.184)" fill="url(#linear-gradient-5)"/>
              <path id="Path_39207" data-name="Path 39207" d="M952.662,390.323l-8.95-15.715,18.252,9.728c17.615-4.872,49.227-42.245,49.227-42.245-5.139-3-11.844-14.971-11.844-14.971,3.076,3.428,18.19,6.909,18.19,6.909,6.086-8.844,20.848-53.069,20.848-53.069s-83.774,30.715-157.181,114.489C905.948,405.128,952.662,390.323,952.662,390.323Z" transform="translate(-878.394 -273.391)" fill="url(#linear-gradient-6)"/>
            </g>
          </g>
        </g>
        <g id="Group_177199" data-name="Group 177199" transform="translate(46.051 14.499)">
          <g id="Group_177193" data-name="Group 177193" transform="translate(0 61.506)">
            <path id="Path_39208" data-name="Path 39208" d="M823.588,184.662h-13.9a69.539,69.539,0,0,1-139.078,0H656.7a83.569,83.569,0,0,0,57.436,79.278,30.1,30.1,0,0,1,20.972,28.491v65.435h13.9V291.177a29.955,29.955,0,0,1,19.712-28.122A83.578,83.578,0,0,0,823.588,184.662Z" transform="translate(-656.702 -112.385)" fill="url(#linear-gradient-7)"/>
            <g id="Group_177192" data-name="Group 177192" transform="translate(1.907 0)">
              <path id="Path_39209" data-name="Path 39209" d="M771.1,212.133h-7.724V163.985a9.737,9.737,0,0,0-9.725-9.724h-12.5v-7.723h12.5A17.468,17.468,0,0,1,771.1,163.985Z" transform="translate(-609.211 -134.686)" fill="url(#linear-gradient-8)"/>
              <path id="Path_39210" data-name="Path 39210" d="M665.142,207.694h-7.237V162.585a16.369,16.369,0,0,1,16.349-16.349h11.713v7.238H674.254a9.121,9.121,0,0,0-9.112,9.11Z" transform="translate(-657.905 -134.863)" fill="url(#linear-gradient-8)"/>
              <g id="Group_177191" data-name="Group 177191" transform="translate(28.052)">
                <path id="Rectangle_162935" data-name="Rectangle 162935" d="M2.61,0h7.664a2.81,2.81,0,0,1,2.81,2.81V29.722a2.81,2.81,0,0,1-2.81,2.81H2.61A2.61,2.61,0,0,1,0,29.923V2.61A2.61,2.61,0,0,1,2.61,0Z" transform="translate(104.175 32.533) rotate(180)" fill="url(#linear-gradient-10)"/>
                <path id="Rectangle_162936" data-name="Rectangle 162936" d="M2.61,0h7.664a2.81,2.81,0,0,1,2.81,2.81V29.722a2.81,2.81,0,0,1-2.81,2.81H2.61A2.61,2.61,0,0,1,0,29.923V2.61A2.61,2.61,0,0,1,2.61,0Z" transform="translate(0 0)" fill="url(#linear-gradient-11)"/>
              </g>
            </g>
          </g>
          <g id="Group_177194" data-name="Group 177194" transform="translate(97.862 52.227)">
            <path id="Path_39211" data-name="Path 39211" d="M828.38,516.124v19.165H972.52s-1.447-84.857,16.43-94.331c88.789-47.062,138.179-250.841-27.664-300.12-114.381-33.986-193.794,53.6-209.313,104.341-2.677,8.752-5.422,17.476-5.422,26.629V296.3l-.011-.022.011.024v16.667a29.2,29.2,0,0,1-5.108,16.5c-6.194,9.048-15.044,22.226-21.157,31.355a10.862,10.862,0,0,0,4.343,15.842l12.192,5.836-2.848,10.968a10.427,10.427,0,0,0,3.176,10.426l5.018,4.449s-4.9,6.684,3.788,18.268-6.324,50.048,17.29,51.161S825.26,473.8,828.38,516.124Z" transform="translate(-718.446 -133.206)" fill="url(#linear-gradient-12)"/>
            <path id="Path_39212" data-name="Path 39212" d="M1012.836,247.619a34.6,34.6,0,0,0-22.05-41.21,52.761,52.761,0,0,0-75.062-46.295,23.178,23.178,0,0,0-37.473-1.16,56.134,56.134,0,0,0-20.985-3.988c-22.92,0-42.041,13.272-46.45,30.913-25.329,7.446-43.442,27.225-43.442,50.458,0,28.279,26.832,51.429,60.851,53.46a61.682,61.682,0,0,0,34.751,40.67,34.625,34.625,0,0,1,20.92,31.62c-.008,19.619-.014,42.936-.014,42.936a14.568,14.568,0,0,0,14.569,14.569h15.385V406.976a19.951,19.951,0,0,1,20.26-19.828h.219A50.426,50.426,0,0,0,984.7,338.715a57.428,57.428,0,0,0,28.138-91.1Z" transform="translate(-689.826 -123.394)" fill="#fff"/>
          </g>
          <g id="Group_177198" data-name="Group 177198" transform="translate(81.497)">
            <g id="Group_177195" data-name="Group 177195" transform="translate(239.713 137.183)">
              <path id="Path_39213" data-name="Path 39213" d="M898.255,225.7c-14.491,14.491-38.88,13.6-38.88,13.6s-.892-24.389,13.6-38.882,38.88-13.6,38.88-13.6S912.748,211.207,898.255,225.7Z" transform="translate(-859.364 -186.807)" fill="url(#linear-gradient-13)"/>
              <path id="Path_39214" data-name="Path 39214" d="M898.252,225.7c14.493-14.493,13.6-38.882,13.6-38.882L859.371,239.3S883.76,240.187,898.252,225.7Z" transform="translate(-859.36 -186.803)" fill="url(#linear-gradient-14)"/>
            </g>
            <g id="Group_177196" data-name="Group 177196" transform="translate(185.776 142.407)">
              <path id="Path_39215" data-name="Path 39215" d="M864.224,203.714c14.493,14.491,13.6,38.88,13.6,38.88s-24.389.892-38.88-13.6-13.6-38.88-13.6-38.88S849.732,189.222,864.224,203.714Z" transform="translate(-825.333 -190.103)" fill="url(#linear-gradient-15)"/>
              <path id="Path_39216" data-name="Path 39216" d="M864.22,203.714c-14.493-14.493-38.88-13.6-38.88-13.6l52.481,52.481S878.713,218.206,864.22,203.714Z" transform="translate(-825.329 -190.103)" fill="url(#linear-gradient-16)"/>
            </g>
            <path id="Path_39217" data-name="Path 39217" d="M901.815,517.753H759.635a51.57,51.57,0,0,1-51.514-51.512V390.421h7.725V466.24a43.839,43.839,0,0,0,43.789,43.789h142.18a39.954,39.954,0,0,0,39.907-39.909V129.007h7.725V470.12A47.687,47.687,0,0,1,901.815,517.753Z" transform="translate(-708.121 -83.435)" fill="url(#linear-gradient-17)"/>
            <g id="Group_177197" data-name="Group 177197" transform="translate(189.812)">
              <path id="Path_39218" data-name="Path 39218" d="M924.052,135.324a20.612,20.612,0,0,0-25.971-13.233c-.233.076-.463.162-.691.246.033-.488.057-.978.057-1.474a20.609,20.609,0,0,0-41.218,0c0,.247.01.49.017.734-.452-.182-.91-.357-1.382-.51a20.61,20.61,0,1,0-12.737,39.2c.233.076.468.141.7.209-.314.374-.621.756-.911,1.157a20.609,20.609,0,1,0,33.346,24.228c.146-.2.28-.4.417-.6.258.414.528.824.818,1.225a20.61,20.61,0,1,0,33.347-24.228c-.144-.2-.295-.39-.445-.583.474-.117.946-.246,1.418-.4A20.61,20.61,0,0,0,924.052,135.324Z" transform="translate(-827.88 -100.254)" fill="url(#linear-gradient-18)"/>
              <circle id="Ellipse_826" data-name="Ellipse 826" cx="11.626" cy="11.626" r="11.626" transform="translate(32.151 47.374) rotate(-45)" fill="#fff"/>
            </g>
          </g>
        </g>
        <g id="Group_177202" data-name="Group 177202" transform="translate(214.088 157.155)">
          <g id="Group_177200" data-name="Group 177200" transform="translate(247.443)">
            <path id="Path_39219" data-name="Path 39219" d="M996.485,233.149a16.659,16.659,0,0,0-14.81-18.322c-.2-.021-.395-.033-.591-.048.185-.347.365-.7.528-1.068a16.658,16.658,0,0,0-30.425-13.577c-.081.181-.154.365-.228.547-.273-.284-.555-.563-.853-.832a16.658,16.658,0,1,0-22.314,24.74c.147.133.3.26.45.387-.355.173-.707.353-1.054.553A16.658,16.658,0,0,0,943.82,254.4c.173-.1.339-.2.507-.309.054.39.117.781.2,1.174a16.658,16.658,0,0,0,32.595-6.9c-.041-.193-.089-.385-.136-.577.388.07.78.13,1.177.173A16.659,16.659,0,0,0,996.485,233.149Z" transform="translate(-918.843 -190.26)" fill="url(#linear-gradient-19)"/>
            <circle id="Ellipse_827" data-name="Ellipse 827" cx="9.397" cy="9.397" r="9.397" transform="translate(26.371 30.802) rotate(-20.578)" fill="#fff"/>
          </g>
          <g id="Group_177201" data-name="Group 177201" transform="translate(0 143.441)">
            <path id="Path_39220" data-name="Path 39220" d="M827.581,294.578a14.766,14.766,0,0,0-20.658-3.059c-.141.1-.277.214-.414.323-.089-.339-.184-.677-.3-1.013a14.767,14.767,0,1,0-28,9.408c.057.166.119.33.181.495-.349-.022-.7-.035-1.056-.032a14.767,14.767,0,1,0,.3,29.532c.176,0,.35-.011.525-.019-.128.326-.249.656-.355,1a14.767,14.767,0,1,0,28.179,8.842c.052-.168.1-.336.144-.5.269.222.547.439.835.645a14.767,14.767,0,1,0,17.119-24.067c-.144-.1-.29-.2-.436-.293.295-.189.587-.384.872-.6A14.766,14.766,0,0,0,827.581,294.578Z" transform="translate(-762.722 -280.762)" fill="url(#linear-gradient-20)"/>
            <path id="Path_39221" data-name="Path 39221" d="M796,302.025a8.33,8.33,0,1,1-10.55-5.243A8.329,8.329,0,0,1,796,302.025Z" transform="translate(-752.75 -271.646)" fill="#fff"/>
          </g>
        </g>
      </g>
    </g>
    <g id="Group_177205" data-name="Group 177205" transform="translate(645.243 101.345)">
      <path id="Path_39222" data-name="Path 39222" d="M688.613,353.445a7.167,7.167,0,1,1-7.167-7.167A7.166,7.166,0,0,1,688.613,353.445Z" transform="translate(-617.966 47.918)" fill="#9ad8d6"/>
      <path id="Path_39223" data-name="Path 39223" d="M718.757,195.279a5.12,5.12,0,1,1-5.121-5.119A5.121,5.121,0,0,1,718.757,195.279Z" transform="translate(-597.938 -43.403)" fill="#9ad8d6"/>
      <path id="Path_39224" data-name="Path 39224" d="M918.921,107.8a10.239,10.239,0,1,1-10.239-10.239A10.238,10.238,0,0,1,918.921,107.8Z" transform="translate(-486.841 -97.566)" fill="#9ad8d6"/>
      <path id="Path_39225" data-name="Path 39225" d="M1020.77,268.55a8.191,8.191,0,1,1-8.191-8.191A8.192,8.192,0,0,1,1020.77,268.55Z" transform="translate(-424.868 -2.34)" fill="#9ad8d6"/>
      <circle id="Ellipse_828" data-name="Ellipse 828" cx="10.921" cy="10.921" r="10.921" transform="translate(499.657 251.194)" fill="#9ad8d6"/>
      <path id="Path_39226" data-name="Path 39226" d="M1017.9,404.716a9.557,9.557,0,1,1-9.556-9.557A9.555,9.555,0,0,1,1017.9,404.716Z" transform="translate(-428.143 76.511)" fill="#9ad8d6"/>
      <path id="Path_39227" data-name="Path 39227" d="M751.215,117.946a3.584,3.584,0,1,1-3.584-3.584A3.583,3.583,0,0,1,751.215,117.946Z" transform="translate(-577.154 -87.741)" fill="#9ad8d6"/>
      <path id="Path_39228" data-name="Path 39228" d="M652.059,231.484a6.655,6.655,0,1,1-6.655-6.655A6.655,6.655,0,0,1,652.059,231.484Z" transform="translate(-638.749 -23.123)" fill="#9ad8d6"/>
    </g>
  </g>
</svg>
