<svg xmlns="http://www.w3.org/2000/svg" width="43.285" height="43.285" viewBox="0 0 43.285 43.285">
  <path id="twitter" d="M0,0V43.285H43.285V0ZM33.558,15.531q.018.4.018.8c0,8.125-6.184,17.492-17.492,17.492a17.4,17.4,0,0,1-9.424-2.762,12.408,12.408,0,0,0,9.1-2.546,6.154,6.154,0,0,1-5.743-4.269,6.153,6.153,0,0,0,2.777-.105,6.152,6.152,0,0,1-4.932-6.028c0-.026,0-.052,0-.077a6.123,6.123,0,0,0,2.785.769,6.155,6.155,0,0,1-1.9-8.208,17.454,17.454,0,0,0,12.672,6.424,6.152,6.152,0,0,1,10.476-5.608,12.305,12.305,0,0,0,3.9-1.492,6.166,6.166,0,0,1-2.7,3.4,12.294,12.294,0,0,0,3.531-.968A12.484,12.484,0,0,1,33.558,15.531Z" fill="#1d9bf0" fill-rule="evenodd"/>
</svg>
