<svg id="Layer_1" data-name="Layer 1" xmlns="http://www.w3.org/2000/svg" width="25" height="25" viewBox="0 0 25 25">
  <circle id="Ellipse_608" data-name="Ellipse 608" cx="12.5" cy="12.5" r="12.5" fill="#38a8e0"/>
  <path id="Path_12056" data-name="Path 12056" d="M42.5,38.847a5.537,5.537,0,0,1-1.591.436,2.777,2.777,0,0,0,1.217-1.533,5.544,5.544,0,0,1-1.759.671,2.771,2.771,0,0,0-4.719,2.526,7.862,7.862,0,0,1-5.708-2.893,2.773,2.773,0,0,0,.856,3.7,2.758,2.758,0,0,1-1.253-.347v.035a2.771,2.771,0,0,0,2.222,2.717,2.775,2.775,0,0,1-1.252.048A2.773,2.773,0,0,0,33.1,46.119,5.556,5.556,0,0,1,29.66,47.3a5.62,5.62,0,0,1-.66-.029A7.875,7.875,0,0,0,41.122,40.64v-.359A5.627,5.627,0,0,0,42.5,38.847Z" transform="translate(-23.25 -30.148)" fill="#fff"/>
</svg>
