<svg xmlns="http://www.w3.org/2000/svg" width="402.36" height="347.438" viewBox="0 0 402.36 347.438">
  <g id="Group_177119" data-name="Group 177119" transform="translate(127.24 -3725.563)" opacity="0.55">
    <g id="instilling-good-behavior-in-down-syndrome-children-800x533" transform="translate(203 4073) rotate(180)" fill="none">
      <path d="M157.26,336.335C32.215,290.642,0,265.927,0,179.075S168.413,0,255.265,0s74.35,103.754,74.35,190.606S282.305,382.028,157.26,336.335Z" stroke="none"/>
      <path d="M 213.7786560058594 346.4375305175781 C 223.7857513427734 346.4375305175781 233.3946990966797 345.179931640625 242.3385009765625 342.6996154785156 C 250.8458099365234 340.3404235839844 258.9411010742188 336.8228149414062 266.3995056152344 332.2446594238281 C 280.3063659667969 323.7082824707031 292.2828063964844 311.3800354003906 301.9961547851562 295.6023864746094 C 306.4851989746094 288.3107299804688 310.5029602050781 280.2424621582031 313.9378051757812 271.621826171875 C 317.2174072265625 263.390869140625 320.0057678222656 254.5581817626953 322.2254638671875 245.3690795898438 C 324.3553161621094 236.5517272949219 325.9791564941406 227.3377227783203 327.0517578125 217.9830780029297 C 328.0894165039062 208.9335784912109 328.6155090332031 199.7225799560547 328.6155090332031 190.6059265136719 C 328.6155090332031 180.9329223632812 328.7733154296875 170.8672790527344 328.9259643554688 161.1330718994141 C 329.3656616210938 133.0889282226562 329.8203430175781 104.089973449707 326.6726989746094 78.97107696533203 C 324.9808959960938 65.47022247314453 322.4175109863281 54.21317291259766 318.8359985351562 44.5567741394043 C 316.8996887207031 39.33607482910156 314.631591796875 34.54317474365234 312.0946655273438 30.3111743927002 C 309.4379577636719 25.87932395935059 306.3948669433594 21.90937423706055 303.0499572753906 18.51162528991699 C 300.3042907714844 15.72257423400879 297.2757568359375 13.23767471313477 294.0484008789062 11.12587451934814 C 290.7185668945312 8.946974754333496 287.0731506347656 7.097224235534668 283.2134094238281 5.62792444229126 C 279.2348022460938 4.11337423324585 274.9065551757812 2.956574440002441 270.3488464355469 2.189574480056763 C 265.658203125 1.400274515151978 260.5834045410156 1.000024437904358 255.2653961181641 1.000024437904358 C 244.6695098876953 1.000024437904358 232.6580963134766 2.383274555206299 219.5648498535156 5.111324310302734 C 206.7890014648438 7.773224353790283 193.16650390625 11.67507457733154 179.0757598876953 16.70852470397949 C 165.0536499023438 21.71747398376465 150.8203582763672 27.75632476806641 136.7712097167969 34.65737533569336 C 122.4905548095703 41.67217636108398 108.6393508911133 49.46177291870117 95.60235595703125 57.8098258972168 C 82.10300445556641 66.45397186279297 69.62435150146484 75.60542297363281 58.51310348510742 85.01007080078125 C 46.85600280761719 94.87667083740234 36.73935317993164 104.9964752197266 28.44415283203125 115.0883712768555 C 19.68000221252441 125.7507781982422 12.90965270996094 136.4359741210938 8.321203231811523 146.84716796875 C 5.931753158569336 152.2688751220703 4.103403091430664 157.6951293945312 2.887053251266479 162.9751739501953 C 1.634903192520142 168.4105224609375 1.000003099441528 173.8271179199219 1.000003099441528 179.0746307373047 C 1.000003099441528 201.7337799072266 3.20460319519043 219.0442199707031 7.938053131103516 233.5516204833984 C 10.42835330963135 241.1839752197266 13.59975337982178 248.0100250244141 17.63350296020508 254.4197235107422 C 21.68740272521973 260.8614196777344 26.52760314941406 266.748779296875 32.43075180053711 272.4182739257812 C 38.26865386962891 278.0251159667969 45.02840423583984 283.304931640625 53.0962028503418 288.5593872070312 C 60.91210174560547 293.6497802734375 69.83505249023438 298.6356201171875 80.37485504150391 303.8018798828125 C 99.07655334472656 312.9687805175781 122.8946533203125 322.7126159667969 157.6032562255859 335.3955383300781 C 167.810546875 339.1253662109375 177.8007507324219 341.9460754394531 187.2963104248047 343.7792663574219 C 196.4329528808594 345.5431823730469 205.3429107666016 346.4375305175781 213.7786560058594 346.4375305175781 M 213.7786712646484 347.4375 C 197.0309600830078 347.4375 178.2408447265625 344.0013732910156 157.2600555419922 336.3347778320312 C 32.21480178833008 290.6418762207031 3.149414169456577e-06 265.9270324707031 3.149414169456577e-06 179.0746307373047 C 3.149414169456577e-06 92.22227478027344 168.4131011962891 2.446288999635726e-05 255.2653961181641 2.446288999635726e-05 C 342.1177062988281 2.446288999635726e-05 329.6155090332031 103.7535247802734 329.6155090332031 190.6059265136719 C 329.6155090332031 262.8857116699219 296.8470458984375 347.4375 213.7786712646484 347.4375 Z" stroke="none" fill="#f58737"/>
    </g>
    <g id="instilling-good-behavior-in-down-syndrome-children-800x533-2" data-name="instilling-good-behavior-in-down-syndrome-children-800x533" transform="translate(240 4073) rotate(180)" fill="none">
      <path d="M157.26,336.335C32.215,290.642,0,265.927,0,179.075S168.413,0,255.265,0s74.35,103.754,74.35,190.606S282.305,382.028,157.26,336.335Z" stroke="none"/>
      <path d="M 213.7786560058594 346.4375305175781 C 223.7857513427734 346.4375305175781 233.3946990966797 345.179931640625 242.3385009765625 342.6996154785156 C 250.8458099365234 340.3404235839844 258.9411010742188 336.8228149414062 266.3995056152344 332.2446594238281 C 280.3063659667969 323.7082824707031 292.2828063964844 311.3800354003906 301.9961547851562 295.6023864746094 C 306.4851989746094 288.3107299804688 310.5029602050781 280.2424621582031 313.9378051757812 271.621826171875 C 317.2174072265625 263.390869140625 320.0057678222656 254.5581817626953 322.2254638671875 245.3690795898438 C 324.3553161621094 236.5517272949219 325.9791564941406 227.3377227783203 327.0517578125 217.9830780029297 C 328.0894165039062 208.9335784912109 328.6155090332031 199.7225799560547 328.6155090332031 190.6059265136719 C 328.6155090332031 180.9329223632812 328.7733154296875 170.8672790527344 328.9259643554688 161.1330718994141 C 329.3656616210938 133.0889282226562 329.8203430175781 104.089973449707 326.6726989746094 78.97107696533203 C 324.9808959960938 65.47022247314453 322.4175109863281 54.21317291259766 318.8359985351562 44.5567741394043 C 316.8996887207031 39.33607482910156 314.631591796875 34.54317474365234 312.0946655273438 30.3111743927002 C 309.4379577636719 25.87932395935059 306.3948669433594 21.90937423706055 303.0499572753906 18.51162528991699 C 300.3042907714844 15.72257423400879 297.2757568359375 13.23767471313477 294.0484008789062 11.12587451934814 C 290.7185668945312 8.946974754333496 287.0731506347656 7.097224235534668 283.2134094238281 5.62792444229126 C 279.2348022460938 4.11337423324585 274.9065551757812 2.956574440002441 270.3488464355469 2.189574480056763 C 265.658203125 1.400274515151978 260.5834045410156 1.000024437904358 255.2653961181641 1.000024437904358 C 244.6695098876953 1.000024437904358 232.6580963134766 2.383274555206299 219.5648498535156 5.111324310302734 C 206.7890014648438 7.773224353790283 193.16650390625 11.67507457733154 179.0757598876953 16.70852470397949 C 165.0536499023438 21.71747398376465 150.8203582763672 27.75632476806641 136.7712097167969 34.65737533569336 C 122.4905548095703 41.67217636108398 108.6393508911133 49.46177291870117 95.60235595703125 57.8098258972168 C 82.10300445556641 66.45397186279297 69.62435150146484 75.60542297363281 58.51310348510742 85.01007080078125 C 46.85600280761719 94.87667083740234 36.73935317993164 104.9964752197266 28.44415283203125 115.0883712768555 C 19.68000221252441 125.7507781982422 12.90965270996094 136.4359741210938 8.321203231811523 146.84716796875 C 5.931753158569336 152.2688751220703 4.103403091430664 157.6951293945312 2.887053251266479 162.9751739501953 C 1.634903192520142 168.4105224609375 1.000003099441528 173.8271179199219 1.000003099441528 179.0746307373047 C 1.000003099441528 201.7337799072266 3.20460319519043 219.0442199707031 7.938053131103516 233.5516204833984 C 10.42835330963135 241.1839752197266 13.59975337982178 248.0100250244141 17.63350296020508 254.4197235107422 C 21.68740272521973 260.8614196777344 26.52760314941406 266.748779296875 32.43075180053711 272.4182739257812 C 38.26865386962891 278.0251159667969 45.02840423583984 283.304931640625 53.0962028503418 288.5593872070312 C 60.91210174560547 293.6497802734375 69.83505249023438 298.6356201171875 80.37485504150391 303.8018798828125 C 99.07655334472656 312.9687805175781 122.8946533203125 322.7126159667969 157.6032562255859 335.3955383300781 C 167.810546875 339.1253662109375 177.8007507324219 341.9460754394531 187.2963104248047 343.7792663574219 C 196.4329528808594 345.5431823730469 205.3429107666016 346.4375305175781 213.7786560058594 346.4375305175781 M 213.7786712646484 347.4375 C 197.0309600830078 347.4375 178.2408447265625 344.0013732910156 157.2600555419922 336.3347778320312 C 32.21480178833008 290.6418762207031 3.149414169456577e-06 265.9270324707031 3.149414169456577e-06 179.0746307373047 C 3.149414169456577e-06 92.22227478027344 168.4131011962891 2.446288999635726e-05 255.2653961181641 2.446288999635726e-05 C 342.1177062988281 2.446288999635726e-05 329.6155090332031 103.7535247802734 329.6155090332031 190.6059265136719 C 329.6155090332031 262.8857116699219 296.8470458984375 347.4375 213.7786712646484 347.4375 Z" stroke="none" fill="#f58737"/>
    </g>
    <g id="instilling-good-behavior-in-down-syndrome-children-800x533-3" data-name="instilling-good-behavior-in-down-syndrome-children-800x533" transform="translate(275.12 4073) rotate(180)" fill="none">
      <path d="M157.26,336.335C32.215,290.642,0,265.927,0,179.075S168.413,0,255.265,0s74.35,103.754,74.35,190.606S282.305,382.028,157.26,336.335Z" stroke="none"/>
      <path d="M 213.7786560058594 346.4375305175781 C 223.7857513427734 346.4375305175781 233.3946990966797 345.179931640625 242.3385009765625 342.6996154785156 C 250.8458099365234 340.3404235839844 258.9411010742188 336.8228149414062 266.3995056152344 332.2446594238281 C 280.3063659667969 323.7082824707031 292.2828063964844 311.3800354003906 301.9961547851562 295.6023864746094 C 306.4851989746094 288.3107299804688 310.5029602050781 280.2424621582031 313.9378051757812 271.621826171875 C 317.2174072265625 263.390869140625 320.0057678222656 254.5581817626953 322.2254638671875 245.3690795898438 C 324.3553161621094 236.5517272949219 325.9791564941406 227.3377227783203 327.0517578125 217.9830780029297 C 328.0894165039062 208.9335784912109 328.6155090332031 199.7225799560547 328.6155090332031 190.6059265136719 C 328.6155090332031 180.9329223632812 328.7733154296875 170.8672790527344 328.9259643554688 161.1330718994141 C 329.3656616210938 133.0889282226562 329.8203430175781 104.089973449707 326.6726989746094 78.97107696533203 C 324.9808959960938 65.47022247314453 322.4175109863281 54.21317291259766 318.8359985351562 44.5567741394043 C 316.8996887207031 39.33607482910156 314.631591796875 34.54317474365234 312.0946655273438 30.3111743927002 C 309.4379577636719 25.87932395935059 306.3948669433594 21.90937423706055 303.0499572753906 18.51162528991699 C 300.3042907714844 15.72257423400879 297.2757568359375 13.23767471313477 294.0484008789062 11.12587451934814 C 290.7185668945312 8.946974754333496 287.0731506347656 7.097224235534668 283.2134094238281 5.62792444229126 C 279.2348022460938 4.11337423324585 274.9065551757812 2.956574440002441 270.3488464355469 2.189574480056763 C 265.658203125 1.400274515151978 260.5834045410156 1.000024437904358 255.2653961181641 1.000024437904358 C 244.6695098876953 1.000024437904358 232.6580963134766 2.383274555206299 219.5648498535156 5.111324310302734 C 206.7890014648438 7.773224353790283 193.16650390625 11.67507457733154 179.0757598876953 16.70852470397949 C 165.0536499023438 21.71747398376465 150.8203582763672 27.75632476806641 136.7712097167969 34.65737533569336 C 122.4905548095703 41.67217636108398 108.6393508911133 49.46177291870117 95.60235595703125 57.8098258972168 C 82.10300445556641 66.45397186279297 69.62435150146484 75.60542297363281 58.51310348510742 85.01007080078125 C 46.85600280761719 94.87667083740234 36.73935317993164 104.9964752197266 28.44415283203125 115.0883712768555 C 19.68000221252441 125.7507781982422 12.90965270996094 136.4359741210938 8.321203231811523 146.84716796875 C 5.931753158569336 152.2688751220703 4.103403091430664 157.6951293945312 2.887053251266479 162.9751739501953 C 1.634903192520142 168.4105224609375 1.000003099441528 173.8271179199219 1.000003099441528 179.0746307373047 C 1.000003099441528 201.7337799072266 3.20460319519043 219.0442199707031 7.938053131103516 233.5516204833984 C 10.42835330963135 241.1839752197266 13.59975337982178 248.0100250244141 17.63350296020508 254.4197235107422 C 21.68740272521973 260.8614196777344 26.52760314941406 266.748779296875 32.43075180053711 272.4182739257812 C 38.26865386962891 278.0251159667969 45.02840423583984 283.304931640625 53.0962028503418 288.5593872070312 C 60.91210174560547 293.6497802734375 69.83505249023438 298.6356201171875 80.37485504150391 303.8018798828125 C 99.07655334472656 312.9687805175781 122.8946533203125 322.7126159667969 157.6032562255859 335.3955383300781 C 167.810546875 339.1253662109375 177.8007507324219 341.9460754394531 187.2963104248047 343.7792663574219 C 196.4329528808594 345.5431823730469 205.3429107666016 346.4375305175781 213.7786560058594 346.4375305175781 M 213.7786712646484 347.4375 C 197.0309600830078 347.4375 178.2408447265625 344.0013732910156 157.2600555419922 336.3347778320312 C 32.21480178833008 290.6418762207031 3.149414169456577e-06 265.9270324707031 3.149414169456577e-06 179.0746307373047 C 3.149414169456577e-06 92.22227478027344 168.4131011962891 2.446288999635726e-05 255.2653961181641 2.446288999635726e-05 C 342.1177062988281 2.446288999635726e-05 329.6155090332031 103.7535247802734 329.6155090332031 190.6059265136719 C 329.6155090332031 262.8857116699219 296.8470458984375 347.4375 213.7786712646484 347.4375 Z" stroke="none" fill="#f58737"/>
    </g>
  </g>
</svg>
