<svg xmlns="http://www.w3.org/2000/svg" width="319.091" height="335.707" viewBox="0 0 319.091 335.707">
  <g id="Group_177282" data-name="Group 177282" transform="translate(-1123.125 -3734.499)">
    <path id="instilling-good-behavior-in-down-syndrome-children-800x533" d="M140.6,9.927C28.8,50.779,0,72.876,0,150.527s150.572,160.1,228.224,160.1S294.7,217.869,294.7,140.218,252.4-30.926,140.6,9.927Z" transform="translate(1135.042 3747.036)" fill="#f58737" opacity="0.22"/>
    <g id="instilling-good-behavior-in-down-syndrome-children-800x533-2" data-name="instilling-good-behavior-in-down-syndrome-children-800x533" transform="translate(1123.125 3734.499)" fill="none" opacity="0.67">
      <path d="M151.951,10.728C31.127,54.878,0,78.759,0,162.679S162.727,335.707,246.647,335.707s71.84-100.251,71.84-184.171S272.774-33.422,151.951,10.728Z" stroke="none"/>
      <path d="M 206.5587768554688 1 C 198.4105987548828 1 189.8039703369141 1.864013671875 180.9779205322266 3.56805419921875 C 171.8051910400391 5.33905029296875 162.1544647216797 8.06396484375 152.2938690185547 11.66714477539062 C 118.7582397460938 23.92141723632812 95.74528503417969 33.3358154296875 77.67610168457031 42.19271850585938 C 67.49337768554688 47.18391418457031 58.87286376953125 52.00077819824219 51.322021484375 56.91859436035156 C 43.52838134765625 61.99446105957031 36.99847412109375 67.0947265625 31.35919189453125 72.51077270507812 C 25.65737915039062 77.98695373535156 20.98226928710938 83.6734619140625 17.06674194335938 89.89532470703125 C 13.170654296875 96.08622741699219 10.10751342773438 102.6793670654297 7.7021484375 110.0513610839844 C 3.129638671875 124.0655059814453 1 140.7881774902344 1 162.6786346435547 C 1 172.6858673095703 3.37908935546875 183.1580963134766 8.071197509765625 193.8044128417969 C 12.50344848632812 203.861328125 19.04360961914062 214.1831359863281 27.50991821289062 224.4831848144531 C 35.52374267578125 234.2327728271484 45.29742431640625 244.0095062255859 56.55941772460938 253.5416870117188 C 67.29440307617188 262.6278076171875 79.35050964355469 271.4694519042969 92.39286804199219 279.8209533691406 C 104.9886474609375 287.8865051269531 118.37109375 295.4124450683594 132.16845703125 302.1898803710938 C 145.7421417236328 308.8573608398438 159.4937286376953 314.6918640136719 173.0412292480469 319.5312194824219 C 186.65478515625 324.3942260742188 199.8158721923828 328.1639709472656 212.1588287353516 330.7356872558594 C 224.8077850341797 333.3711242675781 236.411376953125 334.7074584960938 246.6471862792969 334.7074584960938 C 251.7837371826172 334.7074584960938 256.6853332519531 334.3209228515625 261.2157897949219 333.5585021972656 C 265.617431640625 332.8178100585938 269.79736328125 331.7006225585938 273.6395568847656 330.2380065917969 C 277.3667297363281 328.8191833496094 280.8869018554688 327.032958984375 284.102294921875 324.9290161132812 C 287.2186584472656 322.8898315429688 290.1430969238281 320.4903259277344 292.7943115234375 317.7971801757812 C 296.0244750976562 314.5159912109375 298.963134765625 310.6822204589844 301.5288391113281 306.4022827148438 C 303.97900390625 302.3149719238281 306.1696472167969 297.6857604980469 308.0398254394531 292.643310546875 C 311.49951171875 283.3153686523438 313.9757385253906 272.4408569335938 315.610107421875 259.3984069824219 C 318.6511840820312 235.1299591064453 318.2118835449219 207.1112365722656 317.7870178222656 180.0150451660156 C 317.6395568847656 170.6093597412109 317.487060546875 160.8834075927734 317.487060546875 151.5366821289062 C 317.487060546875 142.7290954589844 316.9787902832031 133.8304138183594 315.976318359375 125.0877227783203 C 314.9400634765625 116.0503234863281 313.371337890625 107.1488647460938 311.3136901855469 98.63055419921875 C 309.1693115234375 89.75332641601562 306.4755859375 81.22041320800781 303.3073120117188 73.26885986328125 C 299.9891357421875 64.94113159179688 296.10791015625 57.14714050292969 291.7714538574219 50.10336303710938 C 282.3888854980469 34.863037109375 270.8204956054688 22.95477294921875 257.3876953125 14.70932006835938 C 250.1837768554688 10.28732299804688 242.36474609375 6.889739990234375 234.1476898193359 4.61090087890625 C 225.5087890625 2.215057373046875 216.2272796630859 1.00018310546875 206.5596466064453 1 L 206.5587768554688 1 M 206.5610961914062 0 C 286.824951171875 0.001495361328125 318.487060546875 81.69717407226562 318.487060546875 151.5366821289062 C 318.487060546875 235.4568176269531 330.5671997070312 335.7074584960938 246.6471862792969 335.7074584960938 C 162.7271881103516 335.7074584960938 0 246.5987243652344 0 162.6786346435547 C 0 78.758544921875 31.12713623046875 54.87809753417969 151.9506378173828 10.72787475585938 C 172.2230834960938 3.320098876953125 190.3788146972656 -0.00030517578125 206.5610961914062 0 Z" stroke="none" fill="#f58737"/>
    </g>
  </g>
</svg>
