<svg xmlns="http://www.w3.org/2000/svg" width="273.75" height="288.006" viewBox="0 0 273.75 288.006">
  <g id="Group_177162" data-name="Group 177162" transform="translate(-1123.125 -3734.499)">
    <path id="instilling-good-behavior-in-down-syndrome-children-800x533" d="M98.53-7.087C2.618,27.961-22.092,46.918-22.092,113.536S107.085,250.89,173.7,250.89s57.028-79.582,57.028-146.2S194.443-42.134,98.53-7.087Z" transform="translate(1155.44 3760.857)" fill="#f58737" opacity="0.22"/>
    <g id="instilling-good-behavior-in-down-syndrome-children-800x533-2" data-name="instilling-good-behavior-in-down-syndrome-children-800x533" transform="translate(1145.217 3750.102)" fill="none" opacity="0.67">
      <path d="M108.268-6.4C4.612,31.477-22.092,51.965-22.092,123.96S117.513,272.4,189.508,272.4s61.632-86.006,61.632-158S211.923-44.276,108.268-6.4Z" stroke="none"/>
      <path d="M 155.1161346435547 -14.60281372070312 C 148.134765625 -14.60281372070312 140.7601776123047 -13.8624267578125 133.1971435546875 -12.4022216796875 C 125.3352661132812 -10.88435363769531 117.0632629394531 -8.54864501953125 108.61083984375 -5.460052490234375 C 79.84530639648438 5.051193237304688 60.10659790039062 13.12606811523438 44.60955810546875 20.72219848632812 C 35.87893676757812 25.00160217285156 28.48826599121094 29.1312255859375 22.01522827148438 33.34706115722656 C 15.3365478515625 37.69677734375 9.741348266601562 42.06689453125 4.909881591796875 46.7071533203125 C 0.02667236328125 51.39701843261719 -3.97698974609375 56.26676940917969 -7.329910278320312 61.59465026855469 C -10.66607666015625 66.89585876464844 -13.28910827636719 72.54177856445312 -15.34898376464844 78.85502624511719 C -19.26699829101562 90.86318969726562 -21.09182739257812 105.1956939697266 -21.09182739257812 123.9602355957031 C -21.09182739257812 132.5256500244141 -19.05487060546875 141.4905242919922 -15.03749084472656 150.6059417724609 C -11.24018859863281 159.2219390869141 -5.636199951171875 168.0660247802734 1.618850708007812 176.8924865722656 C 8.488601684570312 185.2501525878906 16.867431640625 193.6314849853516 26.52267456054688 201.8037414550781 C 35.72750854492188 209.5947265625 46.06538391113281 217.1762390136719 57.24922180175781 224.337646484375 C 68.05072021484375 231.2542266845703 79.52693176269531 237.7081909179688 91.3590087890625 243.5201873779297 C 102.9991455078125 249.2379455566406 114.7917251586914 254.2412719726562 126.4091415405273 258.3912048339844 C 138.0822143554688 262.56103515625 149.3668518066406 265.7933044433594 159.9495849609375 267.998291015625 C 170.7917175292969 270.2572631835938 180.7367248535156 271.4026794433594 189.5083923339844 271.4026794433594 C 193.9071807861328 271.4026794433594 198.1043395996094 271.0717163085938 201.9833068847656 270.4189758300781 C 205.7503051757812 269.7850646972656 209.3272705078125 268.8291015625 212.6147613525391 267.57763671875 C 215.8028106689453 266.364013671875 218.8135986328125 264.8363037109375 221.5635528564453 263.0368957519531 C 224.2286376953125 261.29296875 226.7296447753906 259.2409362792969 228.9970550537109 256.9376831054688 C 231.7602996826172 254.1307678222656 234.2745056152344 250.8506927490234 236.4698028564453 247.1885681152344 C 238.5673522949219 243.6894836425781 240.4428863525391 239.7260284423828 242.0443115234375 235.4082794189453 C 245.0085144042969 227.4161529541016 247.1303863525391 218.0972290039062 248.5311431884766 206.9190216064453 C 251.1388397216797 186.1088562011719 250.7620544433594 162.0765228271484 250.3976440429688 138.83544921875 C 250.2711029052734 130.7656860351562 250.1402587890625 122.4211883544922 250.1402587890625 114.4014434814453 C 250.1402587890625 106.8507308959961 249.7045135498047 99.22193908691406 248.8450927734375 91.72689819335938 C 247.9567565917969 83.97944641113281 246.6119689941406 76.34857177734375 244.8480529785156 69.04631042480469 C 243.0099639892578 61.43698120117188 240.7010955810547 54.12303161621094 237.9854736328125 47.30760192871094 C 235.1417999267578 40.1707763671875 231.8158111572266 33.49160766601562 228.0997619628906 27.45564270019531 C 220.0621795654297 14.4000244140625 210.1533050537109 4.19952392578125 198.6483917236328 -2.862518310546875 C 192.4794311523438 -6.64923095703125 185.7836303710938 -9.558731079101562 178.7470092773438 -11.51017761230469 C 171.3479614257812 -13.56214904785156 163.3981323242188 -14.60264587402344 155.1169281005859 -14.60281372070312 L 155.1161346435547 -14.60281372070312 M 155.1182861328125 -15.60282897949219 C 223.9771270751953 -15.60154724121094 251.1402587890625 54.48568725585938 251.1402587890625 114.4014434814453 C 251.1402587890625 186.3970642089844 261.5038757324219 272.4026794433594 189.5083923339844 272.4026794433594 C 117.5128860473633 272.4026794433594 -22.09182739257812 195.9557800292969 -22.09182739257812 123.9602355957031 C -22.09182739257812 51.96464538574219 4.612380981445312 31.47744750976562 108.2676391601562 -6.399307250976562 C 125.6594848632812 -12.75448608398438 141.2354125976562 -15.60307312011719 155.1182861328125 -15.60282897949219 Z" stroke="none" fill="#f58737"/>
    </g>
  </g>
</svg>
