<svg id="SvgjsG1013" xmlns="http://www.w3.org/2000/svg" width="55.492" height="39.307" viewBox="0 0 55.492 39.307">
  <g id="Group_177104" data-name="Group 177104">
    <path id="Path_39121" data-name="Path 39121" d="M22.016,26.9l0-15.7,14.994,7.878ZM54.937,8.479s-.543-3.85-2.206-5.547A7.9,7.9,0,0,0,47.171.565C39.406,0,27.759,0,27.759,0h-.025S16.086,0,8.32.566A7.893,7.893,0,0,0,2.76,2.932C1.1,4.628.555,8.479.555,8.479A85.147,85.147,0,0,0,0,17.524v4.24a85.083,85.083,0,0,0,.555,9.044s.541,3.851,2.2,5.547c2.112,2.227,4.884,2.157,6.119,2.39,4.439.429,18.867.562,18.867.562s11.66-.017,19.426-.584a7.906,7.906,0,0,0,5.56-2.368c1.664-1.7,2.206-5.547,2.206-5.547a85.054,85.054,0,0,0,.555-9.044v-4.24a85.148,85.148,0,0,0-.555-9.045Z" fill="#ce1312" fill-rule="evenodd"/>
  </g>
</svg>
